<svg width="159" height="46" viewBox="0 0 159 46" fill="none" xmlns="http://www.w3.org/2000/svg"><g clip-path="url(#clip0_9_252)"><path fill-rule="evenodd" clip-rule="evenodd" d="M7.3736 29.3256L14.2209 14.5656H15.2735L22.1208 29.3256H18.9603L18.434 27.2167H11.0604L10.5341 29.3256H7.3736ZM14.7472 37.76C6.60214 37.76 0 31.1521 0 23C0 14.8479 6.60214 8.24005 14.7472 8.24005C22.8923 8.24005 29.4944 14.8479 29.4944 23C29.4944 31.1521 22.8923 37.76 14.7472 37.76ZM14.7472 35.6511C21.7282 35.6511 27.3874 29.987 27.3874 23C27.3874 16.013 21.7282 10.3489 14.7472 10.3489C7.76624 10.3489 2.10701 16.013 2.10701 23C2.10701 29.987 7.76624 35.6511 14.7472 35.6511ZM12.1139 25.1088L14.7472 18.7833L17.3805 25.1088H12.1139Z" fill="black"></path></g><path d="M48.9703 26.1703L42.3986 26.2256L41.3261 28.532H39.6173L44.8765 16.9085H46.5189L51.7948 28.532H50.0527L48.9703 26.1703ZM48.3896 24.8419L45.6894 18.6022L42.9792 24.8972L48.3896 24.8419Z" fill="black"></path><path d="M67.2015 16.9085V28.532H65.8411L58.873 19.8642V28.532H57.214V16.9085H58.5744L65.5425 25.5763V16.9085H67.2015Z" fill="black"></path><path d="M79.6071 28.6648C78.4347 28.6648 77.3784 28.4102 76.4383 27.901C75.4981 27.3807 74.7571 26.6667 74.2151 25.7589C73.6842 24.8512 73.4188 23.8383 73.4188 22.7202C73.4188 21.6022 73.6842 20.5893 74.2151 19.6815C74.7571 18.7738 75.4981 18.0653 76.4383 17.5561C77.3784 17.0358 78.4347 16.7757 79.6071 16.7757C80.7684 16.7757 81.8192 17.0358 82.7593 17.5561C83.6994 18.0653 84.4349 18.7738 84.9658 19.6815C85.4967 20.5782 85.7622 21.5911 85.7622 22.7202C85.7622 23.8494 85.4967 24.8678 84.9658 25.7755C84.4349 26.6722 83.6994 27.3807 82.7593 27.901C81.8192 28.4102 80.7684 28.6648 79.6071 28.6648ZM79.6071 27.187C80.4587 27.187 81.2219 26.9932 81.8966 26.6058C82.5823 26.2183 83.1187 25.687 83.5059 25.0117C83.904 24.3254 84.1031 23.5616 84.1031 22.7202C84.1031 21.8789 83.904 21.1206 83.5059 20.4454C83.1187 19.759 82.5823 19.2221 81.8966 18.8347C81.2219 18.4472 80.4587 18.2535 79.6071 18.2535C78.7554 18.2535 77.9812 18.4472 77.2844 18.8347C76.5986 19.2221 76.0567 19.759 75.6585 20.4454C75.2714 21.1206 75.0778 21.8789 75.0778 22.7202C75.0778 23.5616 75.2714 24.3254 75.6585 25.0117C76.0567 25.687 76.5986 26.2183 77.2844 26.6058C77.9812 26.9932 78.7554 27.187 79.6071 27.187Z" fill="black"></path><path d="M102.752 28.532L102.735 20.0634L98.538 27.1206H97.7749L93.5774 20.1133V28.532H91.9848V16.9085H93.3452L98.1896 25.0781L102.968 16.9085H104.328L104.345 28.532H102.752Z" fill="black"></path><path d="M119.019 26.1703L112.448 26.2256L111.467 28.532H109.758L115.017 16.9085H116.66L121.936 28.532H120.194L119.019 26.1703ZM118.439 24.8419L115.83 18.6022L113.028 24.8972L118.439 24.8419Z" fill="black"></path><path d="M127.355 16.9085H129.014V27.0873H135.302V28.532H127.355V16.9085Z" fill="black"></path><path d="M140.892 16.9085H142.552V28.532H140.892V16.9085Z" fill="black"></path><path d="M158.143 27.0873V28.532H149.715V16.9085H157.911V18.3531H151.374V21.9232H157.198V23.3346H151.374V27.0873H158.143Z" fill="black"></path><defs><clipPath id="clip0_9_252"><rect width="29.4944" height="29.5199" fill="white" transform="translate(0 8.24005)"></rect></clipPath></defs></svg>