<svg width="43" height="26" viewBox="0 0 43 26" fill="none" xmlns="http://www.w3.org/2000/svg"><path d="M12.0773 9.47546C12.0773 9.98549 12.1386 10.3951 12.234 10.6964C12.3424 10.9978 12.4861 11.3275 12.6768 11.683C12.7411 11.7762 12.7765 11.8859 12.7787 11.9986C12.7787 12.139 12.6899 12.2742 12.5135 12.4146L11.6358 12.9852C11.5317 13.063 11.4058 13.1075 11.2753 13.1127C11.1329 13.1127 10.9957 13.0457 10.8599 12.9182C10.6698 12.7215 10.5013 12.5057 10.357 12.2742C10.2006 12.0131 10.0576 11.7445 9.92858 11.4692C8.84052 12.7301 7.47947 13.3612 5.8402 13.3612C4.66986 13.3612 3.73855 13.0328 3.05802 12.3747C2.3775 11.7101 2.03136 10.8381 2.03136 9.7382C2.03136 8.57774 2.44672 7.62465 3.29705 6.91369C4.14738 6.20273 5.2694 5.84725 6.7049 5.84725C7.17382 5.84725 7.66364 5.88718 8.17436 5.95416C8.69161 6.02113 9.22193 6.13576 9.77314 6.25554V5.25608C9.77314 4.21669 9.55501 3.48512 9.12004 3.06267C8.67725 2.64022 7.93011 2.43157 6.85511 2.43157C6.37182 2.43157 5.86894 2.48566 5.35169 2.60544C4.84225 2.72764 4.34207 2.88473 3.8548 3.07555C3.69152 3.14897 3.52825 3.20306 3.36498 3.25715C3.29388 3.27796 3.22077 3.29135 3.14684 3.29708C2.94961 3.29708 2.85426 3.15669 2.85426 2.86819V2.19716C2.85426 1.98207 2.88169 1.81463 2.94961 1.72061C3.05169 1.59323 3.18528 1.49388 3.33755 1.43211C3.89346 1.15831 4.48064 0.951191 5.08653 0.815171C5.79504 0.634972 6.52444 0.547071 7.25611 0.553713C8.91628 0.553713 10.1206 0.922071 10.903 1.6678C11.6645 2.40581 12.0524 3.52634 12.0524 5.03583V9.47674L12.0773 9.47546ZM6.43713 11.562C6.89299 11.562 7.36975 11.4808 7.8661 11.3134C8.37645 11.1432 8.83175 10.8422 9.18535 10.4414C9.41002 10.18 9.57982 9.89147 9.66211 9.56304C9.7444 9.23461 9.79796 8.83147 9.79796 8.36909V7.79208C9.37662 7.68982 8.94966 7.61156 8.5192 7.55767C8.08599 7.50327 7.64971 7.47617 7.21301 7.47653C6.28039 7.47653 5.60117 7.65814 5.14531 8.02649C4.68292 8.39485 4.46479 8.91905 4.46479 9.60296C4.46479 10.2469 4.62806 10.7235 4.97551 11.0519C5.30859 11.3945 5.79841 11.562 6.43844 11.562H6.43713ZM17.6011 13.0444C17.349 13.0444 17.1792 13.0045 17.0708 12.904C16.9624 12.8229 16.8605 12.6284 16.7782 12.3747L13.5128 1.77599C13.4489 1.5984 13.4076 1.41366 13.39 1.22603C13.39 1.0045 13.4984 0.883433 13.7165 0.883433H15.0841C15.3493 0.883433 15.5269 0.92336 15.6209 1.01738C15.7372 1.09852 15.8182 1.29301 15.9005 1.55446L18.2412 10.6308L20.4107 1.55446C20.4787 1.27884 20.561 1.09852 20.6694 1.01738C20.8366 0.916587 21.0316 0.869762 21.2271 0.883433H22.3361C22.6012 0.883433 22.7854 0.92336 22.8938 1.01738C23.0022 1.09852 23.1041 1.29301 23.159 1.55446L25.356 10.7377L27.7581 1.55446C27.8469 1.27884 27.9422 1.09852 28.0376 1.01738C28.2 0.916694 28.3909 0.869768 28.5823 0.883433H29.8754C30.1001 0.883433 30.2228 0.990334 30.2228 1.22603C30.2228 1.29301 30.2098 1.35998 30.1954 1.44756C30.1728 1.56405 30.1409 1.6786 30.1001 1.79016L26.7458 12.3824C26.6635 12.658 26.5694 12.8383 26.4532 12.9195C26.2983 13.0199 26.1142 13.067 25.9294 13.0534H24.7316C24.4665 13.0534 24.2888 13.0135 24.1739 12.9195C24.0655 12.8255 23.9701 12.6439 23.9152 12.3695L21.7587 3.52763L19.6153 12.3553C19.5474 12.631 19.4651 12.8113 19.3501 12.9053C19.2417 12.9993 19.0445 13.0393 18.7924 13.0393L17.6011 13.0444ZM35.4593 13.4141C34.7383 13.4141 34.0173 13.3265 33.3237 13.1655C32.6301 13.0045 32.0855 12.8229 31.725 12.6155C31.5003 12.4944 31.3514 12.3605 31.2965 12.233C31.2398 12.1131 31.2095 11.9827 31.2077 11.8505V11.1524C31.2077 10.8639 31.324 10.7235 31.5277 10.7235C31.61 10.7235 31.6975 10.7364 31.7798 10.7634C31.8621 10.7969 31.9901 10.851 32.1273 10.9038C32.604 11.1112 33.1134 11.2722 33.6581 11.3804C34.2159 11.495 34.754 11.5478 35.3117 11.5478C36.1895 11.5478 36.87 11.3932 37.339 11.0919C37.8013 10.8162 38.0809 10.3204 38.0665 9.79101C38.0718 9.43568 37.938 9.09199 37.6929 8.83147C37.4408 8.57645 36.9654 8.34204 36.2849 8.12051L34.2707 7.50358C33.2571 7.18803 32.5021 6.72565 32.0463 6.10871C31.5973 5.53839 31.3513 4.83818 31.3462 4.11623C31.3462 3.53922 31.4755 3.03562 31.7276 2.59385C31.9797 2.15723 32.3127 1.77599 32.7281 1.47332C33.1596 1.14974 33.6487 0.908612 34.1701 0.762364C34.7279 0.594928 35.3131 0.527954 35.9257 0.527954C36.2313 0.527954 36.5513 0.540834 36.8583 0.582048C37.1783 0.621975 37.4709 0.67607 37.7635 0.736604C38.0351 0.803578 38.3003 0.870553 38.5524 0.951695C38.8045 1.03284 39.0017 1.11913 39.1376 1.20027C39.3004 1.2822 39.4424 1.39931 39.5529 1.54287C39.6457 1.67672 39.6911 1.83695 39.6823 1.99881V2.64279C39.6823 2.9313 39.566 3.07941 39.3622 3.07941C39.1765 3.06066 38.9962 3.00595 38.8319 2.91842C37.9929 2.55068 37.0828 2.36741 36.1647 2.38134C35.3692 2.38134 34.7423 2.50241 34.3138 2.76386C33.8789 3.02532 33.6607 3.42073 33.6607 3.98485C33.6607 4.36738 33.7966 4.69581 34.0761 4.95727C34.3556 5.21873 34.8716 5.48018 35.6069 5.71588L37.5793 6.32638C38.5798 6.64193 39.3074 7.08499 39.7358 7.64783C40.1642 8.20423 40.3758 8.84822 40.3758 9.5669C40.3758 10.1503 40.2465 10.6874 40.0153 11.1563C39.7648 11.6231 39.4198 12.0343 39.0017 12.3644C38.5668 12.707 38.056 12.9478 37.4578 13.1294C36.8118 13.3234 36.1399 13.4207 35.4646 13.4179L35.4593 13.4141ZM38.0913 20.0741C33.5131 23.4087 26.8725 25.1719 21.1579 25.1719C13.1509 25.1719 5.93294 22.2534 0.483523 17.3977C0.055093 17.0152 0.443031 16.4923 0.960282 16.8001C6.85119 20.1681 14.1241 22.2134 21.6412 22.2134C26.7157 22.2134 32.2879 21.1663 37.4239 19.0335C38.1854 18.6844 38.8385 19.5229 38.09 20.0728L38.0913 20.0741ZM39.997 17.9348C39.4119 17.1968 36.1255 17.5793 34.643 17.7609C34.2002 17.815 34.1257 17.4261 34.5346 17.1376C37.1469 15.3331 41.4391 15.8496 41.9433 16.4537C42.4396 17.077 41.8009 21.3106 39.3583 23.3365C38.9848 23.6521 38.6164 23.4911 38.7862 23.0751C39.344 21.7201 40.5822 18.6677 39.997 17.9361V17.9348Z" fill="white"></path></svg>