<svg width="56" height="55" viewBox="0 0 56 55" fill="none" xmlns="http://www.w3.org/2000/svg"><g clip-path="url(#clip0_1249_97774)"><rect x="0.5" width="55" height="55" rx="27.5" fill="url(#paint0_linear_1249_97774)"></rect><path d="M45.5 44H11.5V24.0297L28.5 6L45.5 24.0297V44Z" fill="url(#paint1_linear_1249_97774)"></path><path d="M21.5 48C23.1519 49.8303 25.674 51 28.5 51C31.326 51 33.8481 49.8303 35.5 48L21.5 48Z" fill="url(#paint2_linear_1249_97774)"></path><path fill-rule="evenodd" clip-rule="evenodd" d="M33.7491 26.75C33.7491 23.8505 31.3986 21.5 28.4991 21.5C25.5996 21.5 23.2491 23.8505 23.2491 26.75C23.2491 29.6495 25.5996 32 28.4991 32C31.3986 32 33.7491 29.6495 33.7491 26.75ZM24.9991 44.5C21.1331 44.5 17.8542 41.0438 20.2467 38.0071C22.1694 35.5668 25.1513 34 28.4991 34C31.8469 34 34.8288 35.5668 36.7515 38.0071C39.144 41.0438 35.8651 44.5 31.9991 44.5H24.9991Z" fill="url(#paint3_linear_1249_97774)"></path></g><defs><linearGradient id="paint0_linear_1249_97774" x1="-18.5" y1="-12" x2="41.5" y2="48" gradientUnits="userSpaceOnUse"><stop stop-color="#E7E7E7"></stop><stop offset="1" stop-color="#E7E7E7" stop-opacity="0"></stop></linearGradient><linearGradient id="paint1_linear_1249_97774" x1="-36.4643" y1="72.5" x2="128.022" y2="-26.7139" gradientUnits="userSpaceOnUse"><stop offset="0.3" stop-color="#69E2D3"></stop><stop offset="0.59" stop-color="#125EF6"></stop><stop offset="1" stop-color="#2A2774"></stop></linearGradient><linearGradient id="paint2_linear_1249_97774" x1="35.5" y1="48" x2="16.1814" y2="57.2533" gradientUnits="userSpaceOnUse"><stop stop-color="#181B2B"></stop><stop offset="1" stop-color="#999999" stop-opacity="0.15"></stop></linearGradient><linearGradient id="paint3_linear_1249_97774" x1="40.8662" y1="32.75" x2="21.8142" y2="32.75" gradientUnits="userSpaceOnUse"><stop stop-color="white"></stop><stop offset="1" stop-color="#EEEEEE" stop-opacity="0.91"></stop></linearGradient><clipPath id="clip0_1249_97774"><rect width="55" height="55" fill="white" transform="translate(0.5)"></rect></clipPath></defs></svg>