<svg width="104" height="37" viewBox="0 0 104 37" fill="none" xmlns="http://www.w3.org/2000/svg"><g clip-path="url(#clip0_755_121269)"><path fill-rule="evenodd" clip-rule="evenodd" d="M8.74198 34.8867H11.1354V22.0867H8.74198V34.8867ZM17.5155 34.6947H19.6592V26.6187L28.6824 34.8867V22.2787H26.5447V30.2167L17.5155 22.0867V34.6947ZM33.5761 31.5947C34.7429 32.5047 36.1434 33.0307 37.6447 33.0307C39.1072 33.0307 40.1331 32.5267 40.1331 31.4137C40.1331 30.4437 39.4788 30.0637 38.333 29.6387L36.478 28.9937C34.7679 28.3857 33.4673 27.4977 33.4673 25.4567C33.4673 23.2737 35.4361 22.0867 37.7906 22.0867C39.233 22.0867 40.5476 22.4497 41.5745 23.0927V25.2577C40.5067 24.4677 39.3379 23.9237 37.8365 23.9237C36.5439 23.9237 35.578 24.4067 35.578 25.4137C35.578 26.3237 36.1843 26.6877 37.2522 27.0537L39.3189 27.7797C41.3218 28.4847 42.2408 29.5777 42.2408 31.3757C42.2408 33.6377 40.2529 34.8867 37.6447 34.8867C35.9306 34.8867 34.4732 34.4067 33.5761 33.8007V31.5947ZM47.8247 34.8867H50.2172V22.0867H47.8247V34.8867ZM61.441 32.9497C64.1381 32.9497 65.5796 31.2177 65.5796 28.4837C65.5796 25.7297 64.1371 24.0037 61.441 24.0037H58.7739V32.9497H61.441ZM56.5963 22.0867H61.5209C65.3119 22.0867 67.7632 24.5867 67.7632 28.4837C67.7632 32.3837 65.3119 34.8867 61.5209 34.8867H56.5963V22.0867ZM79.7283 22.0867V24.0037H73.9375V27.0837H79.1309V28.9787H73.9365V32.9497H79.7283V34.8867H71.7519V22.0867H79.7283ZM88.2211 27.8827H90.5955C92.001 27.8827 92.7932 27.1107 92.7932 25.9237C92.7932 24.7367 92.001 23.9637 90.5955 23.9637H88.2211V27.8837V27.8827ZM88.2211 29.6927V34.8867H86.1084V22.0867H90.6355C93.2167 22.0867 94.8869 23.4177 94.8869 25.9237C94.8869 28.0667 93.9599 29.2977 91.985 29.6137L96.4772 34.8867H94.0738L89.7245 29.6937H88.2221L88.2211 29.6927ZM7.90589 9.47672C8.84188 9.13372 9.57109 8.10472 9.57109 6.68972C9.57109 4.33172 7.90589 3.10972 5.24177 3.10972H0.766602V16.2727H5.65732C8.32144 16.2727 9.98664 14.9647 9.98664 12.4997C9.98664 11.1057 9.11258 9.88372 7.90589 9.47672ZM2.86833 8.64072V5.03972H5.22179C6.70019 5.03972 7.49034 5.57572 7.49034 6.81872C7.49034 8.06172 6.69919 8.64072 5.22179 8.64072H2.86833ZM2.86833 10.4847H5.61536C7.07379 10.4847 7.86393 11.2127 7.86393 12.4137C7.86393 13.5927 7.07279 14.3437 5.61636 14.3437H2.86933V10.4837L2.86833 10.4847ZM19.7511 16.4867C22.8108 16.4867 24.8716 14.6427 24.8716 11.0417V3.10972H22.7069V10.7837C22.7069 13.3137 21.666 14.4937 19.7511 14.4937C17.8362 14.4937 16.7963 13.3137 16.7963 10.7837V3.10972H14.6316V11.0197C14.6316 14.6427 16.7124 16.4867 19.7511 16.4867ZM29.968 15.3287C30.8631 15.9727 32.3205 16.4867 34.0267 16.4867C36.6288 16.4867 38.6057 15.1567 38.6057 12.7567C38.6057 10.8487 37.6907 9.69072 35.6919 8.94072L33.6321 8.16872C32.5702 7.78372 31.9669 7.39772 31.9669 6.43272C31.9669 5.36072 32.9239 4.84672 34.2145 4.84672C35.7128 4.84672 36.8786 5.42472 37.9404 6.26172V3.96672C36.9205 3.28172 35.609 2.89572 34.1725 2.89572C31.821 2.89572 29.8642 4.16072 29.8642 6.47572C29.8642 8.64072 31.1548 9.58372 32.8609 10.2267L34.7139 10.9127C35.8587 11.3627 36.504 11.7707 36.504 12.7997C36.504 13.9787 35.4841 14.5147 34.0267 14.5147C32.5283 14.5147 31.1338 13.9567 29.968 12.9927V15.3287ZM46.3404 3.10972H44.1767V16.2717H46.3404V3.10972ZM52.5157 16.2557H54.6014V7.69272L63.3799 16.4597V3.08972H61.3002V11.5067L52.5157 2.88672V16.2557ZM76.9063 3.11272V5.08372H71.2864V8.25172H76.3259V10.2007H71.2864V14.2837H76.9063V16.2757H69.1647V3.11272H76.9063ZM81.9459 15.3197C82.8409 15.9637 84.2973 16.4777 86.0045 16.4777C88.6057 16.4777 90.5835 15.1487 90.5835 12.7477C90.5835 10.8397 89.6675 9.68272 87.6697 8.93172L85.6089 8.16072C84.5471 7.77472 83.9437 7.38872 83.9437 6.42372C83.9437 5.35172 84.9007 4.83772 86.1913 4.83772C87.6897 4.83772 88.8554 5.41672 89.9173 6.25272V3.95872C88.8974 3.27272 87.5858 2.88672 86.1493 2.88672C83.7979 2.88672 81.841 4.15172 81.841 6.46672C81.841 8.63172 83.1316 9.57472 84.8378 10.2177L86.6907 10.9037C87.8355 11.3537 88.4808 11.7617 88.4808 12.7907C88.4808 13.9697 87.4619 14.5057 86.0035 14.5057C84.5051 14.5057 83.1106 13.9487 81.9459 12.9837V15.3197ZM95.0177 15.3197C95.9128 15.9637 97.3702 16.4777 99.0764 16.4777C101.679 16.4777 103.655 15.1487 103.655 12.7477C103.655 10.8397 102.739 9.68272 100.742 8.93172L98.6808 8.16072C97.6199 7.77472 97.0156 7.38872 97.0156 6.42372C97.0156 5.35172 97.9735 4.83772 99.2632 4.83772C100.762 4.83772 101.928 5.41672 102.989 6.25272V3.95872C101.97 3.27272 100.659 2.88672 99.2222 2.88672C96.8697 2.88672 94.9139 4.15172 94.9139 6.46672C94.9139 8.63172 96.2045 9.57472 97.9106 10.2177L99.7636 10.9037C100.908 11.3537 101.554 11.7617 101.554 12.7907C101.554 13.9697 100.534 14.5057 99.0764 14.5057C97.578 14.5057 96.1835 13.9487 95.0177 12.9837V15.3197Z" fill="#747680"></path></g><defs><clipPath id="clip0_755_121269"><rect width="102.889" height="32" fill="white" transform="translate(0.766602 2.88672)"></rect></clipPath></defs></svg>