<svg width="56" height="55" viewBox="0 0 56 55" fill="none" xmlns="http://www.w3.org/2000/svg"><g clip-path="url(#clip0_1249_97791)"><path opacity="0.6" d="M28 42C42.6355 42 54.5 29.9117 54.5 15L1.5 15C1.5 29.9117 13.3645 42 28 42Z" fill="url(#paint0_linear_1249_97791)"></path><path d="M43.8211 28.9578L43.8211 17.378L28.2371 25.8783L28.2371 37.4582L43.8211 28.9578Z" fill="#DBDBDB"></path><path d="M12.55 28.9578L12.55 17.378L28.134 25.8783L28.134 37.4582L12.55 28.9578Z" fill="url(#paint1_linear_1249_97791)"></path><path d="M28.1855 2.68715L48.805 14.4702L28.1855 26.2532L7.56606 14.4702L28.1855 2.68715Z" fill="url(#paint2_linear_1249_97791)"></path><path d="M17.5 44C20.0958 47.0505 24.0591 49 28.5 49C32.9409 49 36.9042 47.0505 39.5 44L17.5 44Z" fill="url(#paint3_linear_1249_97791)"></path></g><defs><linearGradient id="paint0_linear_1249_97791" x1="18.9787" y1="34.8191" x2="39.6506" y2="2.67284" gradientUnits="userSpaceOnUse"><stop stop-color="#E7E7E7"></stop><stop offset="1" stop-color="#E7E7E7" stop-opacity="0"></stop></linearGradient><linearGradient id="paint1_linear_1249_97791" x1="34.1179" y1="41.7429" x2="7.87498" y2="15.5" gradientUnits="userSpaceOnUse"><stop stop-color="#191C2C"></stop><stop offset="1" stop-color="#535353" stop-opacity="0"></stop></linearGradient><linearGradient id="paint2_linear_1249_97791" x1="54.6814" y1="35.2779" x2="-1.72237" y2="-21.1191" gradientUnits="userSpaceOnUse"><stop offset="0.3" stop-color="#69E2D3"></stop><stop offset="0.59" stop-color="#125EF6"></stop><stop offset="1" stop-color="#2A2774"></stop></linearGradient><linearGradient id="paint3_linear_1249_97791" x1="39.5" y1="44" x2="8.49999" y2="58" gradientUnits="userSpaceOnUse"><stop stop-color="#181B2B"></stop><stop offset="1" stop-color="#999999" stop-opacity="0.15"></stop></linearGradient><clipPath id="clip0_1249_97791"><rect width="55" height="55" fill="white" transform="translate(0.5)"></rect></clipPath></defs></svg>