<svg width="126" height="30" viewBox="0 0 126 30" fill="none" xmlns="http://www.w3.org/2000/svg"><path d="M29.5004 16.3632C31.2273 24.4857 25.7246 30.4714 17.8509 29.5201C17.8217 29.5201 17.7924 29.5055 17.7778 29.4762C17.7631 29.4469 17.7485 29.4323 17.7485 29.403C17.7485 29.3738 17.7485 29.3445 17.7631 29.3152C17.7778 29.3006 17.7924 29.2713 17.8217 29.2567C18.6412 28.8908 19.4315 28.4664 20.2072 27.9981C20.2804 27.9542 20.3682 27.9249 20.4706 27.9103C22.139 27.7932 23.7489 27.1785 25.0953 26.1687C28.3442 23.7686 28.8126 18.7634 27.4076 14.9144C25.827 10.1434 21.9048 5.79676 17.3387 3.49906C17.3094 3.49906 17.2802 3.46979 17.2802 3.45516C17.2655 3.42589 17.2655 3.39662 17.2655 3.38198C17.2655 3.35271 17.2802 3.32344 17.2948 3.30881C17.3094 3.27954 17.3387 3.27954 17.368 3.2649C18.1436 3.11855 18.9193 3.06001 19.7096 3.10392C19.8267 3.11855 19.9291 3.14782 20.0316 3.20636C21.2024 3.93811 22.3 4.80158 23.3098 5.73822C26.3685 8.62132 28.6369 12.2654 29.5004 16.3632ZM0.3182 13.3338C-1.40873 5.22599 4.09403 -0.759727 11.9677 0.176914C11.9969 0.176914 12.0262 0.191549 12.0408 0.220819C12.0555 0.250089 12.0701 0.264724 12.0701 0.293994C12.0701 0.323264 12.0701 0.352534 12.0555 0.381804C12.0408 0.396439 12.0262 0.425709 11.9969 0.440344C11.1627 0.806219 10.3725 1.216 9.5968 1.69896C9.52362 1.74286 9.43581 1.77213 9.33337 1.78677C7.66498 1.88921 6.05512 2.50388 4.72334 3.52833C1.47437 5.92847 1.00604 10.9336 2.41101 14.7827C3.99159 19.5683 7.91377 23.9003 12.4799 26.198C12.4945 26.2126 12.5238 26.2272 12.5384 26.2565C12.5531 26.2858 12.5531 26.315 12.5531 26.3297C12.5531 26.359 12.5384 26.3882 12.5238 26.4029C12.5092 26.4321 12.4799 26.4321 12.4506 26.4468C11.675 26.5931 10.8993 26.6517 10.109 26.6077C10.0066 26.5931 9.8895 26.5638 9.78705 26.5053C8.61625 25.7589 7.53326 24.9101 6.53808 23.9588C3.43546 21.0757 1.18167 17.4316 0.3182 13.3338ZM13.3873 29.3006C5.19166 31.0129 -0.852602 25.554 0.0986742 17.7536C0.0986742 17.7243 0.113309 17.695 0.142579 17.6804C0.157214 17.6658 0.186485 17.6511 0.215755 17.6511C0.245025 17.6511 0.274295 17.6511 0.303565 17.6658C0.3182 17.6804 0.34747 17.695 0.362105 17.7243C0.742615 18.5439 1.1524 19.3341 1.63535 20.0952C1.67926 20.1683 1.70853 20.2562 1.72316 20.3586C1.84024 22.027 2.45491 23.6076 3.494 24.9394C5.92341 28.1591 10.9871 28.6274 14.8508 27.2371C19.6803 25.6711 24.0416 21.7928 26.3832 17.2706C26.3978 17.256 26.4124 17.2267 26.4417 17.1974C26.471 17.1828 26.5002 17.1682 26.5295 17.1828C26.5588 17.1828 26.588 17.2121 26.6027 17.2121C26.6173 17.2413 26.6319 17.256 26.6466 17.2852C26.7929 18.0463 26.8515 18.8219 26.8222 19.5976C26.8076 19.7147 26.7783 19.8171 26.7198 19.9195C25.9734 21.0757 25.0953 22.1587 24.144 23.1539C21.1877 26.2126 17.5143 28.4518 13.3873 29.3006ZM29.7199 11.9288C29.7053 11.9581 29.7053 11.9874 29.676 12.002C29.6614 12.0166 29.6321 12.0313 29.6029 12.0313C29.5736 12.0313 29.5443 12.0313 29.515 12.0166C29.5004 12.002 29.4711 11.9874 29.4565 11.9581C29.076 11.1532 28.6662 10.3629 28.1833 9.60186C28.1247 9.54332 28.1101 9.45551 28.0955 9.35307C27.9784 7.68468 27.3491 6.10409 26.3246 4.77231C23.8952 1.5526 18.8315 1.08428 14.9678 2.47461C10.1529 4.04056 5.76242 7.91884 3.43546 12.4411C3.42082 12.4557 3.40619 12.485 3.37692 12.4996C3.36228 12.5142 3.31838 12.5289 3.28911 12.5142C3.25984 12.5142 3.23057 12.4996 3.21593 12.485C3.2013 12.4557 3.18666 12.4411 3.17203 12.4118C3.02568 11.6508 2.96714 10.8751 3.01104 10.0995C3.01104 9.98237 3.05495 9.87993 3.11349 9.77748C3.85987 8.63595 4.73797 7.55296 5.68925 6.55778C8.63089 3.49906 12.2896 1.2599 16.446 0.411074C24.627 -1.33049 30.6712 4.143 29.7199 11.9288ZM58.3021 10.1287C57.4679 9.73358 56.5459 9.52869 55.6239 9.52869C54.7019 9.52869 53.7799 9.73358 52.9457 10.1287C52.1408 10.5239 51.4822 11.1532 51.0431 11.9288C50.5748 12.8362 50.3407 13.8314 50.3407 14.8558C50.3407 15.8803 50.5895 16.8755 51.0431 17.7975C51.4968 18.5731 52.1554 19.1878 52.9457 19.5976C53.7799 19.9927 54.7019 20.1976 55.6239 20.1976C56.5459 20.1976 57.4679 19.9927 58.3021 19.5976C59.107 19.2024 59.7656 18.5731 60.2047 17.7975C60.673 16.8901 60.9072 15.8949 60.9072 14.8558C60.9072 13.8167 60.6584 12.8362 60.2047 11.9288C59.7656 11.1532 59.107 10.5385 58.3021 10.1287ZM58.1997 17.695C57.5118 18.339 56.5898 18.7048 55.6239 18.7048C54.6726 18.7048 53.7506 18.3536 53.0481 17.695C52.3749 17.0072 52.053 16.0705 52.053 14.8558C52.053 13.6265 52.3896 12.6752 53.0628 12.002C53.7506 11.3581 54.6873 11.0068 55.6385 11.0068C56.5898 11.0068 57.4972 11.3581 58.2143 12.002C58.8875 12.6606 59.2241 13.6119 59.2241 14.8558C59.2095 16.0852 58.8729 17.0218 58.1997 17.695ZM48.7894 16.0852C48.7308 16.8023 48.4967 17.4901 48.1308 18.1194C47.7356 18.778 47.1502 19.3049 46.4624 19.6415C45.6575 20.0366 44.7647 20.2269 43.872 20.1976C42.9354 20.2122 41.9987 19.9927 41.1645 19.5683C40.3889 19.1585 39.7449 18.5292 39.3059 17.7536C38.8668 16.8462 38.6327 15.851 38.6327 14.8412C38.6327 13.8314 38.8668 12.8508 39.3059 11.9288C39.7303 11.1532 40.3742 10.5239 41.1645 10.1141C41.9987 9.68967 42.9354 9.48478 43.872 9.49942C44.7647 9.47015 45.6428 9.6604 46.4478 10.0555C47.121 10.3922 47.6771 10.8897 48.0869 11.519C48.4381 12.0752 48.6576 12.7045 48.7162 13.3484C48.7162 13.3777 48.7162 13.3777 48.7016 13.407C48.6869 13.4362 48.6869 13.4362 48.6723 13.4509C48.6576 13.4655 48.643 13.4801 48.6284 13.4801C48.6137 13.4948 48.5991 13.4948 48.5698 13.4948H47.0332C47.0039 13.4948 46.96 13.4801 46.9453 13.4655C46.9307 13.4509 46.9014 13.4216 46.9014 13.3923C46.8283 12.763 46.5209 12.1776 46.0672 11.7386C45.5843 11.2849 44.8379 11.0507 43.8574 11.0507C43.389 11.0215 42.9354 11.1093 42.4963 11.2849C42.0719 11.4459 41.6621 11.7093 41.3548 12.0459C40.7108 12.7045 40.3889 13.6558 40.3889 14.8705C40.3889 16.0852 40.7108 17.0364 41.3548 17.695C41.6914 18.0316 42.0719 18.2804 42.4963 18.456C42.9207 18.6317 43.389 18.7048 43.8574 18.6902C44.8525 18.6902 45.6282 18.4268 46.1258 17.9145C46.6234 17.417 46.9161 16.7584 46.9893 16.0559C46.9893 16.0266 47.0039 15.9827 47.0332 15.9681C47.0478 15.9388 47.0917 15.9388 47.121 15.9388H48.643C48.6723 15.9388 48.6723 15.9388 48.7016 15.9535C48.7162 15.9681 48.7308 15.9827 48.7455 15.9827C48.7601 15.9974 48.7601 16.012 48.7747 16.0266C48.804 16.0413 48.804 16.0413 48.7894 16.0852ZM125.213 16.6852H123.662C123.633 16.6852 123.604 16.6998 123.589 16.7145C123.574 16.7291 123.545 16.7584 123.545 16.773C123.399 17.2999 123.091 17.7682 122.667 18.1048C122.199 18.4853 121.481 18.6609 120.53 18.6609C119.623 18.6902 118.73 18.3682 118.057 17.7536C117.501 17.2413 117.164 16.4364 117.091 15.4412C117.091 15.412 117.091 15.412 117.106 15.3827C117.12 15.3534 117.12 15.3534 117.135 15.3388C117.15 15.3242 117.164 15.3095 117.179 15.3095C117.193 15.2949 117.208 15.2949 117.237 15.2949H125.213C125.228 15.2949 125.243 15.2949 125.272 15.2802C125.287 15.2656 125.301 15.2656 125.316 15.251C125.33 15.2363 125.33 15.2217 125.345 15.2071C125.36 15.1924 125.36 15.1778 125.36 15.1485V14.329C125.374 13.4655 125.184 12.602 124.804 11.8264C124.438 11.1093 123.882 10.5092 123.179 10.0995C122.36 9.6604 121.452 9.44088 120.516 9.47015C119.564 9.44088 118.628 9.67504 117.808 10.1141C117.047 10.5385 116.432 11.1678 116.037 11.9435C115.598 12.8362 115.379 13.8167 115.408 14.8119C115.408 16.451 115.847 17.7536 116.725 18.7195C117.603 19.6707 118.891 20.1537 120.574 20.1537C121.277 20.1683 121.979 20.0513 122.652 19.8317C123.179 19.6415 123.677 19.3634 124.101 18.9829C124.467 18.6463 124.76 18.2804 124.994 17.8414C125.169 17.5194 125.301 17.1828 125.389 16.8169C125.404 16.7877 125.404 16.773 125.389 16.7437C125.389 16.7145 125.374 16.6998 125.374 16.6852C125.36 16.6706 125.345 16.6706 125.316 16.6706C125.257 16.6852 125.243 16.6852 125.213 16.6852ZM117.15 13.7582C117.223 13.3777 117.34 12.9972 117.53 12.6459C117.808 12.1191 118.233 11.68 118.759 11.4166C119.301 11.1385 119.901 10.9922 120.501 11.0068C121.452 11.0068 122.184 11.2556 122.74 11.7386C123.296 12.2801 123.618 13.0118 123.618 13.7728C123.618 13.8021 123.618 13.8021 123.604 13.8314C123.589 13.8607 123.589 13.8607 123.574 13.8753C123.56 13.8899 123.545 13.9046 123.53 13.9046C123.501 13.9192 123.501 13.9192 123.472 13.9192H117.267C117.252 13.9192 117.237 13.9192 117.208 13.9046C117.179 13.8899 117.179 13.8753 117.164 13.8753C117.15 13.8607 117.15 13.846 117.135 13.8314C117.15 13.8021 117.15 13.7728 117.15 13.7582ZM62.6926 19.6415V10.0555C62.6926 10.0263 62.7073 9.99701 62.7365 9.96774C62.7512 9.9531 62.7951 9.93847 62.8243 9.93847H64.2732C64.3025 9.93847 64.3317 9.9531 64.361 9.96774C64.3903 9.99701 64.4049 10.0263 64.4049 10.0555V11.1678V11.2263C64.4196 11.2556 64.4196 11.2556 64.4342 11.2703C64.4488 11.2849 64.4635 11.2995 64.4781 11.2995C64.5074 11.2995 64.5074 11.3142 64.5366 11.2995C64.5952 11.2995 64.6537 11.2556 64.7123 11.1532C64.961 10.6995 65.3562 10.319 65.8099 10.0555C66.366 9.76285 66.9953 9.6165 67.6246 9.64577C68.3125 9.6165 69.0149 9.79212 69.615 10.1434C70.1272 10.4653 70.5224 10.919 70.7565 11.4751C70.7711 11.519 70.8004 11.5483 70.8297 11.5922C70.859 11.6215 70.9029 11.6361 70.9468 11.6361C70.9614 11.6361 71.0053 11.6361 71.0199 11.6215C71.0346 11.6069 71.0639 11.5922 71.0785 11.5776C71.1078 11.519 71.1517 11.4605 71.1663 11.4166C71.4151 10.8751 71.8102 10.4214 72.3371 10.1287C72.9664 9.79212 73.6835 9.63113 74.386 9.6604C75.0885 9.64577 75.8056 9.82139 76.4056 10.1726C76.9325 10.5092 77.3423 11.0068 77.5911 11.5922C77.8691 12.2508 78.0008 12.9386 77.9862 13.6265V19.6415C77.9862 19.6708 77.9862 19.6707 77.9716 19.7C77.9569 19.7147 77.9423 19.7293 77.9423 19.7439C77.9277 19.7586 77.9277 19.7732 77.8984 19.7732C77.8838 19.7878 77.8691 19.7878 77.8399 19.7878H76.3764C76.3617 19.7878 76.3471 19.7878 76.3178 19.7732C76.3032 19.7586 76.2885 19.7586 76.2739 19.7439C76.2593 19.7293 76.2446 19.7293 76.2446 19.7C76.23 19.6854 76.23 19.6708 76.23 19.6415V13.7143C76.23 12.002 75.4104 11.1532 73.8006 11.1532C73.3469 11.1532 72.9079 11.2556 72.5127 11.4605C72.0883 11.68 71.7517 12.0166 71.5468 12.4264C71.2834 12.9826 71.1517 13.568 71.1809 14.1826V19.6415C71.1809 19.6708 71.1663 19.7147 71.137 19.7293C71.1224 19.7586 71.0785 19.7586 71.0492 19.7586H69.5857C69.5564 19.7586 69.5272 19.7439 69.4979 19.7293C69.4833 19.7147 69.454 19.6708 69.454 19.6415V13.7436C69.454 12.0313 68.6344 11.1824 67.0099 11.1824C66.5563 11.1824 66.1172 11.2849 65.7221 11.4898C65.2977 11.7093 64.9757 12.0605 64.7562 12.4557C64.4781 12.9972 64.361 13.5972 64.3756 14.2119V19.6707C64.3756 19.7 64.3756 19.7 64.361 19.7293C64.3464 19.7439 64.3317 19.7586 64.3317 19.7732C64.3171 19.7878 64.3171 19.8025 64.2878 19.8025C64.2732 19.8171 64.2586 19.8171 64.2293 19.8171H62.7658C62.7512 19.8171 62.7365 19.8171 62.7073 19.8025C62.6926 19.7878 62.678 19.7878 62.6634 19.7732C62.6487 19.7586 62.6341 19.7439 62.6341 19.7293C62.6926 19.6708 62.6926 19.6708 62.6926 19.6415ZM80.2254 19.6415V10.0555C80.2254 10.0409 80.2254 10.0263 80.24 9.99701C80.2546 9.98237 80.2546 9.96774 80.2693 9.9531C80.2839 9.93847 80.2985 9.92383 80.3132 9.92383C80.3278 9.9092 80.3424 9.9092 80.3717 9.9092H81.8206C81.8498 9.9092 81.8938 9.92383 81.9084 9.93847C81.923 9.9531 81.9523 9.99701 81.9523 10.0263V11.1385V11.1971C81.9669 11.2263 81.9669 11.2263 81.9816 11.241C81.9962 11.2556 82.0108 11.2703 82.0255 11.2703C82.0401 11.2703 82.0547 11.2849 82.084 11.2703C82.1572 11.2703 82.2011 11.2263 82.2596 11.1239C82.5084 10.6702 82.9036 10.2897 83.3573 10.0263C83.9134 9.73358 84.5427 9.58723 85.172 9.6165C85.8745 9.58723 86.577 9.76285 87.1624 10.1141C87.6746 10.4361 88.0697 10.9044 88.3039 11.4459C88.3185 11.4898 88.3478 11.519 88.3771 11.563C88.4063 11.5922 88.4502 11.6069 88.4941 11.6069C88.5088 11.6069 88.5527 11.6069 88.5673 11.5922C88.582 11.5776 88.6112 11.563 88.6259 11.5483C88.6551 11.4898 88.6844 11.4312 88.7137 11.3873C88.9625 10.8458 89.3576 10.3922 89.8845 10.0995C90.5138 9.76285 91.2309 9.60186 91.9334 9.63113C92.6359 9.60186 93.353 9.79212 93.953 10.1434C94.4799 10.48 94.8896 10.9776 95.1384 11.5483C95.4019 12.2069 95.5336 12.8947 95.519 13.5972V19.6268C95.519 19.6561 95.5043 19.6854 95.4751 19.7147C95.4604 19.7293 95.4165 19.7439 95.3872 19.7439H93.9384C93.9091 19.7439 93.9091 19.7439 93.8798 19.7293C93.8652 19.7147 93.8506 19.7147 93.8359 19.7C93.8213 19.6854 93.8213 19.6708 93.8067 19.6561C93.792 19.6415 93.792 19.6268 93.792 19.5976V13.6704C93.792 11.9581 92.9725 11.1093 91.348 11.1093C90.8943 11.1093 90.4552 11.2117 90.0601 11.4166C89.6357 11.6361 89.2991 11.9727 89.0942 12.3825C88.8308 12.9386 88.699 13.524 88.7283 14.1387V19.5976C88.7283 19.6268 88.7137 19.6707 88.6844 19.6854C88.6698 19.7147 88.6259 19.7147 88.5966 19.7147H87.1331C87.1038 19.7147 87.0746 19.7 87.0453 19.6854C87.016 19.6707 87.0014 19.6268 87.0014 19.5976V13.6704C87.0014 11.9581 86.1818 11.1093 84.5573 11.1093C84.1183 11.1093 83.6792 11.2117 83.2841 11.4166C82.8597 11.6361 82.5377 11.9727 82.3182 12.3825C82.0401 12.924 81.923 13.524 81.9377 14.1387V19.5976C81.9377 19.6122 81.9377 19.6268 81.923 19.6561C81.9084 19.6854 81.9084 19.6854 81.8938 19.7C81.8791 19.7147 81.8791 19.7147 81.8498 19.7293C81.8352 19.7439 81.8206 19.7439 81.7913 19.7439H80.3424C80.3278 19.7439 80.3132 19.7439 80.2839 19.7293C80.2693 19.7147 80.2546 19.7147 80.24 19.7C80.2254 19.6854 80.2254 19.6854 80.2107 19.6561V19.6415H80.2254ZM109.144 19.6415V10.0555C109.144 10.0263 109.159 9.99701 109.188 9.96774C109.203 9.9531 109.247 9.93847 109.276 9.92383H110.739C110.769 9.92383 110.798 9.93847 110.827 9.9531C110.842 9.96774 110.871 10.0116 110.871 10.0409V11.3581C110.871 11.3873 110.886 11.4166 110.9 11.4459C110.915 11.4751 110.959 11.4898 110.988 11.4898C111.076 11.4898 111.149 11.4312 111.193 11.3288C111.354 10.8605 111.661 10.48 112.086 10.2312C112.569 9.98237 113.125 9.85066 113.666 9.87993H114.647C114.676 9.87993 114.705 9.89456 114.735 9.9092C114.764 9.93847 114.779 9.96774 114.779 9.99701V11.402C114.779 11.4166 114.779 11.4312 114.764 11.4605C114.749 11.4751 114.749 11.4898 114.735 11.5044C114.72 11.519 114.72 11.5337 114.691 11.5337C114.676 11.5483 114.662 11.5483 114.632 11.5483H113.388C112.569 11.5483 111.939 11.7532 111.486 12.163C111.061 12.5728 110.842 13.246 110.842 14.1973V19.6561C110.842 19.6854 110.827 19.7147 110.798 19.7439C110.783 19.7586 110.739 19.7732 110.71 19.7732H109.261C109.232 19.7732 109.203 19.7586 109.173 19.7439C109.159 19.7 109.144 19.6708 109.144 19.6415ZM106.846 10.0702V19.6561C106.846 19.6854 106.846 19.6854 106.832 19.7147C106.817 19.7293 106.817 19.7439 106.803 19.7586C106.788 19.7732 106.788 19.7878 106.759 19.7878C106.744 19.8025 106.729 19.8025 106.7 19.8025H105.251C105.222 19.8025 105.193 19.7878 105.163 19.7732C105.149 19.7439 105.12 19.7147 105.12 19.6854V18.4707C105.12 18.4414 105.105 18.3975 105.09 18.3829C105.076 18.3536 105.032 18.3536 105.017 18.339C104.944 18.339 104.871 18.3829 104.812 18.4707C104.519 18.9536 104.095 19.3488 103.597 19.6415C102.983 19.9781 102.28 20.1244 101.578 20.0952C100.363 20.0952 99.4119 19.7586 98.7094 19.0561C98.0069 18.3682 97.6557 17.3877 97.6557 16.1144V10.0702C97.6557 10.0409 97.6703 10.0116 97.6996 9.98237C97.7142 9.96774 97.7581 9.9531 97.7874 9.9531H99.2363C99.2655 9.9531 99.3094 9.96774 99.3241 9.98237C99.3387 10.0116 99.368 10.0409 99.368 10.0702V15.8071C99.368 16.6998 99.6021 17.3731 100.056 17.8414C100.524 18.3097 101.183 18.5439 102.046 18.5439C103.012 18.5439 103.758 18.2512 104.3 17.6658C104.841 17.095 105.12 16.2169 105.12 15.0315V10.0555C105.12 10.0409 105.12 10.0263 105.134 9.99701C105.149 9.98237 105.149 9.96774 105.163 9.9531C105.178 9.93847 105.193 9.93847 105.207 9.92383C105.222 9.9092 105.237 9.9092 105.266 9.9092H106.729C106.759 9.9092 106.788 9.92383 106.832 9.93847C106.817 9.99701 106.832 10.0263 106.846 10.0702Z" fill="white"></path></svg>