<svg width="114" height="46" viewBox="0 0 114 46" fill="none" xmlns="http://www.w3.org/2000/svg"><path d="M26.8186 24.3757C28.3885 31.7598 23.386 37.2013 16.2281 36.3365C16.2015 36.3365 16.1749 36.3232 16.1616 36.2966C16.1483 36.27 16.135 36.2567 16.135 36.2301C16.135 36.2035 16.135 36.1769 16.1483 36.1503C16.1616 36.137 16.1749 36.1104 16.2015 36.0971C16.9466 35.7644 17.665 35.3786 18.3702 34.9529C18.4367 34.9129 18.5165 34.8863 18.6096 34.873C20.1264 34.7666 21.5899 34.2078 22.8139 33.2898C25.7675 31.1078 26.1932 26.5577 24.916 23.0586C23.4791 18.7213 19.9135 14.7698 15.7625 12.681C15.7359 12.681 15.7093 12.6544 15.7093 12.6411C15.6959 12.6145 15.6959 12.5879 15.6959 12.5746C15.6959 12.548 15.7093 12.5214 15.7226 12.5081C15.7359 12.4815 15.7625 12.4815 15.7891 12.4682C16.4942 12.3351 17.1994 12.2819 17.9178 12.3218C18.0242 12.3351 18.1174 12.3617 18.2105 12.4149C19.2749 13.0802 20.2727 13.8651 21.1907 14.7166C23.9714 17.3376 26.0336 20.6505 26.8186 24.3757ZM0.289272 21.6217C-1.28067 14.251 3.72185 8.80941 10.8797 9.6609C10.9063 9.6609 10.9329 9.6742 10.9462 9.70081C10.9595 9.72742 10.9728 9.74073 10.9728 9.76734C10.9728 9.79395 10.9728 9.82055 10.9595 9.84716C10.9462 9.86047 10.9329 9.88708 10.9063 9.90038C10.1479 10.233 9.4295 10.6055 8.72436 11.0446C8.65784 11.0845 8.57801 11.1111 8.48488 11.1244C6.96816 11.2175 5.50466 11.7763 4.29394 12.7076C1.34033 14.8896 0.914586 19.4397 2.19182 22.9388C3.62872 27.2894 7.19434 31.2276 11.3454 33.3164C11.3587 33.3297 11.3853 33.343 11.3986 33.3696C11.4119 33.3962 11.4119 33.4228 11.4119 33.4361C11.4119 33.4628 11.3986 33.4894 11.3853 33.5027C11.372 33.5293 11.3454 33.5293 11.3188 33.5426C10.6136 33.6756 9.90847 33.7288 9.19002 33.6889C9.09689 33.6756 8.99045 33.649 8.89732 33.5958C7.83296 32.9173 6.84842 32.1456 5.94371 31.2808C3.12314 28.6598 1.07424 25.347 0.289272 21.6217ZM12.1702 36.137C4.71969 37.6936 -0.775092 32.731 0.0897039 25.6397C0.0897039 25.6131 0.103008 25.5865 0.129617 25.5731C0.142922 25.5598 0.169531 25.5465 0.196141 25.5465C0.22275 25.5465 0.249359 25.5465 0.275968 25.5598C0.289272 25.5732 0.315881 25.5865 0.329186 25.6131C0.675104 26.3581 1.04763 27.0766 1.48668 27.7684C1.5266 27.8349 1.55321 27.9148 1.56651 28.0079C1.67295 29.5246 2.23174 30.9615 3.17636 32.1722C5.38492 35.0992 9.98829 35.525 13.5007 34.261C17.8912 32.8374 21.856 29.3117 23.9847 25.2006C23.998 25.1873 24.0113 25.1607 24.0379 25.1341C24.0645 25.1208 24.0911 25.1075 24.1177 25.1208C24.1443 25.1208 24.171 25.1474 24.1843 25.1474C24.1976 25.174 24.2109 25.1873 24.2242 25.2139C24.3572 25.9058 24.4104 26.6109 24.3838 27.316C24.3705 27.4225 24.3439 27.5156 24.2907 27.6087C23.6122 28.6598 22.8139 29.6443 21.9491 30.5491C19.2616 33.3297 15.9221 35.3653 12.1702 36.137ZM27.0181 20.3445C27.0048 20.3711 27.0048 20.3977 26.9782 20.411C26.9649 20.4243 26.9383 20.4376 26.9117 20.4376C26.8851 20.4376 26.8585 20.4376 26.8319 20.4243C26.8186 20.411 26.7919 20.3977 26.7786 20.3711C26.4327 19.6393 26.0602 18.9209 25.6211 18.229C25.5679 18.1758 25.5546 18.096 25.5413 18.0029C25.4349 16.4861 24.8628 15.0492 23.9315 13.8385C21.7229 10.9115 17.1195 10.4858 13.6071 11.7497C9.22993 13.1733 5.23857 16.699 3.12314 20.8101C3.10984 20.8234 3.09653 20.85 3.06992 20.8633C3.05662 20.8766 3.01671 20.8899 2.9901 20.8766C2.96349 20.8766 2.93688 20.8633 2.92357 20.85C2.91027 20.8234 2.89697 20.8101 2.88366 20.7835C2.75061 20.0917 2.6974 19.3865 2.73731 18.6814C2.73731 18.575 2.77722 18.4818 2.83044 18.3887C3.50897 17.3509 4.30725 16.3664 5.17204 15.4617C7.84626 12.681 11.1724 10.6454 14.9509 9.87377C22.3881 8.29053 27.8829 13.2664 27.0181 20.3445ZM53.0019 18.708C52.2436 18.3488 51.4054 18.1625 50.5672 18.1625C49.729 18.1625 48.8908 18.3488 48.1325 18.708C47.4007 19.0672 46.802 19.6393 46.4029 20.3445C45.9771 21.1693 45.7642 22.0741 45.7642 23.0054C45.7642 23.9367 45.9904 24.8414 46.4029 25.6796C46.8153 26.3847 47.414 26.9435 48.1325 27.316C48.8908 27.6753 49.729 27.8615 50.5672 27.8615C51.4054 27.8615 52.2436 27.6753 53.0019 27.316C53.7337 26.9568 54.3324 26.3847 54.7315 25.6796C55.1573 24.8547 55.3701 23.95 55.3701 23.0054C55.3701 22.0607 55.144 21.1693 54.7315 20.3445C54.3324 19.6393 53.7337 19.0805 53.0019 18.708ZM52.9088 25.5865C52.2835 26.1719 51.4453 26.5045 50.5672 26.5045C49.7024 26.5045 48.8642 26.1852 48.2256 25.5865C47.6136 24.9611 47.3209 24.1096 47.3209 23.0054C47.3209 21.8878 47.6269 21.023 48.2389 20.411C48.8642 19.8256 49.7157 19.5063 50.5805 19.5063C51.4453 19.5063 52.2702 19.8256 52.9221 20.411C53.5341 21.0097 53.8401 21.8745 53.8401 23.0054C53.8268 24.123 53.5208 24.9744 52.9088 25.5865ZM44.354 24.123C44.3007 24.7749 44.0879 25.4002 43.7553 25.9723C43.396 26.571 42.8638 27.05 42.2385 27.356C41.5068 27.7152 40.6952 27.8881 39.8836 27.8615C39.0321 27.8748 38.1806 27.6753 37.4223 27.2894C36.7171 26.9169 36.1317 26.3448 35.7326 25.6397C35.3335 24.8148 35.1206 23.9101 35.1206 22.9921C35.1206 22.0741 35.3335 21.1826 35.7326 20.3445C36.1184 19.6393 36.7038 19.0672 37.4223 18.6947C38.1806 18.3089 39.0321 18.1226 39.8836 18.1359C40.6952 18.1093 41.4935 18.2823 42.2252 18.6415C42.8372 18.9475 43.3428 19.3998 43.7153 19.9719C44.0347 20.4775 44.2342 21.0496 44.2874 21.635C44.2874 21.6616 44.2874 21.6616 44.2741 21.6882C44.2608 21.7148 44.2608 21.7148 44.2475 21.7281C44.2342 21.7414 44.2209 21.7547 44.2076 21.7547C44.1943 21.768 44.181 21.768 44.1544 21.768H42.7574C42.7308 21.768 42.6909 21.7547 42.6776 21.7414C42.6643 21.7281 42.6377 21.7015 42.6377 21.6749C42.5712 21.1028 42.2918 20.5706 41.8793 20.1715C41.4403 19.7591 40.7617 19.5462 39.8703 19.5462C39.4446 19.5196 39.0321 19.5994 38.633 19.7591C38.2472 19.9054 37.8746 20.1449 37.5952 20.4509C37.0098 21.0496 36.7171 21.9144 36.7171 23.0187C36.7171 24.123 37.0098 24.9877 37.5952 25.5865C37.9013 25.8925 38.2472 26.1186 38.633 26.2783C39.0188 26.4379 39.4446 26.5045 39.8703 26.4912C40.775 26.4912 41.4802 26.2517 41.9325 25.786C42.3849 25.3337 42.651 24.735 42.7175 24.0963C42.7175 24.0697 42.7308 24.0298 42.7574 24.0165C42.7707 23.9899 42.8106 23.9899 42.8372 23.9899H44.2209C44.2475 23.9899 44.2475 23.9899 44.2741 24.0032C44.2874 24.0165 44.3007 24.0298 44.314 24.0298C44.3274 24.0431 44.3274 24.0564 44.3407 24.0697C44.3673 24.083 44.3673 24.083 44.354 24.123ZM113.83 24.6684H112.42C112.393 24.6684 112.367 24.6817 112.354 24.695C112.34 24.7084 112.314 24.735 112.314 24.7483C112.181 25.2272 111.901 25.653 111.515 25.959C111.09 26.3049 110.438 26.4646 109.573 26.4646C108.748 26.4912 107.936 26.1985 107.324 25.6397C106.819 25.174 106.513 24.4423 106.446 23.5376C106.446 23.5109 106.446 23.5109 106.46 23.4843C106.473 23.4577 106.473 23.4577 106.486 23.4444C106.5 23.4311 106.513 23.4178 106.526 23.4178C106.539 23.4045 106.553 23.4045 106.579 23.4045H113.83C113.844 23.4045 113.857 23.4045 113.884 23.3912C113.897 23.3779 113.91 23.3779 113.923 23.3646C113.937 23.3513 113.937 23.338 113.95 23.3247C113.963 23.3114 113.963 23.2981 113.963 23.2715V22.5264C113.977 21.7414 113.804 20.9565 113.458 20.2513C113.125 19.5994 112.62 19.0539 111.981 18.6814C111.236 18.2823 110.411 18.0827 109.56 18.1093C108.695 18.0827 107.843 18.2956 107.098 18.6947C106.406 19.0805 105.848 19.6526 105.488 20.3578C105.089 21.1693 104.89 22.0607 104.916 22.9655C104.916 24.4556 105.315 25.6397 106.114 26.5178C106.912 27.3826 108.083 27.8216 109.613 27.8216C110.251 27.8349 110.89 27.7285 111.502 27.5289C111.981 27.356 112.433 27.1032 112.819 26.7573C113.152 26.4513 113.418 26.1186 113.631 25.7195C113.79 25.4268 113.91 25.1208 113.99 24.7882C114.003 24.7616 114.003 24.7483 113.99 24.7217C113.99 24.695 113.977 24.6817 113.977 24.6684C113.963 24.6551 113.95 24.6551 113.923 24.6551C113.87 24.6684 113.857 24.6684 113.83 24.6684ZM106.5 22.0075C106.566 21.6616 106.673 21.3157 106.845 20.9964C107.098 20.5174 107.484 20.1183 107.963 19.8788C108.455 19.626 109.001 19.493 109.546 19.5063C110.411 19.5063 111.076 19.7324 111.582 20.1715C112.087 20.6638 112.38 21.329 112.38 22.0208C112.38 22.0474 112.38 22.0474 112.367 22.0741C112.354 22.1007 112.354 22.1007 112.34 22.114C112.327 22.1273 112.314 22.1406 112.3 22.1406C112.274 22.1539 112.274 22.1539 112.247 22.1539H106.606C106.593 22.1539 106.579 22.1539 106.553 22.1406C106.526 22.1273 106.526 22.114 106.513 22.114C106.5 22.1007 106.5 22.0874 106.486 22.0741C106.5 22.0474 106.5 22.0208 106.5 22.0075ZM56.9933 27.356V18.6415C56.9933 18.6149 57.0066 18.5883 57.0332 18.5616C57.0465 18.5483 57.0864 18.535 57.113 18.535H58.4302C58.4568 18.535 58.4834 18.5483 58.51 18.5616C58.5366 18.5883 58.5499 18.6149 58.5499 18.6415V19.6526V19.7058C58.5632 19.7324 58.5632 19.7325 58.5765 19.7458C58.5898 19.7591 58.6031 19.7724 58.6164 19.7724C58.6431 19.7724 58.6431 19.7857 58.6697 19.7724C58.7229 19.7724 58.7761 19.7324 58.8293 19.6393C59.0555 19.2269 59.4147 18.881 59.8272 18.6415C60.3327 18.3754 60.9048 18.2423 61.4769 18.2689C62.1022 18.2423 62.7409 18.402 63.2864 18.7213C63.752 19.014 64.1112 19.4264 64.3241 19.932C64.3374 19.9719 64.364 19.9985 64.3906 20.0385C64.4172 20.0651 64.4572 20.0784 64.4971 20.0784C64.5104 20.0784 64.5503 20.0784 64.5636 20.0651C64.5769 20.0518 64.6035 20.0385 64.6168 20.0252C64.6434 19.9719 64.6833 19.9187 64.6966 19.8788C64.9228 19.3865 65.282 18.9741 65.761 18.708C66.3331 18.402 66.985 18.2556 67.6236 18.2823C68.2623 18.2689 68.9142 18.4286 69.4597 18.7479C69.9386 19.0539 70.3111 19.5063 70.5373 20.0385C70.7901 20.6372 70.9099 21.2625 70.8966 21.8878V27.356C70.8966 27.3826 70.8966 27.3826 70.8832 27.4092C70.8699 27.4225 70.8566 27.4358 70.8566 27.4491C70.8433 27.4624 70.8433 27.4757 70.8167 27.4757C70.8034 27.489 70.7901 27.489 70.7635 27.489H69.4331C69.4197 27.489 69.4064 27.489 69.3798 27.4757C69.3665 27.4624 69.3532 27.4624 69.3399 27.4491C69.3266 27.4358 69.3133 27.4358 69.3133 27.4092C69.3 27.3959 69.3 27.3826 69.3 27.356V21.9676C69.3 20.411 68.5549 19.6393 67.0914 19.6393C66.679 19.6393 66.2799 19.7324 65.9207 19.9187C65.5348 20.1183 65.2288 20.4243 65.0425 20.7968C64.8031 21.3024 64.6833 21.8346 64.7099 22.3934V27.356C64.7099 27.3826 64.6966 27.4225 64.67 27.4358C64.6567 27.4624 64.6168 27.4624 64.5902 27.4624H63.2597C63.2331 27.4624 63.2065 27.4491 63.1799 27.4358C63.1666 27.4225 63.14 27.3826 63.14 27.356V21.9942C63.14 20.4376 62.3949 19.6659 60.9181 19.6659C60.5057 19.6659 60.1066 19.7591 59.7473 19.9453C59.3615 20.1449 59.0688 20.4642 58.8692 20.8234C58.6164 21.3157 58.51 21.8612 58.5233 22.42V27.3826C58.5233 27.4092 58.5233 27.4092 58.51 27.4358C58.4967 27.4491 58.4834 27.4624 58.4834 27.4757C58.4701 27.489 58.4701 27.5023 58.4435 27.5023C58.4302 27.5156 58.4169 27.5156 58.3903 27.5156H57.0598C57.0465 27.5156 57.0332 27.5156 57.0066 27.5023C56.9933 27.489 56.98 27.489 56.9667 27.4757C56.9534 27.4624 56.9401 27.4491 56.9401 27.4358C56.9933 27.3826 56.9933 27.3826 56.9933 27.356ZM72.9322 27.356V18.6415C72.9322 18.6282 72.9322 18.6149 72.9455 18.5883C72.9588 18.575 72.9588 18.5616 72.9721 18.5483C72.9854 18.535 72.9987 18.5217 73.012 18.5217C73.0253 18.5084 73.0386 18.5084 73.0652 18.5084H74.3823C74.409 18.5084 74.4489 18.5217 74.4622 18.535C74.4755 18.5483 74.5021 18.5883 74.5021 18.6149V19.626V19.6792C74.5154 19.7058 74.5154 19.7058 74.5287 19.7191C74.542 19.7324 74.5553 19.7458 74.5686 19.7458C74.5819 19.7458 74.5952 19.7591 74.6218 19.7458C74.6883 19.7458 74.7283 19.7058 74.7815 19.6127C75.0077 19.2003 75.3669 18.8543 75.7793 18.6149C76.2849 18.3488 76.857 18.2157 77.4291 18.2423C78.0677 18.2157 78.7063 18.3754 79.2385 18.6947C79.7042 18.9874 80.0634 19.4131 80.2763 19.9054C80.2896 19.9453 80.3162 19.9719 80.3428 20.0118C80.3694 20.0385 80.4093 20.0518 80.4492 20.0518C80.4625 20.0518 80.5024 20.0518 80.5157 20.0385C80.5291 20.0251 80.5557 20.0118 80.569 19.9985C80.5956 19.9453 80.6222 19.8921 80.6488 19.8522C80.875 19.3599 81.2342 18.9475 81.7132 18.6814C82.2853 18.3754 82.9372 18.229 83.5758 18.2556C84.2144 18.229 84.8663 18.402 85.4118 18.7213C85.8908 19.0273 86.2633 19.4797 86.4895 19.9985C86.729 20.5972 86.8487 21.2226 86.8354 21.8612V27.3427C86.8354 27.3693 86.8221 27.3959 86.7955 27.4225C86.7822 27.4358 86.7423 27.4491 86.7157 27.4491H85.3985C85.3719 27.4491 85.3719 27.4491 85.3453 27.4358C85.332 27.4225 85.3187 27.4225 85.3054 27.4092C85.2921 27.3959 85.2921 27.3826 85.2788 27.3693C85.2655 27.356 85.2655 27.3427 85.2655 27.316V21.9277C85.2655 20.3711 84.5204 19.5994 83.0436 19.5994C82.6312 19.5994 82.232 19.6925 81.8728 19.8788C81.487 20.0784 81.181 20.3844 80.9947 20.7569C80.7552 21.2625 80.6355 21.7947 80.6621 22.3534V27.316C80.6621 27.3427 80.6488 27.3826 80.6222 27.3959C80.6089 27.4225 80.569 27.4225 80.5424 27.4225H79.2119C79.1853 27.4225 79.1587 27.4092 79.1321 27.3959C79.1055 27.3826 79.0922 27.3427 79.0922 27.316V21.9277C79.0922 20.3711 78.3471 19.5994 76.8703 19.5994C76.4712 19.5994 76.072 19.6925 75.7128 19.8788C75.327 20.0784 75.0343 20.3844 74.8347 20.7569C74.5819 21.2492 74.4755 21.7947 74.4888 22.3534V27.316C74.4888 27.3294 74.4888 27.3427 74.4755 27.3693C74.4622 27.3959 74.4622 27.3959 74.4489 27.4092C74.4356 27.4225 74.4356 27.4225 74.409 27.4358C74.3957 27.4491 74.3823 27.4491 74.3557 27.4491H73.0386C73.0253 27.4491 73.012 27.4491 72.9854 27.4358C72.9721 27.4225 72.9588 27.4225 72.9455 27.4092C72.9322 27.3959 72.9322 27.3959 72.9188 27.3693V27.356H72.9322ZM99.222 27.356V18.6415C99.222 18.6149 99.2353 18.5883 99.2619 18.5616C99.2752 18.5483 99.3151 18.535 99.3417 18.5217H100.672C100.699 18.5217 100.725 18.535 100.752 18.5483C100.765 18.5616 100.792 18.6016 100.792 18.6282V19.8256C100.792 19.8522 100.805 19.8788 100.819 19.9054C100.832 19.932 100.872 19.9453 100.898 19.9453C100.978 19.9453 101.045 19.8921 101.085 19.799C101.231 19.3732 101.51 19.0273 101.896 18.8011C102.335 18.575 102.841 18.4552 103.333 18.4818H104.224C104.251 18.4818 104.278 18.4951 104.304 18.5084C104.331 18.535 104.344 18.5616 104.344 18.5883V19.8655C104.344 19.8788 104.344 19.8921 104.331 19.9187C104.318 19.932 104.318 19.9453 104.304 19.9586C104.291 19.9719 104.291 19.9852 104.264 19.9852C104.251 19.9985 104.238 19.9985 104.211 19.9985H103.08C102.335 19.9985 101.763 20.1848 101.351 20.5573C100.965 20.9299 100.765 21.5419 100.765 22.4067V27.3693C100.765 27.3959 100.752 27.4225 100.725 27.4491C100.712 27.4624 100.672 27.4757 100.646 27.4757H99.3284C99.3018 27.4757 99.2752 27.4624 99.2486 27.4491C99.2353 27.4092 99.222 27.3826 99.222 27.356ZM97.1331 18.6548V27.3693C97.1331 27.3959 97.1331 27.3959 97.1198 27.4225C97.1065 27.4358 97.1065 27.4491 97.0932 27.4624C97.0799 27.4757 97.0799 27.489 97.0533 27.489C97.04 27.5023 97.0267 27.5023 97.0001 27.5023H95.6829C95.6563 27.5023 95.6297 27.489 95.6031 27.4757C95.5898 27.4491 95.5632 27.4225 95.5632 27.3959V26.2916C95.5632 26.265 95.5499 26.2251 95.5366 26.2118C95.5233 26.1852 95.4834 26.1852 95.4701 26.1719C95.4035 26.1719 95.337 26.2118 95.2838 26.2916C95.0177 26.7306 94.6319 27.0899 94.1795 27.356C93.6207 27.662 92.9821 27.795 92.3435 27.7684C91.2392 27.7684 90.3744 27.4624 89.7358 26.8238C89.0972 26.1985 88.7779 25.3071 88.7779 24.1496V18.6548C88.7779 18.6282 88.7912 18.6016 88.8178 18.575C88.8311 18.5616 88.871 18.5483 88.8976 18.5483H90.2148C90.2414 18.5483 90.2813 18.5616 90.2946 18.575C90.3079 18.6016 90.3345 18.6282 90.3345 18.6548V23.8702C90.3345 24.6817 90.5474 25.2938 90.9598 25.7195C91.3856 26.1452 91.9843 26.3581 92.7692 26.3581C93.6473 26.3581 94.3259 26.092 94.8182 25.5598C95.3104 25.041 95.5632 24.2427 95.5632 23.165V18.6415C95.5632 18.6282 95.5632 18.6149 95.5765 18.5883C95.5898 18.575 95.5898 18.5616 95.6031 18.5483C95.6164 18.535 95.6297 18.535 95.643 18.5217C95.6563 18.5084 95.6696 18.5084 95.6963 18.5084H97.0267C97.0533 18.5084 97.0799 18.5217 97.1198 18.535C97.1065 18.5883 97.1198 18.6149 97.1331 18.6548Z" fill="black"></path></svg>