<svg width="107" height="46" viewBox="0 0 107 46" fill="none" xmlns="http://www.w3.org/2000/svg"><g clip-path="url(#clip0_9_309)"><path d="M16.6843 29.2432H1.28099C0.491078 29.2432 0.00155592 28.1195 0.407636 27.2407L5.41966 16.4155C5.6088 16.015 5.937 15.7703 6.29858 15.7703H16.6843V29.2432Z" fill="#EC2C40"></path><path d="M18.4471 15.7703H33.8448C34.6346 15.7703 35.1242 16.8939 34.7181 17.7729L29.7061 28.5979C29.5225 28.9929 29.1887 29.2377 28.8327 29.2377H18.4471V15.7703Z" fill="#00A9E5"></path><path d="M44.5553 29.3506C42.6924 29.3506 41.1864 28.7673 40.0285 27.5921C38.8621 26.4169 38.2875 24.8586 38.2875 22.8999V22.5343C38.2875 21.2285 38.5399 20.062 39.0448 19.0348C39.5497 18.0075 40.2549 17.2067 41.1689 16.6321C42.083 16.0575 43.0929 15.7703 44.2158 15.7703C46.0004 15.7703 47.3759 16.3361 48.3422 17.4765C49.3172 18.6169 49.796 20.2187 49.796 22.2993V23.4832H41.2473C41.3343 24.5627 41.7 25.4158 42.3267 26.0512C42.9623 26.6781 43.7545 26.9915 44.7121 26.9915C46.0614 26.9915 47.1582 26.443 48.0026 25.3548L49.587 26.8695C49.0647 27.6531 48.3596 28.2625 47.489 28.689C46.6185 29.1329 45.6435 29.3506 44.5553 29.3506ZM44.1985 18.1381C43.3888 18.1381 42.7446 18.4167 42.2485 18.9825C41.7522 19.5484 41.4388 20.3319 41.2995 21.3417H46.8971V21.1241C46.8362 20.1404 46.5663 19.4004 46.1137 18.8955C45.6522 18.3906 45.0168 18.1381 44.1985 18.1381Z" fill="#231F1F"></path><path d="M58.9358 18.7047C58.5527 18.6437 58.1523 18.6089 57.7344 18.6089C56.3851 18.6089 55.4798 19.1225 55.0097 20.1585V29.1076H52.0673V16.0234H54.8704L54.94 17.4859C55.6451 16.3455 56.6375 15.7797 57.8911 15.7797C58.309 15.7797 58.6572 15.8319 58.9271 15.9451L58.9358 18.7047Z" fill="#231F1F"></path><path d="M68.3751 29.1076C68.2444 28.8551 68.1313 28.4547 68.0356 27.8888C67.1041 28.8639 65.9549 29.3513 64.5969 29.3513C63.2824 29.3513 62.2117 28.977 61.3759 28.2283C60.5489 27.4797 60.1311 26.5482 60.1311 25.4427C60.1311 24.0498 60.6534 22.979 61.6893 22.2303C62.7253 21.4817 64.2051 21.1074 66.1378 21.1074H67.9397V20.2455C67.9397 19.5665 67.7483 19.0268 67.3739 18.6176C66.9909 18.2085 66.4164 18.0082 65.6415 18.0082C64.9712 18.0082 64.4228 18.1736 63.9963 18.5132C63.5697 18.844 63.352 19.2705 63.352 19.7928H60.4096C60.4096 19.079 60.6447 18.4 61.1235 17.7819C61.6023 17.1551 62.2465 16.6676 63.0648 16.3107C63.8831 15.9538 64.7971 15.7797 65.807 15.7797C67.3391 15.7797 68.5578 16.1627 69.472 16.9375C70.386 17.7035 70.8473 18.7917 70.8735 20.1846V26.0868C70.8735 27.2621 71.0389 28.2022 71.3697 28.9073V29.1163H68.3751V29.1076ZM65.1454 26.9921C65.7286 26.9921 66.2683 26.8529 66.7819 26.5656C67.2956 26.2871 67.6786 25.904 67.9397 25.4252V22.9616H66.3554C65.2672 22.9616 64.4489 23.1531 63.9004 23.5275C63.352 23.9105 63.0822 24.4415 63.0822 25.1379C63.0822 25.7038 63.2737 26.1478 63.6481 26.4873C64.0136 26.8268 64.5099 26.9921 65.1454 26.9921Z" fill="#231F1F"></path><path d="M81.2841 25.5558C81.2841 25.0335 81.0665 24.633 80.6399 24.3545C80.2047 24.0846 79.4908 23.8408 78.4897 23.6319C77.4885 23.423 76.6529 23.1531 75.9825 22.831C74.5113 22.1259 73.7801 21.0899 73.7801 19.7493C73.7801 18.6176 74.2589 17.6774 75.2078 16.9201C76.1566 16.1627 77.3667 15.7797 78.8379 15.7797C80.4049 15.7797 81.6671 16.1627 82.6334 16.9375C83.5998 17.7123 84.0786 18.7134 84.0786 19.9495H81.1362C81.1362 19.3837 80.9272 18.9136 80.5093 18.5393C80.0915 18.1649 79.5344 17.9734 78.8379 17.9734C78.1937 17.9734 77.6627 18.1214 77.2622 18.4174C76.8531 18.7134 76.6529 19.1138 76.6529 19.6187C76.6529 20.0714 76.8444 20.4196 77.2187 20.6721C77.6017 20.9245 78.3679 21.177 79.5169 21.4295C80.666 21.6819 81.5714 21.9866 82.233 22.3348C82.8859 22.683 83.3821 23.1096 83.6955 23.5971C84.0176 24.0933 84.1743 24.6853 84.1743 25.3904C84.1743 26.5656 83.6868 27.5232 82.7118 28.2545C81.7368 28.9857 80.4571 29.3513 78.8815 29.3513C77.8107 29.3513 76.8531 29.1598 76.0173 28.7681C75.1817 28.3851 74.5288 27.8453 74.0587 27.175C73.5885 26.496 73.3535 25.7647 73.3535 24.9899H76.2089C76.2524 25.6864 76.5136 26.2174 76.9924 26.5917C77.4799 26.9661 78.1154 27.1576 78.9163 27.1576C79.691 27.1576 80.283 27.0096 80.6834 26.7137C81.0839 26.4089 81.2841 26.0259 81.2841 25.5558Z" fill="#231F1F"></path><path d="M92.4963 29.3513C90.6334 29.3513 89.1274 28.7681 87.9695 27.5929C86.8117 26.4176 86.2371 24.8594 86.2371 22.9094V22.5437C86.2371 21.2379 86.4896 20.0714 86.9945 19.0442C87.4994 18.0169 88.2046 17.2161 89.1186 16.6415C90.0327 16.0669 91.0425 15.7797 92.1655 15.7797C93.9501 15.7797 95.3255 16.3455 96.2918 17.4859C97.2669 18.6263 97.746 20.2281 97.746 22.3087V23.4926H89.197C89.284 24.5721 89.6496 25.4252 90.2764 26.0607C90.9119 26.6875 91.7041 27.0009 92.6617 27.0009C94.0111 27.0009 95.1079 26.4524 95.9523 25.3643L97.5368 26.879C97.0143 27.6625 96.3093 28.2719 95.4387 28.6985C94.5682 29.1337 93.5844 29.3513 92.4963 29.3513ZM92.1481 18.1388C91.3385 18.1388 90.6943 18.4174 90.1981 18.9832C89.7019 19.5491 89.3885 20.3326 89.2492 21.3424H94.8467V21.1248C94.7858 20.1411 94.5159 19.4011 94.0632 18.8962C93.6019 18.3913 92.9664 18.1388 92.1481 18.1388Z" fill="#231F1F"></path><path d="M106.876 18.7047C106.493 18.6437 106.093 18.6089 105.675 18.6089C104.325 18.6089 103.42 19.1225 102.95 20.1585V29.1076H100.007V16.0234H102.811L102.88 17.4859C103.586 16.3455 104.578 15.7797 105.832 15.7797C106.249 15.7797 106.597 15.8319 106.867 15.9451L106.876 18.7047Z" fill="#231F1F"></path></g><defs><clipPath id="clip0_9_309"><rect width="107" height="14.4595" fill="white" transform="translate(0 15.7703)"></rect></clipPath></defs></svg>