<svg width="126" height="37" viewBox="0 0 126 37" fill="none" xmlns="http://www.w3.org/2000/svg"><g clip-path="url(#clip0_755_121196)"><path d="M83.6523 27.8867C83.7236 27.7512 83.7675 27.5277 83.8718 27.4931C85.0707 27.1024 85.6941 26.1945 86.1057 25.0651C87.6558 20.8054 89.2157 16.5497 90.7716 12.292C90.9911 11.6927 91.2028 11.0903 91.4359 10.4969C91.4876 10.3644 91.6174 10.2635 91.712 10.1488C91.8203 10.2675 91.9773 10.3684 92.029 10.5088C93.1148 13.4749 94.1869 16.4448 95.2638 19.4139C96.0735 21.6441 96.8822 23.8753 97.7016 26.1016C97.8314 26.4527 97.9845 26.8038 98.1835 27.1192C98.484 27.5969 99.0342 27.5574 99.2488 27.0362C99.3766 26.7266 99.4507 26.3706 99.4517 26.0353C99.4644 21.4176 99.4644 16.8009 99.4585 12.1832C99.4575 11.2456 99.1454 10.8906 98.2099 10.6394C98.0733 10.6028 97.9562 10.493 97.8294 10.4178C97.8518 10.3595 97.8753 10.3011 97.8977 10.2418C99.0946 10.2418 100.292 10.2299 101.488 10.2586C101.625 10.2616 101.788 10.4722 101.887 10.6216C104.234 14.2087 106.573 17.8008 108.914 21.3929C109.002 21.5284 109.094 21.6609 109.297 21.7865V21.3503C109.297 18.4258 109.297 15.5003 109.297 12.5758C109.297 11.3396 109.005 10.9816 107.809 10.7214C107.65 10.6868 107.479 10.6829 107.336 10.6146C107.238 10.5691 107.181 10.4376 107.044 10.2685H117.713C117.537 10.4445 117.461 10.583 117.351 10.6176C117.059 10.7096 116.746 10.7392 116.452 10.8263C115.79 11.0201 115.634 11.3139 115.895 11.9587C116.25 12.8389 116.637 13.7053 117.014 14.5766C117.619 15.9731 118.226 17.3686 118.834 18.7631C118.897 18.9075 118.969 19.0489 119.075 19.2714C119.195 19.0123 119.284 18.8294 119.365 18.6424C120.237 16.6308 121.082 14.6063 121.986 12.6095C122.638 11.1685 121.983 10.8441 120.879 10.6206C120.669 10.578 120.307 10.7076 120.356 10.1814C120.551 10.1814 120.737 10.1834 120.925 10.1814C122.353 10.1676 123.782 10.1528 125.21 10.1389V10.5335C123.924 10.7096 123.271 11.5928 122.794 12.7014C121.707 15.2234 120.601 17.7365 119.507 20.2555C119.437 20.4167 119.374 20.5967 119.373 20.7688C119.364 22.4432 119.351 24.1176 119.376 25.791C119.392 26.8354 119.749 27.2122 120.776 27.407C120.856 27.4219 120.934 27.4456 121.015 27.4555C121.315 27.4921 121.367 27.6395 121.211 27.8867H114.675C114.458 27.408 114.861 27.4634 115.094 27.4169C116.193 27.1954 116.525 26.8107 116.53 25.6763C116.537 24.0662 116.534 22.457 116.528 20.8469C116.528 20.6877 116.506 20.5156 116.443 20.3722C115.211 17.5367 113.978 14.7012 112.722 11.8766C112.567 11.5275 112.328 11.1813 112.043 10.9341C111.307 10.2972 110.446 10.6275 110.266 11.5839C110.218 11.84 110.19 12.1041 110.189 12.3652C110.185 17.5397 110.187 22.7142 110.188 27.8877H109.603C109.573 27.8303 109.545 27.771 109.51 27.7166C106.557 23.1958 103.603 18.6751 100.649 14.1553C100.59 14.0663 100.522 13.9832 100.392 13.8072C100.381 14.0366 100.371 14.1602 100.371 14.2849C100.371 18.0154 100.37 21.745 100.372 25.4755C100.372 25.6881 100.398 25.9018 100.409 26.1144C100.435 26.6564 100.731 27.0035 101.214 27.1756C101.549 27.2943 101.9 27.3685 102.249 27.4377C102.533 27.4941 102.597 27.6355 102.482 27.8877H93.0192C92.9665 27.5416 93.1723 27.4605 93.4572 27.3972C94.4512 27.1766 94.7263 26.7405 94.4122 25.7752C94.0435 24.6418 93.6201 23.5262 93.2026 22.4096C93.1636 22.3047 93.0036 22.1772 92.8992 22.1762C91.2613 22.1613 89.6244 22.1663 87.9729 22.1663C87.6002 23.2018 87.2325 24.2135 86.8715 25.2273C86.3847 26.5931 86.7037 27.1647 88.1133 27.4644C88.1924 27.4812 88.2743 27.5 88.3533 27.497C88.6469 27.4862 88.6567 27.6711 88.6294 27.8877H83.6543L83.6523 27.8867ZM88.245 21.382H92.8826C92.1041 19.2487 91.3452 17.1668 90.5424 14.9683C89.7532 17.1708 89.0059 19.2546 88.2441 21.382H88.245Z" fill="#747680"></path><path d="M55.5573 27.8868C55.4929 27.6128 55.5885 27.4783 55.8704 27.4021C56.8255 27.147 57.3669 26.5012 57.4391 25.5072C57.5171 24.4262 57.5551 23.3423 57.5932 22.2593C57.7073 19.0084 57.8137 15.7575 57.9229 12.5067C57.9258 12.4078 57.9278 12.3098 57.9268 12.2109C57.9171 11.1893 57.6244 10.8362 56.644 10.6127C56.5016 10.5801 56.3816 10.4436 56.2519 10.3556C56.3972 10.2972 56.5426 10.1914 56.6879 10.1894C57.842 10.1756 58.997 10.1983 60.15 10.1726C60.5383 10.1637 60.707 10.2804 60.8397 10.6621C62.1859 14.5252 63.5575 18.3794 64.9232 22.2365C64.9817 22.4037 65.0529 22.5659 65.1553 22.825C65.7153 21.2475 66.244 19.763 66.7708 18.2765C67.6721 15.7318 68.5813 13.1891 69.4603 10.6364C69.588 10.2656 69.7636 10.1686 70.1226 10.1756C71.1791 10.1953 72.2356 10.1756 73.292 10.1904C73.4423 10.1924 73.5915 10.2932 73.7408 10.3486C73.613 10.4396 73.4959 10.581 73.3545 10.6127C72.339 10.8382 72.0132 11.213 72.0493 12.294C72.1439 15.1513 72.2648 18.0065 72.3741 20.8628C72.4287 22.2909 72.4912 23.7191 72.5263 25.1472C72.5731 27.0451 73.2677 27.6741 75.1475 27.4852C76.1883 27.3804 76.6341 26.9136 76.6351 25.8593C76.6419 21.291 76.6419 16.7238 76.6351 12.1556C76.6341 11.1873 76.3386 10.8481 75.405 10.6127C75.2772 10.5801 75.1738 10.4485 75.0597 10.3625C75.1875 10.3031 75.3143 10.1914 75.4421 10.1914C77.6692 10.2003 79.8992 10.1587 82.1204 10.2754C83.0354 10.3239 83.9865 10.5979 84.8265 10.9816C86.8526 11.9073 87.4359 13.9071 87.2087 15.9227C86.8897 18.7582 84.805 19.8224 82.6257 20.0736C81.6219 20.1893 80.5937 20.0934 79.5597 20.0934C79.5597 22.197 79.5333 24.261 79.5909 26.3231C79.5987 26.603 79.985 26.9482 80.2786 27.1232C80.5996 27.3151 81.0132 27.3576 81.3917 27.4407C81.6746 27.503 81.7429 27.6365 81.6034 27.8877H67.7512C67.6887 27.5258 67.9199 27.4684 68.197 27.416C69.3929 27.1935 69.6436 26.9027 69.6105 25.6694C69.511 22.0457 69.3939 18.4219 69.2817 14.7992C69.2749 14.5648 69.2515 14.3314 69.2271 13.9694C69.1393 14.1385 69.1139 14.1771 69.0993 14.2196C67.479 18.776 65.8597 23.3314 64.2393 27.8877H63.8491C63.8452 27.8393 63.8521 27.7869 63.8364 27.7434C62.2113 23.184 60.5841 18.6257 58.955 14.0673C58.9238 13.9793 58.8653 13.9002 58.7589 13.7063C58.6302 17.6436 58.4965 21.4493 58.3873 25.256C58.3521 26.4725 58.7872 27.055 59.9354 27.4328C60.2007 27.5198 60.2875 27.6356 60.1422 27.8877H55.5573V27.8868ZM79.5314 19.4099C80.0972 19.4436 80.6132 19.5118 81.1264 19.499C82.7506 19.4564 83.7222 18.6217 84.048 17.0225C84.3036 15.7704 84.3055 14.5143 84.0431 13.2642C83.8734 12.4572 83.5427 11.7313 82.7974 11.2981C81.7721 10.7017 80.6552 10.8392 79.5304 10.8649V19.4099H79.5314Z" fill="#747680"></path><path d="M18.4881 27.8868C17.9896 27.7621 17.495 27.6187 16.9916 27.5208C16.7107 27.4664 16.6258 27.3468 16.6307 27.0619C16.6473 26.0779 16.6375 25.0938 16.6375 24.0553H13.9568C13.9305 24.0049 13.9051 23.9535 13.8788 23.903C13.9822 23.8219 14.0758 23.6874 14.19 23.6676C15.5791 23.4194 15.5469 23.3591 15.1128 22.0328C14.7743 21.0003 14.2446 20.6066 13.1911 20.7758C12.636 20.8648 12.0546 20.7688 11.4878 20.8054C11.3269 20.8153 11.1123 20.9627 11.0352 21.1081C10.844 21.4661 10.7064 21.8558 10.5679 22.2405C10.3114 22.9555 10.5543 23.4253 11.2713 23.631C11.3805 23.6627 11.5034 23.6548 11.6029 23.7022C11.6907 23.7438 11.7551 23.8377 11.8292 23.908C11.7376 23.9742 11.6468 24.0959 11.5542 24.0969C10.5318 24.1107 9.50949 24.1058 8.35156 24.1058C8.47838 23.909 8.52911 23.727 8.62178 23.7022C9.23342 23.5341 9.49193 23.0386 9.71045 22.5233C10.4977 20.6719 11.2703 18.8136 12.0468 16.9572C12.5326 15.7951 13.0116 14.6291 13.5071 13.4719C13.5754 13.3117 13.7266 13.1881 13.8398 13.0476C13.9568 13.1841 14.1178 13.3018 14.1841 13.4601C15.3733 16.2965 16.5449 19.1409 17.736 21.9764C18.0354 22.6885 18.2403 23.4975 19.1495 23.725C19.2158 23.7418 19.2431 23.9208 19.3231 24.1068H17.3467C18.0667 26.9136 21.3912 28.2527 23.7587 26.7395C25.3752 25.707 25.5868 23.541 24.1636 22.1811C23.71 21.748 23.1569 21.4077 22.6145 21.0833C21.6936 20.5315 20.7376 20.039 19.8109 19.497C17.5828 18.1944 16.5488 15.8802 17.1292 13.4452C17.5848 11.5354 18.8588 10.4722 20.7122 10.0499C20.8186 10.0262 20.919 9.97873 21.0224 9.94214C21.7707 9.94214 22.5179 9.94214 23.2661 9.94214C23.9763 10.0915 24.6845 10.2527 25.3976 10.3842C25.7156 10.4426 25.8083 10.5899 25.8024 10.9124C25.7819 12.0448 25.7946 13.1782 25.6854 14.4065C25.5859 14.3037 25.4493 14.2176 25.3927 14.094C25.1274 13.5154 24.9323 12.8983 24.623 12.3454C23.6748 10.6562 21.4195 10.1291 19.7874 11.1804C18.4988 12.0111 18.2461 14.004 19.3572 15.1938C19.8596 15.7318 20.5074 16.1511 21.1405 16.5369C22.2106 17.1886 23.3315 17.7524 24.4123 18.3853C25.8317 19.2171 26.8072 20.4108 27.0589 22.0842C27.4452 24.6487 26.2453 26.6505 23.8221 27.5841C23.5705 27.681 23.3217 27.7849 23.071 27.8858H18.4861L18.4881 27.8868ZM12.913 16.5863C12.4136 17.8255 11.9668 18.9342 11.5112 20.0647H14.3256C13.8593 18.9174 13.4145 17.8206 12.914 16.5863H12.913Z" fill="#747680"></path><path d="M0.34375 10.1389H11.5309V14.3521C11.4958 14.3788 11.4616 14.4055 11.4265 14.4322C11.3387 14.3264 11.2129 14.2344 11.1709 14.1128C11.0158 13.6657 10.9153 13.1969 10.7436 12.7568C10.293 11.5947 9.45695 10.9084 8.20342 10.8629C7.1011 10.8233 5.99682 10.855 4.85157 10.855V18.052C5.69344 18.0075 6.54993 18.0164 7.38985 17.8997C7.92345 17.8255 8.20342 17.332 8.41803 16.8602C8.55948 16.5487 8.65118 16.2144 8.78775 15.8999C8.82482 15.8158 8.94286 15.7674 9.02382 15.7021C9.0843 15.7812 9.19746 15.8594 9.19746 15.9385C9.20722 17.6119 9.20527 19.2863 9.20527 20.9597C9.16234 20.9903 9.11942 21.021 9.07748 21.0517C8.96724 20.9439 8.80531 20.8558 8.75263 20.7243C7.97613 18.767 7.84834 18.6741 5.79391 18.6741C5.48761 18.6741 5.1813 18.6741 4.80768 18.6741C4.80768 18.8917 4.80768 19.0657 4.80768 19.2398C4.80768 21.2277 4.81255 23.2166 4.80573 25.2045C4.80182 26.4981 4.67013 27.0233 6.59091 27.3981C6.73528 27.4268 6.866 27.5277 7.00257 27.5959C6.98306 27.6602 6.96355 27.7235 6.94501 27.7878H0.34375V27.3932C1.43047 27.4001 1.91627 26.961 1.9192 25.8731C1.93188 21.2959 1.93188 16.7178 1.92115 12.1407C1.91822 11.0221 1.489 10.6136 0.34375 10.5335V10.1389Z" fill="#747680"></path><path d="M29.1213 27.8867C29.0501 27.5227 29.2823 27.4644 29.5603 27.412C30.7065 27.1964 31.005 26.87 31.0079 25.7049C31.0187 20.8736 31.0128 16.0433 31.0119 11.212C31.0119 11.1318 30.9972 11.0527 30.9894 10.9766C28.9428 10.6561 27.9088 11.3445 27.3049 12.832C27.1274 13.2691 27.0357 13.7409 26.8845 14.1909C26.8513 14.2898 26.7372 14.36 26.6601 14.4431C26.6045 14.3451 26.5021 14.2482 26.5011 14.1503C26.4904 12.9348 26.4933 11.7183 26.4943 10.5028C26.4943 10.4069 26.505 10.31 26.5138 10.1804H38.3516V14.5024C38.1799 14.3066 38.0462 14.2146 38.0023 14.091C37.855 13.6756 37.7614 13.2404 37.6092 12.827C37.1234 11.5057 36.1655 10.8549 34.7773 10.8411C34.5042 10.8381 34.231 10.8411 33.913 10.8411C33.9042 11.0537 33.8896 11.2278 33.8896 11.4018C33.8886 16.1016 33.8896 20.8004 33.8896 25.5002C33.8896 25.5823 33.8896 25.6644 33.8896 25.7465C33.9052 26.8235 34.2252 27.2072 35.2836 27.407C35.5538 27.4584 35.864 27.4594 35.7567 27.8867H29.1233H29.1213Z" fill="#747680"></path><path d="M46.9734 27.8868C46.5462 27.7443 46.1091 27.6237 45.6926 27.4546C42.3554 26.0976 40.4814 23.6182 40.138 19.9865C39.9107 17.5793 40.3692 15.3382 41.8559 13.3948C43.3543 11.4365 45.4009 10.4297 47.7821 10.044C47.905 10.0242 48.024 9.97578 48.144 9.94116C49.022 9.94116 49.9 9.94116 50.7779 9.94116C51.8334 10.1083 52.8879 10.2754 53.9434 10.4426C54.0059 10.4525 54.0663 10.4723 54.1571 10.494V14.2829C53.9649 14.1168 53.8069 14.0376 53.7386 13.9101C53.5922 13.6381 53.4957 13.3384 53.3728 13.0536C52.7348 11.577 51.5681 10.8689 50.0268 10.7314C47.1802 10.4782 45.279 11.5691 44.2274 14.2493C42.9787 17.43 43.0041 20.668 44.2644 23.8467C44.9053 25.4647 46.0096 26.7326 47.7441 27.1796C49.8131 27.7137 51.5925 27.0392 53.0528 25.5201C53.4781 25.078 53.7795 24.5172 54.1493 24.0187C54.2254 23.9169 54.3541 23.8546 54.4575 23.7735C54.4956 23.902 54.5804 24.0365 54.5648 24.1572C54.4419 25.0997 54.3141 26.0423 54.1483 26.9779C54.121 27.1331 53.919 27.326 53.76 27.3764C53.1318 27.5732 52.489 27.7206 51.8519 27.8858H46.9744L46.9734 27.8868Z" fill="#747680"></path><path d="M45.5957 18.9887C45.6006 16.2601 48.012 13.8192 50.7093 13.8132C53.4027 13.8073 55.8522 16.2966 55.8434 19.0323C55.8346 21.7471 53.392 24.182 50.6927 24.1662C47.9837 24.1504 45.5918 21.7204 45.5967 18.9887H45.5957ZM53.2642 18.9917C53.0515 17.9532 52.8915 16.9356 52.6223 15.9485C52.4535 15.3314 52.0058 14.8745 51.3688 14.6677C50.1504 14.2731 49.0861 14.8932 48.65 16.2818C48.2345 17.6061 48.2501 18.9739 48.3896 20.3318C48.4539 20.9579 48.6354 21.5859 48.8549 22.1783C49.0734 22.7658 49.5124 23.1901 50.1445 23.3542C51.2361 23.6381 52.2272 23.194 52.6038 22.0636C52.9305 21.0835 53.0486 20.0321 53.2642 18.9897V18.9917Z" fill="#747680"></path></g><defs><clipPath id="clip0_755_121196"><rect width="124.865" height="18" fill="white" transform="translate(0.344727 9.88672)"></rect></clipPath></defs></svg>