<svg width="56" height="55" viewBox="0 0 56 55" fill="none" xmlns="http://www.w3.org/2000/svg"><g clip-path="url(#clip0_1249_97779)"><path d="M47.868 46.3677C58.2766 35.959 58.1174 18.9241 47.5124 8.31906L9.81939 46.0121C20.4244 56.6171 37.4594 56.7763 47.868 46.3677Z" fill="url(#paint0_linear_1249_97779)"></path><g clip-path="url(#clip1_1249_97779)"><path d="M41.25 40.75C48.5678 33.4322 48.5678 21.5678 41.25 14.25L14.75 40.75C22.0678 48.0678 33.9322 48.0678 41.25 40.75Z" fill="url(#paint1_linear_1249_97779)"></path></g><g clip-path="url(#clip2_1249_97779)"><path d="M14.75 14.25C7.43223 21.5678 7.43223 33.4322 14.75 40.75L41.25 14.25C33.9322 6.93223 22.0678 6.93223 14.75 14.25Z" fill="url(#paint2_linear_1249_97779)"></path></g><circle cx="28.0003" cy="27.5" r="10.8485" transform="rotate(-45 28.0003 27.5)" fill="url(#paint3_angular_1249_97779)"></circle></g><defs><linearGradient id="paint0_linear_1249_97779" x1="36.3452" y1="47.6765" x2="28.1847" y2="10.1129" gradientUnits="userSpaceOnUse"><stop stop-color="#E7E7E7"></stop><stop offset="1" stop-color="#E7E7E7" stop-opacity="0"></stop></linearGradient><linearGradient id="paint1_linear_1249_97779" x1="52.5565" y1="15.9055" x2="24.7104" y2="43.7515" gradientUnits="userSpaceOnUse"><stop stop-color="white"></stop><stop offset="1" stop-color="#EEEEEE" stop-opacity="0.85"></stop></linearGradient><linearGradient id="paint2_linear_1249_97779" x1="0.105208" y1="41.3654" x2="34.2353" y2="7.2353" gradientUnits="userSpaceOnUse"><stop stop-color="#191C2C"></stop><stop offset="1" stop-color="#535353" stop-opacity="0"></stop></linearGradient><radialGradient id="paint3_angular_1249_97779" cx="0" cy="0" r="1" gradientUnits="userSpaceOnUse" gradientTransform="translate(28.0003 27.5) scale(18.6835 18.6816)"><stop offset="0.151042" stop-color="#69E2D3"></stop><stop offset="0.9999" stop-color="#308CEB"></stop><stop offset="1" stop-color="#68E0D5"></stop></radialGradient><clipPath id="clip0_1249_97779"><rect width="55" height="55" fill="white" transform="translate(0.5)"></rect></clipPath><clipPath id="clip1_1249_97779"><rect width="37.4767" height="37.4767" fill="white" transform="translate(1.5 27.5) rotate(-45)"></rect></clipPath><clipPath id="clip2_1249_97779"><rect width="37.4767" height="37.4767" fill="white" transform="translate(54.5 27.5) rotate(135)"></rect></clipPath></defs></svg>