<svg width="56" height="56" viewBox="0 0 56 56" fill="none" xmlns="http://www.w3.org/2000/svg"><g clip-path="url(#clip0_934_96001)"><rect x="55.5" y="55.1797" width="55" height="55" rx="27.5" transform="rotate(-180 55.5 55.1797)" fill="url(#paint0_linear_934_96001)"></rect><rect x="9.5" y="9.17969" width="37" height="8" rx="4" fill="#DBDBDB"></rect><rect x="9.5" y="22.1797" width="37" height="8" rx="4" fill="url(#paint1_linear_934_96001)"></rect><rect x="9.5" y="35.1797" width="37" height="8" rx="4" fill="#DBDBDB"></rect><circle cx="13.5" cy="13.1797" r="4" transform="rotate(-180 13.5 13.1797)" fill="url(#paint2_linear_934_96001)"></circle><circle cx="13.5" cy="26.1797" r="4" transform="rotate(-180 13.5 26.1797)" fill="url(#paint3_linear_934_96001)"></circle><circle cx="13.5" cy="39.1797" r="4" transform="rotate(-180 13.5 39.1797)" fill="url(#paint4_linear_934_96001)"></circle></g><defs><linearGradient id="paint0_linear_934_96001" x1="36.5" y1="43.1797" x2="96.5" y2="103.18" gradientUnits="userSpaceOnUse"><stop stop-color="#E7E7E7"></stop><stop offset="1" stop-color="#E7E7E7" stop-opacity="0"></stop></linearGradient><linearGradient id="paint1_linear_934_96001" x1="46.5" y1="26.1797" x2="18" y2="26.1797" gradientUnits="userSpaceOnUse"><stop stop-color="#DBDBDB"></stop><stop offset="1" stop-color="#DBDBDB" stop-opacity="0"></stop></linearGradient><linearGradient id="paint2_linear_934_96001" x1="24.5769" y1="12.0762" x2="-1.57692" y2="12.0778" gradientUnits="userSpaceOnUse"><stop offset="0.3" stop-color="#69E2D3"></stop><stop offset="0.59" stop-color="#125EF6"></stop><stop offset="1" stop-color="#2A2774"></stop></linearGradient><linearGradient id="paint3_linear_934_96001" x1="16.4412" y1="25.5915" x2="-10.7857" y2="25.5915" gradientUnits="userSpaceOnUse"><stop stop-color="#181B2B"></stop><stop offset="1" stop-color="#999999" stop-opacity="0.15"></stop></linearGradient><linearGradient id="paint4_linear_934_96001" x1="24.5769" y1="38.0762" x2="-1.57692" y2="38.0778" gradientUnits="userSpaceOnUse"><stop offset="0.3" stop-color="#69E2D3"></stop><stop offset="0.59" stop-color="#125EF6"></stop><stop offset="1" stop-color="#2A2774"></stop></linearGradient><clipPath id="clip0_934_96001"><rect width="55" height="55" fill="white" transform="translate(0.5 0.179688)"></rect></clipPath></defs></svg>