<svg width="103" height="37" viewBox="0 0 103 37" fill="none" xmlns="http://www.w3.org/2000/svg"><g clip-path="url(#clip0_755_121233)"><path d="M9.90432 7.49567H12.1582C13.5308 7.28556 14.9326 7.47029 16.2113 8.02979C17.8155 9.0326 18.979 10.647 19.4538 12.5287C19.7899 13.5147 19.7899 13.5147 20.6005 13.1655H21.2332V5.35921H0.0187711V6.73558H0.8887C1.26673 6.73286 1.64055 6.81818 1.98269 6.98526C2.32482 7.15234 2.62659 7.39694 2.86581 7.7011C3.67642 9.05693 3.81482 10.5771 3.81482 18.4861C3.81482 26.8882 3.63688 28.9425 2.86581 29.9902C2.67545 30.2595 2.429 30.4807 2.14485 30.6372C1.8607 30.7937 1.54619 30.8815 1.22481 30.8941C0.0187712 31.12 0.0187711 31.0995 0.0187711 31.6541C-0.0479237 31.8396 -0.0479237 32.0439 0.0187711 32.2293H13.4038C13.4924 32.0479 13.5385 31.8473 13.5385 31.6439C13.5385 31.4404 13.4924 31.2398 13.4038 31.0584C13.0796 30.9647 12.7492 30.896 12.4153 30.853C12.054 30.8083 11.6969 30.7327 11.3476 30.627C10.8474 30.2476 10.4512 29.7391 10.1981 29.1519C9.94495 28.5646 9.8437 27.9189 9.90432 27.2785C9.70661 25.9227 9.60775 23.437 9.60775 21.3827V19.7598H10.3986C11.3839 19.7285 12.3686 19.8391 13.3247 20.0885C13.7828 20.3826 14.1726 20.7781 14.4666 21.2469C14.7605 21.7156 14.9512 22.246 15.025 22.8001L15.203 23.437H16.409V14.3365H15.3018L15.1239 15.2198C15.049 15.7865 14.8473 16.3271 14.5348 16.798C14.2223 17.269 13.8078 17.6572 13.3247 17.9315C12.8568 18.0761 12.3639 18.1112 11.8814 18.0342H9.60775V15.8156C9.60775 13.5147 9.72638 8.66662 9.80547 7.90653L9.90432 7.49567ZM102.433 23.7862C101.499 22.2233 100.041 21.0746 98.3405 20.561C97.0369 20.1376 95.8319 19.4381 94.8014 18.5067C94.5696 18.2736 94.3961 17.9852 94.2962 17.6665C94.1962 17.3478 94.1728 17.0086 94.2281 16.6784C94.2296 16.0306 94.4785 15.41 94.9201 14.9527C95.2193 14.6271 95.5981 14.392 96.016 14.2726C96.4339 14.1532 96.8751 14.1539 97.2926 14.2748C98.1569 14.5308 98.9385 15.0249 99.5546 15.7048C100.171 16.3847 100.598 17.2251 100.792 18.1369C101.108 19.0613 101.148 19.0613 101.721 18.8148L102.077 18.671V13.5558L101.82 13.4326C99.8737 12.7223 97.809 12.4288 95.7504 12.5698C93.9777 12.6164 92.2855 13.349 91.0054 14.6241C90.4248 15.1888 89.97 15.8785 89.6729 16.645C89.3758 17.4115 89.2435 18.2362 89.2853 19.0613C89.2964 20.3229 89.7784 21.5308 90.6297 22.4304C91.5705 23.3918 92.725 24.0974 93.9908 24.4847C97.0553 25.7378 97.945 26.539 97.945 27.9975C97.9582 28.6126 97.7696 29.214 97.4103 29.703C97.0511 30.1921 96.5424 30.5396 95.9679 30.6886C95.2776 30.8462 94.5625 30.8462 93.8722 30.6886C92.9683 30.3241 92.1613 29.7406 91.5182 28.9867C90.8752 28.2328 90.4146 27.3302 90.175 26.3541L89.918 25.6967H89.5621C89.392 25.7098 89.2251 25.7514 89.0678 25.82H88.8701V31.6541H89.2062C90.5419 32.1158 91.9201 32.4325 93.3186 32.5991H95.2957C96.1531 32.6645 97.0151 32.5812 97.8462 32.3526C98.9013 32.1503 99.8871 31.6646 100.706 30.9439C101.524 30.2231 102.147 29.2923 102.512 28.244C102.748 27.6585 102.869 27.0299 102.868 26.3952C102.946 25.5009 102.796 24.6011 102.433 23.7862ZM83.8087 13.1655C82.6239 12.6487 81.3474 12.398 80.0628 12.4298C78.7782 12.4617 77.5147 12.7754 76.355 13.3504C75.2649 13.9044 74.2988 14.6898 73.5189 15.6557C72.7391 16.6217 72.1628 17.7469 71.8274 18.9586C71.3997 20.2804 71.2186 21.6749 71.2936 23.0672C71.2794 23.8247 71.339 24.5818 71.4715 25.3269C71.7908 27.1589 72.642 28.8456 73.9108 30.1602C75.1796 31.4749 76.8053 32.3547 78.5694 32.6813C79.7181 32.8317 80.8805 32.8317 82.0293 32.6813C83.2214 32.463 84.3622 32.0097 85.3904 31.346C86.2408 30.8506 86.9607 30.145 87.4861 29.2917C87.4524 29.1578 87.393 29.0324 87.3114 28.923C87.2299 28.8135 87.1279 28.7223 87.0116 28.6549C86.786 28.7398 86.573 28.8573 86.3789 29.0041C85.3956 29.6775 84.2343 30.0151 83.0574 29.9696C82.2762 30.0245 81.4931 29.8981 80.7647 29.5997C80.0364 29.3012 79.381 28.8381 78.8461 28.244C78.4324 27.8447 78.0909 27.3716 77.8378 26.8471C77.2234 25.57 76.8924 24.1661 76.869 22.7385V21.9373H87.8222V21.5265C87.8464 21.116 87.8464 20.7044 87.8222 20.2939C87.8183 18.8434 87.4449 17.4198 86.74 16.1678C86.035 14.9157 85.0237 13.8799 83.8087 13.1655ZM78.2926 20.2734H76.9086V19.0613C77.3633 15.9594 78.4903 14.1105 79.8742 14.1105C81.2582 14.1105 81.8514 15.9388 82.1084 19.2873V20.2323H80.9221L78.2926 20.2734ZM49.8617 12.4876C49.1785 12.4601 48.4994 12.6083 47.8846 12.919C46.5483 13.5933 45.469 14.7147 44.8201 16.1032L44.5631 16.5962V12.4876H44.4642C44.227 12.4876 36.9117 14.0078 36.6744 14.1105C36.4371 14.2132 36.5162 14.2337 36.5162 14.6035C36.5162 14.9733 36.5162 15.0349 36.6744 15.0555L37.4455 15.2198C37.6614 15.2253 37.8733 15.2818 38.0652 15.385C38.257 15.4882 38.4237 15.6355 38.5527 15.8156C39.0469 16.4935 39.1458 17.685 39.1458 22.7591C39.2434 25.0434 39.1508 27.3321 38.869 29.5998C38.8026 29.9418 38.6358 30.2539 38.3914 30.4931C38.147 30.7323 37.8372 30.8867 37.5048 30.9351L36.8326 31.0789H36.5755V31.6541C36.5038 31.8457 36.5038 32.0583 36.5755 32.2499H47.6276V31.6541C47.6659 31.4576 47.6659 31.255 47.6276 31.0584C46.9622 31.0315 46.3004 30.9421 45.6505 30.7913C45.2965 30.599 45.007 30.2997 44.8199 29.933C44.6329 29.5663 44.5571 29.1494 44.6026 28.737C44.4444 27.5456 44.3654 24.0533 44.4049 21.3827C44.4444 18.7121 44.4049 18.5478 44.6224 18.3629C45.284 17.8358 46.1026 17.5668 46.9356 17.6028C47.7207 17.6206 48.4916 17.8243 49.1895 18.1985C49.4314 18.3381 49.691 18.4418 49.9606 18.5067C49.9606 18.5067 51.9377 13.5353 51.9377 13.3093C51.6847 13.0038 51.3623 12.7687 50.9999 12.6252C50.6374 12.4818 50.2462 12.4345 49.8617 12.4876ZM36.536 21.1156C36.467 19.6476 36.0614 18.218 35.3529 16.9459C34.6445 15.6738 33.6537 14.596 32.4632 13.8023C31.0483 13.0093 29.4742 12.572 27.8673 12.5256C26.2603 12.4792 24.6653 12.8251 23.2103 13.5353C21.1531 14.6624 19.5998 16.5785 18.8804 18.8764C18.1373 21.4493 18.1373 24.1921 18.8804 26.7649C19.2699 28.171 19.998 29.4507 20.9959 30.4832C22.2387 31.7432 23.8412 32.5505 25.563 32.784C26.6683 32.88 27.7793 32.88 28.8846 32.784C29.2913 32.7197 29.694 32.6305 30.0906 32.5169C31.6999 32.0492 33.1477 31.1149 34.2646 29.8234C35.3816 28.5319 36.1214 26.9366 36.3976 25.2242C36.595 23.8647 36.6414 22.4861 36.536 21.1156ZM28.3112 31.3871C26.3341 32.0034 24.8513 30.0107 24.357 25.82C24.1755 23.6259 24.1755 21.4197 24.357 19.2257C24.7524 15.8566 25.7607 14.1516 27.3227 14.1516C27.6378 14.1313 27.953 14.1897 28.2419 14.3219C28.5309 14.4542 28.7851 14.6564 28.9834 14.9117C30.3081 16.288 30.9605 19.0202 30.9605 23.1288C31.125 25.4541 30.7733 27.7875 29.9324 29.9491C29.5612 30.5795 28.9867 31.0527 28.3112 31.2844V31.3871ZM63.8992 12.8985C63.3413 12.8239 62.7765 12.8239 62.2187 12.8985C61.1478 12.8975 60.0892 13.1357 59.1146 13.5969L58.5017 13.864V9.40616C58.6088 7.90174 58.6088 6.39114 58.5017 4.88672C58.2644 4.88672 50.7119 6.38635 50.5933 6.44798C50.5349 6.59965 50.5349 6.7688 50.5933 6.92047C50.5933 7.35187 50.5933 7.33133 51.483 7.53676C51.7327 7.59496 51.9727 7.69192 52.1947 7.82436C52.5806 8.20144 52.8375 8.69915 52.9262 9.24182C53.1514 10.8052 53.2242 12.3881 53.1437 13.9667V32.0034L53.6775 32.1266C54.4684 32.3115 56.7025 32.7018 57.4341 32.784C58.8948 32.9047 60.3625 32.9047 61.8232 32.784C63.4446 32.6119 64.9901 31.9834 66.2931 30.9662C67.5961 29.949 68.6072 28.5816 69.2176 27.0114C69.5815 26.0037 69.8336 24.9561 69.9689 23.8889C70.0866 22.4434 70.0402 20.9886 69.8305 19.5544C69.6184 17.9467 68.9355 16.4458 67.8745 15.2551C66.8134 14.0644 65.4256 13.2417 63.8992 12.8985ZM58.7192 31.0379C58.7192 30.7708 58.5215 21.773 58.561 18.178V15.3636L59.1344 15.2198C59.5212 15.1622 59.914 15.1622 60.3009 15.2198C60.7287 15.1746 61.159 15.2756 61.5267 15.5074C62.265 16.0369 62.8782 16.7335 63.3199 17.5448C63.7617 18.3561 64.0206 19.2609 64.0771 20.1912C64.2212 21.6871 64.2212 23.1942 64.0771 24.6901C63.9588 26.8643 63.1526 28.9369 61.7837 30.5859C61.3952 30.9693 60.9072 31.2264 60.3799 31.3255C59.9809 31.3976 59.5729 31.3976 59.1739 31.3255C58.7983 31.3255 58.7983 31.2022 58.7983 31.0379H58.7192Z" fill="#747680"></path></g><defs><clipPath id="clip0_755_121233"><rect width="102.889" height="28" fill="white" transform="translate(-0.000976562 4.88672)"></rect></clipPath></defs></svg>