<svg width="73" height="26" viewBox="0 0 73 26" fill="none" xmlns="http://www.w3.org/2000/svg"><g clip-path="url(#clip0_2185_2112)"><path d="M31.2955 13.1634C31.2955 16.5547 28.6291 19.0538 25.3568 19.0538C22.0844 19.0538 19.418 16.5547 19.418 13.1634C19.418 9.74809 22.0844 7.27295 25.3568 7.27295C28.6291 7.27295 31.2955 9.74809 31.2955 13.1634ZM28.6958 13.1634C28.6958 11.0441 27.1504 9.59406 25.3568 9.59406C23.5631 9.59406 22.0177 11.0441 22.0177 13.1634C22.0177 15.2614 23.5631 16.7327 25.3568 16.7327C27.1504 16.7327 28.6958 15.2587 28.6958 13.1634Z" fill="white"></path><path d="M44.1071 13.1634C44.1071 16.5547 41.4406 19.0538 38.1683 19.0538C34.8959 19.0538 32.2295 16.5547 32.2295 13.1634C32.2295 9.75074 34.8959 7.27295 38.1683 7.27295C41.4406 7.27295 44.1071 9.74809 44.1071 13.1634ZM41.5073 13.1634C41.5073 11.0441 39.9619 9.59406 38.1683 9.59406C36.3746 9.59406 34.8292 11.0441 34.8292 13.1634C34.8292 15.2614 36.3746 16.7327 38.1683 16.7327C39.9619 16.7327 41.5073 15.2587 41.5073 13.1634Z" fill="white"></path><path d="M56.3852 7.62882V18.2039C56.3852 22.554 53.8069 24.3307 50.7587 24.3307C47.8894 24.3307 46.1625 22.4212 45.5112 20.8597L47.7747 19.9222C48.1777 20.8809 49.1653 22.0122 50.7561 22.0122C52.7072 22.0122 53.9163 20.8145 53.9163 18.5598V17.7126H53.8255C53.2437 18.427 52.1226 19.0511 50.708 19.0511C47.748 19.0511 45.0361 16.4857 45.0361 13.1846C45.0361 9.85963 47.748 7.27295 50.708 7.27295C52.12 7.27295 53.241 7.89704 53.8255 8.59019H53.9163V7.63147H56.3852V7.62882ZM54.1005 13.1846C54.1005 11.1105 52.7098 9.59406 50.9402 9.59406C49.1466 9.59406 47.6439 11.1105 47.6439 13.1846C47.6439 15.2375 49.1466 16.7327 50.9402 16.7327C52.7098 16.7327 54.1005 15.2375 54.1005 13.1846Z" fill="white"></path><path d="M60.4556 1.43042V18.6926H57.9199V1.43042H60.4556Z" fill="white"></path><path d="M70.3363 15.1021L72.3541 16.4406C71.7029 17.3993 70.1334 19.0512 67.4216 19.0512C64.0585 19.0512 61.5469 16.4645 61.5469 13.1608C61.5469 9.65788 64.0799 7.27039 67.1307 7.27039C70.2028 7.27039 71.7055 9.70303 72.1967 11.0176L72.4662 11.6869L64.5523 14.9481C65.1582 16.1299 66.1004 16.7327 67.4216 16.7327C68.7455 16.7327 69.6637 16.0847 70.3363 15.1021ZM64.1252 12.9829L69.4154 10.7972C69.1245 10.0616 68.249 9.549 67.2188 9.549C65.8975 9.549 64.0585 10.7096 64.1252 12.9829V12.9829Z" fill="white"></path><path d="M9.81932 11.6311V9.13205H18.2831C18.3658 9.56759 18.4085 10.0828 18.4085 10.6405C18.4085 12.5155 17.8934 14.8339 16.2332 16.4858C14.6184 18.1589 12.5552 19.0512 9.82199 19.0512C4.75601 19.0512 0.496094 14.9454 0.496094 9.90487C0.496094 4.8643 4.75601 0.758545 9.82199 0.758545C12.6246 0.758545 14.6211 1.8527 16.1211 3.27883L14.3488 5.04223C13.2732 4.03837 11.8158 3.25758 9.81932 3.25758C6.11993 3.25758 3.2266 6.22403 3.2266 9.90487C3.2266 13.5857 6.11993 16.5522 9.81932 16.5522C12.2189 16.5522 13.5854 15.5934 14.4609 14.7224C15.1709 14.0159 15.638 13.0068 15.8222 11.6284L9.81932 11.6311V11.6311Z" fill="white"></path></g><defs><clipPath id="clip0_2185_2112"><rect width="72.6" height="24.4327" fill="white" transform="translate(0.400391 0.633667)"></rect></clipPath></defs></svg>