<svg width="133" height="45" viewBox="0 0 133 45" fill="none" xmlns="http://www.w3.org/2000/svg"><g clip-path="url(#clip0_2142_9053)"><path d="M56.599 23.074C56.599 29.2869 51.7142 33.865 45.7194 33.865C39.7247 33.865 34.8398 29.2869 34.8398 23.074C34.8398 16.8174 39.7247 12.2831 45.7194 12.2831C51.7142 12.2831 56.599 16.8174 56.599 23.074ZM51.8365 23.074C51.8365 19.1916 49.0053 16.5352 45.7194 16.5352C42.4336 16.5352 39.6024 19.1916 39.6024 23.074C39.6024 26.9175 42.4336 29.6128 45.7194 29.6128C49.0053 29.6128 51.8365 26.9127 51.8365 23.074Z" fill="#EA4335"></path><path d="M80.0678 23.074C80.0678 29.2869 75.183 33.865 69.1882 33.865C63.1934 33.865 58.3086 29.2869 58.3086 23.074C58.3086 16.8223 63.1934 12.2831 69.1882 12.2831C75.183 12.2831 80.0678 16.8174 80.0678 23.074ZM75.3052 23.074C75.3052 19.1916 72.4741 16.5352 69.1882 16.5352C65.9023 16.5352 63.0712 19.1916 63.0712 23.074C63.0712 26.9175 65.9023 29.6128 69.1882 29.6128C72.4741 29.6128 75.3052 26.9127 75.3052 23.074Z" fill="#FBBC05"></path><path d="M102.563 12.935V32.3081C102.563 40.2773 97.8391 43.5321 92.255 43.5321C86.9986 43.5321 83.8349 40.034 82.6419 37.1733L86.7883 35.4559C87.5267 37.2122 89.3359 39.2848 92.2501 39.2848C95.8245 39.2848 98.0395 37.0906 98.0395 32.9601V31.4081H97.8733C96.8073 32.7168 94.7537 33.8601 92.1621 33.8601C86.7394 33.8601 81.7715 29.1604 81.7715 23.113C81.7715 17.0218 86.7394 12.2831 92.1621 12.2831C94.7488 12.2831 96.8024 13.4264 97.8733 14.6962H98.0395V12.9399H102.563V12.935ZM98.3769 23.113C98.3769 19.3133 95.8294 16.5352 92.5875 16.5352C89.3016 16.5352 86.5487 19.3133 86.5487 23.113C86.5487 26.8737 89.3016 29.6128 92.5875 29.6128C95.8294 29.6128 98.3769 26.8737 98.3769 23.113Z" fill="#4285F4"></path><path d="M110.018 1.57947V33.2031H105.373V1.57947H110.018Z" fill="#34A853"></path><path d="M128.119 26.6256L131.816 29.0776C130.623 30.834 127.748 33.8601 122.78 33.8601C116.619 33.8601 112.018 29.1214 112.018 23.0692C112.018 16.652 116.658 12.2782 122.247 12.2782C127.875 12.2782 130.628 16.7347 131.528 19.143L132.021 20.369L117.523 26.3434C118.633 28.5084 120.359 29.6128 122.78 29.6128C125.205 29.6128 126.887 28.4257 128.119 26.6256ZM116.741 22.7432L126.432 18.7392C125.899 17.3915 124.296 16.4525 122.408 16.4525C119.988 16.4525 116.619 18.5786 116.741 22.7432V22.7432Z" fill="#EA4335"></path><path d="M17.2575 20.2668V15.6887H32.7627C32.9143 16.4865 32.9926 17.4304 32.9926 18.4521C32.9926 21.8869 32.0488 26.1342 29.0074 29.1603C26.0492 32.2254 22.2694 33.8601 17.2624 33.8601C7.9817 33.8601 0.177734 26.3385 0.177734 17.1044C0.177734 7.87032 7.9817 0.348755 17.2624 0.348755C22.3966 0.348755 26.0541 2.35321 28.8021 4.96581L25.5553 8.19628C23.5848 6.35725 20.915 4.92689 17.2575 4.92689C10.4803 4.92689 5.1799 10.3613 5.1799 17.1044C5.1799 23.8476 10.4803 29.282 17.2575 29.282C21.6533 29.282 24.1569 27.5256 25.7607 25.9298C27.0613 24.6357 27.917 22.7869 28.2544 20.2619L17.2575 20.2668V20.2668Z" fill="#4285F4"></path></g><defs><clipPath id="clip0_2142_9053"><rect width="133" height="44.7596" fill="white" transform="translate(0 0.119995)"></rect></clipPath></defs></svg>