<svg width="141" height="23" viewBox="0 0 141 23" fill="none" xmlns="http://www.w3.org/2000/svg"><path d="M14.1285 22.8601C13.3227 22.8601 12.5929 22.4962 12.1746 21.8859L11.519 20.9279C11.4303 20.7976 11.2854 20.7124 11.1405 20.707L11.1098 20.7052H11.088C10.9341 20.7124 10.791 20.7957 10.7023 20.9261L10.0468 21.8841C9.62846 22.4943 8.89868 22.8583 8.09283 22.8583C7.63649 22.8583 7.18558 22.7388 6.79081 22.5143C6.22582 22.1919 5.82561 21.6686 5.6898 21.0819C5.56666 20.5458 5.66988 20.0008 5.98135 19.5462C9.10149 14.9864 9.10331 14.9846 9.10874 14.9792C9.518 14.3798 10.2478 14.0158 11.0536 14.0158H11.1677C11.9736 14.0158 12.7033 14.3798 13.1198 14.9883C13.1416 15.0208 16.2074 19.501 16.2382 19.5462C16.5496 20.0008 16.6529 20.5477 16.5297 21.0837C16.3939 21.6704 15.9937 22.1919 15.4287 22.5161C15.0339 22.7406 14.5848 22.8601 14.1285 22.8601ZM11.1098 19.4285C11.1424 19.4285 11.175 19.4285 11.2057 19.4303C11.8015 19.4557 12.3538 19.7599 12.6852 20.2434L13.3408 21.2014C13.5037 21.4386 13.7971 21.5817 14.1267 21.5817C14.3277 21.5817 14.5269 21.5291 14.7025 21.4277C14.9488 21.2865 15.1227 21.0638 15.1806 20.8175C15.2277 20.611 15.1897 20.401 15.072 20.2289L11.9754 15.7072C11.9699 15.7017 11.9663 15.6963 11.9627 15.6909C11.9609 15.6891 11.9536 15.6764 11.9536 15.6746C11.7907 15.4373 11.4973 15.2961 11.1677 15.2961C11.1496 15.2961 11.1333 15.2961 11.1152 15.2979C11.0898 15.2979 11.0717 15.2961 11.0536 15.2961C10.724 15.2961 10.4307 15.4373 10.2677 15.6746C10.2641 15.6836 10.2586 15.6891 10.255 15.6963C10.2514 15.6999 10.2478 15.7054 10.2442 15.709L7.14937 20.2326C7.03166 20.4046 6.99363 20.6147 7.04071 20.8211C7.09685 21.0674 7.27251 21.2901 7.51879 21.4314C7.69444 21.531 7.89364 21.5853 8.09465 21.5853C8.42423 21.5853 8.71759 21.4422 8.88057 21.205L9.53611 20.247C9.8675 19.7635 10.4198 19.4593 11.0156 19.434C11.0446 19.4285 11.0772 19.4285 11.1098 19.4285ZM11.1061 9.68237C11.0935 9.68237 11.0735 9.68237 11.0536 9.68237C10.2478 9.68237 9.518 9.31838 9.10149 8.70993C9.09063 8.69363 5.98316 4.15194 5.98316 4.15194C5.67169 3.69741 5.56847 3.15053 5.69161 2.61451C5.82742 2.02778 6.22763 1.50625 6.79262 1.1821C7.18377 0.959362 7.63468 0.839844 8.09102 0.839844C8.89687 0.839844 9.62665 1.20383 10.045 1.8141L10.7005 2.77205C10.7892 2.90244 10.9341 2.98574 11.079 2.99298L11.1098 2.99479H11.1315C11.2836 2.98755 11.4285 2.90425 11.5172 2.77386L12.1727 1.81591C12.5929 1.20383 13.3227 0.839844 14.1285 0.839844C14.5867 0.839844 15.0357 0.959362 15.4305 1.18391C15.9955 1.50625 16.3957 2.02959 16.5315 2.61632C16.6547 3.15234 16.5515 3.69741 16.24 4.15194C13.118 8.71355 13.1162 8.71536 13.1108 8.72079C12.7015 9.3202 11.9717 9.68418 11.1659 9.68418C11.146 9.68237 11.1261 9.68237 11.1061 9.68237ZM11.1677 8.4057C11.4973 8.4057 11.7907 8.26445 11.9536 8.02723C11.9573 8.01998 11.9609 8.01274 11.9663 8.0055C11.9699 8.00006 11.9736 7.99644 11.9772 7.99282L15.072 3.46924C15.1897 3.29721 15.2277 3.08715 15.1806 2.88071C15.1245 2.63443 14.9488 2.41169 14.7025 2.27044C14.5269 2.17084 14.3295 2.11651 14.1285 2.11651C13.7989 2.11651 13.5056 2.25957 13.3426 2.4968L12.687 3.45475C12.3556 3.93826 11.8033 4.24249 11.2075 4.26784C11.1768 4.26965 11.1442 4.26965 11.1116 4.26965C11.079 4.26965 11.0464 4.26965 11.0156 4.26784C10.4198 4.24249 9.8675 3.93826 9.53611 3.45475L8.88057 2.4968C8.71759 2.25776 8.42423 2.11651 8.09465 2.11651C7.89364 2.11651 7.69444 2.16903 7.51879 2.27044C7.27251 2.41169 7.09866 2.63443 7.04071 2.88071C6.99363 3.08715 7.03166 3.2954 7.14937 3.46924L10.246 7.99282C10.2514 7.99825 10.2568 8.00369 10.2605 8.01093C10.4325 8.26264 10.7259 8.4057 11.0536 8.4057C11.0717 8.4057 11.1098 8.40389 11.1116 8.40389C11.1134 8.40389 11.1496 8.4057 11.1677 8.4057ZM2.31613 17.3207C1.56642 17.3207 0.847503 16.8788 0.441866 16.1689C0.219127 15.7742 0.0996094 15.3251 0.0996094 14.8687C0.0996094 14.0629 0.463596 13.3331 1.07386 12.9148L2.03182 12.2593C2.1622 12.1705 2.24731 12.0257 2.25275 11.8808L2.25456 11.85V11.8246C2.24731 11.6743 2.16401 11.5295 2.03363 11.4407L1.07567 10.7852C0.463596 10.3669 0.0996094 9.6371 0.0996094 8.83126C0.0996094 8.37492 0.219127 7.92401 0.443677 7.52923C0.849314 6.81937 1.56823 6.37752 2.31794 6.37752C2.70728 6.37752 3.08575 6.49522 3.41352 6.71977C7.97332 9.83992 7.97513 9.84173 7.98056 9.84716C8.57996 10.2564 8.94395 10.9862 8.94395 11.792C8.94395 11.812 8.94395 11.8319 8.94395 11.8518C8.94395 11.8663 8.94395 11.8844 8.94395 11.9061C8.94395 12.712 8.57996 13.4418 7.97151 13.8583C7.96788 13.8601 3.41352 16.9766 3.41352 16.9766C3.08575 17.203 2.70547 17.3207 2.31613 17.3207ZM2.31432 7.75922C2.00647 7.75922 1.70586 7.94936 1.5302 8.25721C1.25676 8.73528 1.35817 9.34555 1.75656 9.61899L2.71452 10.2745C3.19803 10.6059 3.50225 11.16 3.52761 11.754C3.52942 11.7848 3.52942 11.8174 3.52942 11.85C3.52942 11.8826 3.52942 11.9152 3.52761 11.9478C3.50225 12.5418 3.19803 13.0959 2.71452 13.4273L1.75656 14.0828C1.35817 14.3544 1.25676 14.9665 1.5302 15.4446C1.70586 15.7506 2.00647 15.9426 2.31432 15.9426C2.46281 15.9426 2.60587 15.8973 2.72901 15.814L7.25259 12.7156C7.25802 12.7102 7.26526 12.7047 7.27069 12.7011C7.53871 12.52 7.67995 12.2067 7.66366 11.8554C7.67995 11.4951 7.53871 11.1818 7.28518 11.0079L7.26526 10.9953C7.25983 10.9916 7.25621 10.988 7.25078 10.9826L2.72901 7.88779C2.60587 7.80449 2.461 7.75922 2.31432 7.75922ZM19.9016 17.3207C19.5122 17.3207 19.1338 17.203 18.806 16.9784C14.248 13.8583 14.2462 13.8565 14.2408 13.8528C13.6396 13.4436 13.2774 12.7138 13.2774 11.9061C13.2774 11.8862 13.2774 11.8663 13.2774 11.8464C13.2774 11.8319 13.2774 11.8138 13.2774 11.792C13.2774 10.9862 13.6414 10.2564 14.2498 9.83992C14.2752 9.82181 18.8078 6.72158 18.8078 6.72158C19.1356 6.49703 19.5141 6.37933 19.9034 6.37933C20.6531 6.37933 21.3702 6.82118 21.7758 7.53105C22.0004 7.92582 22.1199 8.37492 22.1199 8.83126C22.1199 9.6371 21.7559 10.3669 21.1457 10.7852L20.1877 11.4407C20.0573 11.5295 19.974 11.6743 19.9668 11.8192L19.965 11.85L19.9668 11.8772C19.974 12.0238 20.0573 12.1687 20.1877 12.2574L21.1457 12.913C21.7559 13.3313 22.1199 14.0611 22.1199 14.8669C22.1199 15.3251 22.0004 15.7742 21.7758 16.1689C21.3702 16.8788 20.6513 17.3207 19.9016 17.3207ZM19.4905 15.8122C19.6137 15.8973 19.7567 15.9408 19.9052 15.9408C20.2131 15.9408 20.5137 15.7506 20.6893 15.4428C20.9628 14.9647 20.8614 14.3544 20.463 14.081L19.505 13.4255C19.0215 13.0941 18.7173 12.5418 18.6919 11.946C18.6901 11.9152 18.6901 11.8826 18.6901 11.85C18.6901 11.8174 18.6901 11.7848 18.6919 11.754C18.7173 11.1582 19.0215 10.6059 19.505 10.2745L20.463 9.61899C20.8614 9.34736 20.9628 8.73528 20.6893 8.25721C20.5137 7.95117 20.2131 7.75922 19.9052 7.75922C19.7567 7.75922 19.6137 7.80449 19.4905 7.88779L14.9669 10.9844C14.9615 10.9898 14.9543 10.9953 14.9488 10.9989C14.6808 11.18 14.5396 11.4933 14.5559 11.8446C14.5396 12.2049 14.6808 12.5182 14.9343 12.6921C14.9434 12.6975 14.9488 12.6993 14.9543 12.7047C14.9597 12.7084 14.9633 12.712 14.9687 12.7174L19.4905 15.8122Z" fill="white"></path><path d="M36.0449 8.28862V15.7987C36.0449 16.257 35.6697 16.6436 35.2168 16.6436C34.7586 16.6436 34.3888 16.2662 34.3888 15.7987V15.2667C33.5806 16.2276 32.4152 16.8313 31.1199 16.8313C28.6791 16.8313 26.6982 14.6888 26.6982 12.0437C26.6982 9.4004 28.6773 7.25598 31.1199 7.25598C32.4152 7.25598 33.5806 7.85973 34.3888 8.82058V8.28862C34.3888 7.83028 34.764 7.44373 35.2168 7.44373C35.6733 7.44373 36.0449 7.82292 36.0449 8.28862ZM34.4249 12.0437C34.4249 10.2803 33.0646 8.85187 31.3887 8.85187C29.7128 8.85187 28.3525 10.2803 28.3525 12.0437C28.3525 13.8052 29.711 15.2354 31.3887 15.2354C33.0664 15.2354 34.4249 13.8052 34.4249 12.0437Z" fill="white"></path><path d="M47.4139 8.27703V16.0595C47.4139 18.8942 45.2779 20.7662 42.4438 20.7662H42.4185C41.2622 20.7625 40.0444 20.4607 38.7979 19.868C38.3829 19.671 38.2043 19.1685 38.3956 18.7451C38.5886 18.3218 39.0811 18.1377 39.496 18.3346C40.5243 18.8224 41.5093 19.0709 42.424 19.0746C44.4084 19.0801 45.756 17.9021 45.756 16.0577V15.2533C44.9478 16.2142 43.7824 16.8179 42.4871 16.8179C40.0444 16.8179 38.0654 14.6753 38.0654 12.0302C38.0654 9.38698 40.0444 7.24255 42.4871 7.24255C43.7824 7.24255 44.9478 7.84631 45.756 8.80715V8.27519C45.756 7.80765 46.1258 7.43031 46.584 7.43031C47.0441 7.43215 47.4139 7.81133 47.4139 8.27703ZM45.7957 12.0321C45.7957 10.2687 44.4354 8.84029 42.7595 8.84029C41.0836 8.84029 39.7233 10.2687 39.7233 12.0321C39.7233 13.7955 41.0818 15.2239 42.7595 15.2239C44.4354 15.2239 45.7957 13.7955 45.7957 12.0321Z" fill="white"></path><path d="M49.9883 4.94816C49.9883 4.40331 50.4212 3.96338 50.9534 3.96338C51.4874 3.96338 51.9186 4.40515 51.9186 4.94816C51.9186 5.49301 51.4856 5.93293 50.9534 5.93293C50.4212 5.93293 49.9883 5.49117 49.9883 4.94816ZM50.1272 15.7918V8.27984C50.1272 7.81782 50.506 7.43495 50.9552 7.43495C51.4117 7.43495 51.7833 7.8123 51.7833 8.27984V15.7918C51.7833 16.2593 51.4135 16.6366 50.9552 16.6366C50.497 16.6366 50.1272 16.2575 50.1272 15.7918Z" fill="white"></path><path d="M54.6807 15.792V4.33732C54.6807 3.8753 55.0595 3.49243 55.5087 3.49243C55.9651 3.49243 56.3368 3.87162 56.3368 4.33732V15.792C56.3368 16.2596 55.9651 16.6369 55.5087 16.6369C55.0505 16.6369 54.6807 16.2577 54.6807 15.792Z" fill="white"></path><path d="M67.9275 12.0377C67.9275 14.6809 65.8276 16.8254 63.2352 16.8254C60.6447 16.8254 58.543 14.6828 58.543 12.0377C58.543 9.39442 60.6429 7.25 63.2352 7.25C65.8258 7.25 67.9275 9.39442 67.9275 12.0377ZM66.2714 12.0377C66.2714 10.2743 64.9112 8.84589 63.2352 8.84589C61.5593 8.84589 60.1991 10.2743 60.1991 12.0377C60.1991 13.8011 61.5575 15.2295 63.2352 15.2295C64.9112 15.2295 66.2714 13.8011 66.2714 12.0377Z" fill="white"></path><path d="M78.7791 11.3787V15.7927C78.7791 16.2603 78.4093 16.6376 77.951 16.6376C77.4946 16.6376 77.123 16.2603 77.123 15.7927V11.7469C77.123 10.1454 75.8872 8.8459 74.3646 8.8459C72.842 8.8459 71.6063 10.1436 71.6063 11.7469V15.7927C71.6063 16.2603 71.2365 16.6376 70.7782 16.6376C70.32 16.6376 69.9502 16.2584 69.9502 15.7927V8.28265C69.9502 7.82063 70.329 7.43776 70.7782 7.43776C71.2365 7.43776 71.6063 7.81511 71.6063 8.28265V8.82566C72.3387 7.86849 73.4789 7.25369 74.7615 7.25001C76.9715 7.24633 78.7791 9.12385 78.7791 11.3787Z" fill="white"></path><path d="M93.992 11.2839V15.6453C93.992 16.0981 93.6149 16.4801 93.1599 16.4801C92.7012 16.4801 92.3277 16.1072 92.3277 15.6453V11.6476C92.3277 10.0653 91.0858 8.78126 89.5556 8.78126C88.0254 8.78126 86.7835 10.0635 86.7835 11.6476V15.6453C86.7835 16.1072 86.4118 16.4801 85.9513 16.4801C85.4908 16.4801 85.1191 16.1072 85.1191 15.6453V4.32712C85.1191 3.87061 85.4999 3.49231 85.9513 3.49231C86.4118 3.49231 86.7835 3.86697 86.7835 4.32712V8.76126C87.5196 7.8155 88.6654 7.20804 89.9545 7.2044C92.1754 7.20076 93.992 9.05589 93.992 11.2839Z" fill="white"></path><path d="M105.367 11.9084V12.1339C105.367 12.5686 105.015 12.9214 104.582 12.9214H98.0189C98.4033 14.2109 99.5274 15.0894 100.862 15.0894C101.716 15.0894 102.782 14.7493 103.891 14.1891C104.279 13.9927 104.751 14.1491 104.946 14.5383C105.142 14.9275 104.986 15.4004 104.598 15.5968C103.215 16.2971 101.924 16.6663 100.864 16.6663C98.2474 16.6663 96.2168 14.562 96.2168 11.952C96.2168 9.31484 98.2728 7.20508 100.789 7.20508C103.337 7.20508 105.367 9.3694 105.367 11.9084ZM103.654 11.3446C103.407 9.90775 102.212 8.78194 100.786 8.78194C99.3515 8.78194 98.1821 9.90775 97.9301 11.3446H103.654Z" fill="white"></path><path d="M116.608 8.23138V15.6519C116.608 16.1048 116.231 16.4867 115.776 16.4867C115.315 16.4867 114.944 16.1139 114.944 15.6519V15.1263C114.132 16.0757 112.96 16.6722 111.659 16.6722C109.206 16.6722 107.215 14.5552 107.215 11.9417C107.215 9.32991 109.204 7.21106 111.659 7.21106C112.96 7.21106 114.132 7.80761 114.944 8.75701V8.23138C114.944 7.77851 115.321 7.39657 115.776 7.39657C116.236 7.39657 116.608 7.77124 116.608 8.23138ZM114.982 11.9417C114.982 10.1993 113.615 8.78792 111.931 8.78792C110.246 8.78792 108.879 10.1993 108.879 11.9417C108.879 13.6822 110.244 15.0954 111.931 15.0954C113.615 15.0954 114.982 13.6822 114.982 11.9417Z" fill="white"></path><path d="M119.38 15.6453V4.32712C119.38 3.87061 119.761 3.49231 120.212 3.49231C120.671 3.49231 121.044 3.86697 121.044 4.32712V15.6453C121.044 16.1072 120.673 16.4801 120.212 16.4801C119.753 16.4801 119.38 16.1054 119.38 15.6453Z" fill="white"></path><path d="M129.438 16.3952C128.924 16.577 128.416 16.6662 127.935 16.6662C127.25 16.6662 126.621 16.4825 126.113 16.1224C125.406 15.6204 125.002 14.811 125.002 13.9053V9.06011H124.233C123.8 9.06011 123.448 8.70727 123.448 8.27259C123.448 7.83791 123.8 7.48507 124.233 7.48507H125.002V5.4426C125.002 4.98063 125.374 4.60779 125.834 4.60779C126.293 4.60779 126.666 4.98063 126.666 5.4426V7.48325H128.527C128.96 7.48325 129.312 7.83609 129.312 8.27077C129.312 8.70545 128.96 9.05829 128.527 9.05829H126.666V13.9017C126.666 14.2709 126.808 14.5655 127.076 14.7565C127.493 15.0529 128.153 15.0748 128.885 14.8165C129.319 14.6637 129.794 14.8929 129.946 15.3276C130.098 15.7622 129.872 16.2424 129.438 16.3952Z" fill="white"></path><path d="M140.9 11.2839V15.6453C140.9 16.0981 140.523 16.4801 140.068 16.4801C139.609 16.4801 139.236 16.1072 139.236 15.6453V11.6476C139.236 10.0653 137.994 8.78126 136.464 8.78126C134.934 8.78126 133.692 10.0635 133.692 11.6476V15.6453C133.692 16.1072 133.318 16.4801 132.86 16.4801C132.399 16.4801 132.027 16.1072 132.027 15.6453V4.32712C132.027 3.87061 132.408 3.49231 132.86 3.49231C133.318 3.49231 133.692 3.86697 133.692 4.32712V8.76126C134.428 7.8155 135.574 7.20804 136.863 7.2044C139.082 7.20076 140.9 9.05589 140.9 11.2839Z" fill="white"></path><path d="M51.2645 6.02158C51.801 6.02158 52.2359 5.58663 52.2359 5.0501C52.2359 4.51356 51.801 4.07861 51.2645 4.07861C50.7279 4.07861 50.293 4.51356 50.293 5.0501C50.293 5.58663 50.7279 6.02158 51.2645 6.02158Z" fill="white"></path></svg>