<svg width="188" height="46" viewBox="0 0 188 46" fill="none" xmlns="http://www.w3.org/2000/svg"><path d="M22.3247 37.3816C21.2721 37.3816 20.3189 36.9062 19.7725 36.109L18.9162 34.8577C18.8003 34.6874 18.6111 34.5763 18.4218 34.5692L18.3816 34.5668H18.3532C18.1522 34.5763 17.9653 34.6851 17.8494 34.8554L16.9931 36.1067C16.4467 36.9038 15.4935 37.3793 14.4409 37.3793C13.8448 37.3793 13.2558 37.2231 12.7401 36.9298C12.0021 36.5088 11.4794 35.8252 11.302 35.0588C11.1411 34.3586 11.276 33.6467 11.6828 33.0529C15.7584 27.0969 15.7607 27.0945 15.7678 27.0874C16.3024 26.3045 17.2557 25.829 18.3083 25.829H18.4573C19.5099 25.829 20.4632 26.3045 21.0072 27.0992C21.0356 27.1418 25.0402 32.9938 25.0804 33.0529C25.4873 33.6467 25.6221 34.361 25.4612 35.0612C25.2838 35.8276 24.7611 36.5088 24.0231 36.9322C23.5074 37.2255 22.9208 37.3816 22.3247 37.3816ZM18.3816 32.8992C18.4242 32.8992 18.4668 32.8992 18.507 32.9016C19.2852 32.9347 20.0066 33.3321 20.4395 33.9636L21.2958 35.2149C21.5087 35.5248 21.8919 35.7117 22.3224 35.7117C22.5849 35.7117 22.8451 35.6431 23.0746 35.5106C23.3962 35.3261 23.6233 35.0352 23.699 34.7135C23.7605 34.4438 23.7108 34.1694 23.5571 33.9447L19.5123 28.0383C19.5052 28.0312 19.5004 28.0241 19.4957 28.017C19.4933 28.0147 19.4839 27.9981 19.4839 27.9957C19.271 27.6859 18.8878 27.5014 18.4573 27.5014C18.4336 27.5014 18.4124 27.5014 18.3887 27.5037C18.3556 27.5037 18.3319 27.5014 18.3083 27.5014C17.8778 27.5014 17.4946 27.6859 17.2817 27.9957C17.277 28.0076 17.2699 28.0147 17.2651 28.0241C17.2604 28.0288 17.2557 28.0359 17.2509 28.0407L13.2085 33.9494C13.0547 34.1741 13.0051 34.4485 13.0666 34.7182C13.1399 35.0399 13.3693 35.3308 13.691 35.5153C13.9205 35.6454 14.1807 35.7164 14.4432 35.7164C14.8737 35.7164 15.2569 35.5295 15.4698 35.2197L16.3261 33.9684C16.7589 33.3368 17.4804 32.9394 18.2586 32.9063C18.2965 32.8992 18.339 32.8992 18.3816 32.8992ZM18.3769 20.1686C18.3603 20.1686 18.3343 20.1686 18.3083 20.1686C17.2557 20.1686 16.3024 19.6932 15.7584 18.8984C15.7442 18.8771 11.6852 12.9447 11.6852 12.9447C11.2783 12.351 11.1435 11.6367 11.3043 10.9365C11.4817 10.1701 12.0045 9.48887 12.7425 9.06547C13.2534 8.77452 13.8424 8.61841 14.4385 8.61841C15.4911 8.61841 16.4443 9.09385 16.9908 9.89099L17.847 11.1423C17.9629 11.3126 18.1522 11.4214 18.3414 11.4309L18.3816 11.4332H18.41C18.6087 11.4238 18.7979 11.315 18.9138 11.1447L19.7701 9.89336C20.3189 9.09385 21.2721 8.61841 22.3247 8.61841C22.9232 8.61841 23.5098 8.77452 24.0254 9.06783C24.7634 9.48887 25.2862 10.1725 25.4636 10.9389C25.6245 11.639 25.4896 12.351 25.0828 12.9447C21.0048 18.9032 21.0025 18.9055 20.9954 18.9126C20.4608 19.6956 19.5075 20.171 18.4549 20.171C18.4289 20.1686 18.4029 20.1686 18.3769 20.1686ZM18.4573 18.501C18.8878 18.501 19.271 18.3165 19.4839 18.0067C19.4886 17.9972 19.4933 17.9877 19.5004 17.9783C19.5052 17.9712 19.5099 17.9665 19.5146 17.9617L23.5571 12.053C23.7108 11.8283 23.7605 11.5539 23.699 11.2842C23.6257 10.9625 23.3962 10.6716 23.0746 10.4871C22.8451 10.357 22.5873 10.286 22.3247 10.286C21.8942 10.286 21.511 10.4729 21.2981 10.7827L20.4419 12.034C20.009 12.6656 19.2876 13.063 18.5093 13.0961C18.4691 13.0985 18.4266 13.0985 18.384 13.0985C18.3414 13.0985 18.2988 13.0985 18.2586 13.0961C17.4804 13.063 16.7589 12.6656 16.3261 12.034L15.4698 10.7827C15.2569 10.4705 14.8737 10.286 14.4432 10.286C14.1807 10.286 13.9205 10.3546 13.691 10.4871C13.3693 10.6716 13.1423 10.9625 13.0666 11.2842C13.0051 11.5539 13.0547 11.8259 13.2085 12.053L17.2533 17.9617C17.2604 17.9688 17.2675 17.9759 17.2722 17.9854C17.497 18.3142 17.8801 18.501 18.3083 18.501C18.3319 18.501 18.3816 18.4987 18.384 18.4987C18.3863 18.4987 18.4336 18.501 18.4573 18.501ZM6.89524 30.1459C5.91597 30.1459 4.97691 29.5687 4.44706 28.6415C4.15612 28.1258 4 27.5392 4 26.9431C4 25.8905 4.47544 24.9373 5.27258 24.3909L6.52388 23.5346C6.69419 23.4187 6.80536 23.2295 6.81246 23.0402L6.81482 23V22.9669C6.80536 22.7706 6.69655 22.5813 6.52624 22.4654L5.27495 21.6092C4.47544 21.0628 4 20.1095 4 19.0569C4 18.4608 4.15612 17.8718 4.44943 17.3562C4.97927 16.4289 5.91834 15.8518 6.89761 15.8518C7.40617 15.8518 7.90054 16.0055 8.32867 16.2988C14.2847 20.3744 14.2871 20.3768 14.2942 20.3839C15.0771 20.9185 15.5526 21.8717 15.5526 22.9243C15.5526 22.9503 15.5526 22.9764 15.5526 23.0024C15.5526 23.0213 15.5526 23.045 15.5526 23.0733C15.5526 24.1259 15.0771 25.0792 14.2824 25.6232C14.2776 25.6256 8.32867 29.6965 8.32867 29.6965C7.90054 29.9921 7.40381 30.1459 6.89524 30.1459ZM6.89288 17.6566C6.49076 17.6566 6.09811 17.905 5.86866 18.3071C5.51149 18.9315 5.64395 19.7287 6.16434 20.0858L7.41563 20.9421C8.04719 21.375 8.44458 22.0988 8.47769 22.8747C8.48006 22.9149 8.48006 22.9574 8.48006 23C8.48006 23.0426 8.48006 23.0852 8.47769 23.1277C8.44458 23.9036 8.04719 24.6274 7.41563 25.0603L6.16434 25.9165C5.64395 26.2714 5.51149 27.0709 5.86866 27.6953C6.09811 28.0951 6.49076 28.3458 6.89288 28.3458C7.08684 28.3458 7.27371 28.2867 7.43456 28.1779L13.3433 24.1307C13.3504 24.1236 13.3599 24.1165 13.367 24.1118C13.717 23.8752 13.9015 23.466 13.8803 23.0071C13.9015 22.5364 13.717 22.1272 13.3859 21.9001L13.3599 21.8835C13.3528 21.8788 13.348 21.8741 13.3409 21.867L7.43456 17.8245C7.27371 17.7157 7.08448 17.6566 6.89288 17.6566ZM29.8656 30.1459C29.357 30.1459 28.8627 29.9921 28.4345 29.6988C22.4808 25.6232 22.4785 25.6209 22.4714 25.6161C21.6861 25.0816 21.213 24.1283 21.213 23.0733C21.213 23.0473 21.213 23.0213 21.213 22.9953C21.213 22.9764 21.213 22.9527 21.213 22.9243C21.213 21.8717 21.6884 20.9185 22.4832 20.3744C22.5163 20.3508 28.4369 16.3012 28.4369 16.3012C28.865 16.0079 29.3594 15.8542 29.868 15.8542C30.8472 15.8542 31.7839 16.4313 32.3138 17.3585C32.6071 17.8742 32.7632 18.4608 32.7632 19.0569C32.7632 20.1095 32.2878 21.0628 31.4906 21.6092L30.2393 22.4654C30.069 22.5813 29.9602 22.7706 29.9508 22.9598L29.9484 23L29.9508 23.0355C29.9602 23.2271 30.069 23.4163 30.2393 23.5322L31.4906 24.3885C32.2878 24.9349 32.7632 25.8882 32.7632 26.9408C32.7632 27.5392 32.6071 28.1258 32.3138 28.6415C31.7839 29.5687 30.8449 30.1459 29.8656 30.1459ZM29.3287 28.1755C29.4895 28.2867 29.6764 28.3434 29.8703 28.3434C30.2725 28.3434 30.6651 28.0951 30.8946 27.693C31.2517 27.0685 31.1193 26.2714 30.5989 25.9142L29.3476 25.0579C28.716 24.625 28.3186 23.9036 28.2855 23.1254C28.2832 23.0852 28.2832 23.0426 28.2832 23C28.2832 22.9574 28.2832 22.9149 28.2855 22.8747C28.3186 22.0964 28.716 21.375 29.3476 20.9421L30.5989 20.0858C31.1193 19.731 31.2517 18.9315 30.8946 18.3071C30.6651 17.9073 30.2725 17.6566 29.8703 17.6566C29.6764 17.6566 29.4895 17.7157 29.3287 17.8245L23.4199 21.8694C23.4128 21.8765 23.4033 21.8835 23.3962 21.8883C23.0462 22.1248 22.8617 22.534 22.883 22.9929C22.8617 23.4636 23.0462 23.8728 23.3773 24.0999C23.3892 24.107 23.3962 24.1094 23.4033 24.1165C23.4104 24.1212 23.4152 24.1259 23.4223 24.133L29.3287 28.1755Z" fill="url(#paint0_linear_6356_12807)"></path><path d="M50.9526 18.3481V28.1579C50.9526 28.7566 50.4625 29.2615 49.871 29.2615C49.2725 29.2615 48.7894 28.7686 48.7894 28.1579V27.463C47.7337 28.7181 46.2115 29.5067 44.5195 29.5067C41.3313 29.5067 38.7439 26.7081 38.7439 23.253C38.7439 19.8003 41.3289 16.9993 44.5195 16.9993C46.2115 16.9993 47.7337 17.7879 48.7894 19.043V18.3481C48.7894 17.7494 49.2795 17.2445 49.871 17.2445C50.4672 17.2445 50.9526 17.7398 50.9526 18.3481ZM48.8365 23.253C48.8365 20.9496 47.0598 19.0838 44.8706 19.0838C42.6815 19.0838 40.9048 20.9496 40.9048 23.253C40.9048 25.554 42.6792 27.4221 44.8706 27.4221C47.0621 27.4221 48.8365 25.554 48.8365 23.253Z" fill="#4598D3"></path><path d="M65.8029 18.3329V28.4986C65.8029 32.2013 63.0129 34.6465 59.3109 34.6465H59.2779C57.7674 34.6417 56.1768 34.2474 54.5485 33.4732C54.0065 33.2159 53.7732 32.5595 54.023 32.0065C54.2752 31.4535 54.9185 31.2131 55.4605 31.4703C56.8036 32.1075 58.0902 32.4321 59.285 32.4369C61.877 32.4441 63.6373 30.9053 63.6373 28.4961V27.4454C62.5816 28.7005 61.0594 29.4891 59.3674 29.4891C56.1768 29.4891 53.5918 26.6905 53.5918 23.2354C53.5918 19.7828 56.1768 16.9817 59.3674 16.9817C61.0594 16.9817 62.5816 17.7703 63.6373 19.0254V18.3305C63.6373 17.7198 64.1204 17.2269 64.7189 17.2269C65.3198 17.2293 65.8029 17.7246 65.8029 18.3329ZM63.6891 23.2378C63.6891 20.9345 61.9124 19.0687 59.7233 19.0687C57.5341 19.0687 55.7574 20.9345 55.7574 23.2378C55.7574 25.5412 57.5318 27.407 59.7233 27.407C61.9124 27.407 63.6891 25.5412 63.6891 23.2378Z" fill="#4598D3"></path><path d="M69.1655 13.9848C69.1655 13.2731 69.7311 12.6985 70.4262 12.6985C71.1237 12.6985 71.6869 13.2755 71.6869 13.9848C71.6869 14.6965 71.1214 15.2711 70.4262 15.2711C69.7311 15.2711 69.1655 14.6941 69.1655 13.9848ZM69.347 28.1489V18.3367C69.347 17.7332 69.8418 17.2331 70.4286 17.2331C71.0248 17.2331 71.5102 17.726 71.5102 18.3367V28.1489C71.5102 28.7596 71.0271 29.2525 70.4286 29.2525C69.83 29.2525 69.347 28.7572 69.347 28.1489Z" fill="#4598D3"></path><path d="M75.2947 28.1492V13.1869C75.2947 12.5834 75.7895 12.0833 76.3763 12.0833C76.9725 12.0833 77.4579 12.5785 77.4579 13.1869V28.1492C77.4579 28.7599 76.9725 29.2528 76.3763 29.2528C75.7777 29.2528 75.2947 28.7575 75.2947 28.1492Z" fill="#4598D3"></path><path d="M92.598 23.2452C92.598 26.6978 89.8552 29.4989 86.4689 29.4989C83.0851 29.4989 80.3398 26.7002 80.3398 23.2452C80.3398 19.7925 83.0827 16.9915 86.4689 16.9915C89.8528 16.9915 92.598 19.7925 92.598 23.2452ZM90.4348 23.2452C90.4348 20.9418 88.6581 19.076 86.4689 19.076C84.2798 19.076 82.5031 20.9418 82.5031 23.2452C82.5031 25.5486 84.2775 27.4143 86.4689 27.4143C88.6581 27.4143 90.4348 25.5486 90.4348 23.2452Z" fill="#4598D3"></path><path d="M106.772 22.3844V28.1501C106.772 28.7608 106.289 29.2537 105.69 29.2537C105.094 29.2537 104.609 28.7608 104.609 28.1501V22.8653C104.609 20.7735 102.995 19.076 101.006 19.076C99.0169 19.076 97.4027 20.7711 97.4027 22.8653V28.1501C97.4027 28.7608 96.9196 29.2537 96.3211 29.2537C95.7226 29.2537 95.2395 28.7584 95.2395 28.1501V18.3403C95.2395 17.7368 95.7344 17.2367 96.3211 17.2367C96.9196 17.2367 97.4027 17.7296 97.4027 18.3403V19.0496C98.3594 17.7993 99.8487 16.9963 101.524 16.9915C104.411 16.9867 106.772 19.4391 106.772 22.3844Z" fill="#4598D3"></path><path d="M126.643 22.2605V27.9574C126.643 28.5489 126.15 29.0478 125.556 29.0478C124.956 29.0478 124.469 28.5608 124.469 27.9574V22.7356C124.469 20.6687 122.846 18.9915 120.848 18.9915C118.849 18.9915 117.227 20.6664 117.227 22.7356V27.9574C117.227 28.5608 116.741 29.0478 116.14 29.0478C115.538 29.0478 115.053 28.5608 115.053 27.9574V13.1734C115.053 12.5772 115.55 12.083 116.14 12.083C116.741 12.083 117.227 12.5724 117.227 13.1734V18.9654C118.188 17.73 119.685 16.9365 121.369 16.9318C124.27 16.927 126.643 19.3502 126.643 22.2605Z" fill="#4598D3"></path><path d="M141.501 23.0761V23.3707C141.501 23.9385 141.041 24.3994 140.475 24.3994H131.902C132.404 26.0838 133.873 27.2312 135.616 27.2312C136.731 27.2312 138.124 26.787 139.573 26.0553C140.08 25.7987 140.695 26.003 140.951 26.5114C141.207 27.0198 141.003 27.6375 140.496 27.894C138.69 28.8087 137.003 29.2909 135.618 29.2909C132.201 29.2909 129.548 26.5423 129.548 23.1332C129.548 19.6884 132.234 16.9326 135.521 16.9326C138.848 16.9326 141.501 19.7597 141.501 23.0761ZM139.263 22.3397C138.941 20.4629 137.38 18.9923 135.516 18.9923C133.643 18.9923 132.115 20.4629 131.786 22.3397H139.263Z" fill="#4598D3"></path><path d="M156.183 18.2732V27.966C156.183 28.5575 155.691 29.0564 155.096 29.0564C154.495 29.0564 154.009 28.5694 154.009 27.966V27.2794C152.948 28.5195 151.419 29.2988 149.718 29.2988C146.514 29.2988 143.914 26.5335 143.914 23.1196C143.914 19.7081 146.512 16.9404 149.718 16.9404C151.419 16.9404 152.948 17.7197 154.009 18.9598V18.2732C154.009 17.6816 154.502 17.1828 155.096 17.1828C155.698 17.1828 156.183 17.6721 156.183 18.2732ZM154.059 23.1196C154.059 20.8437 152.274 19.0002 150.073 19.0002C147.873 19.0002 146.088 20.8437 146.088 23.1196C146.088 25.3931 147.871 27.239 150.073 27.239C152.274 27.239 154.059 25.3931 154.059 23.1196Z" fill="#4598D3"></path><path d="M159.804 27.9574V13.1734C159.804 12.5772 160.302 12.083 160.891 12.083C161.491 12.083 161.978 12.5724 161.978 13.1734V27.9574C161.978 28.5608 161.493 29.0478 160.891 29.0478C160.292 29.0478 159.804 28.5584 159.804 27.9574Z" fill="#4598D3"></path><path d="M172.943 28.9369C172.271 29.1744 171.607 29.2909 170.98 29.2909C170.085 29.2909 169.263 29.0509 168.6 28.5805C167.676 27.9248 167.148 26.8677 167.148 25.6846V19.3557H166.144C165.578 19.3557 165.119 18.8948 165.119 18.3271C165.119 17.7593 165.578 17.2984 166.144 17.2984H167.148V14.6305C167.148 14.0271 167.634 13.54 168.235 13.54C168.834 13.54 169.322 14.0271 169.322 14.6305V17.296H171.752C172.318 17.296 172.777 17.7569 172.777 18.3247C172.777 18.8925 172.318 19.3533 171.752 19.3533H169.322V25.6798C169.322 26.1621 169.507 26.5469 169.857 26.7964C170.402 27.1836 171.264 27.2121 172.221 26.8748C172.787 26.6752 173.407 26.9746 173.606 27.5423C173.805 28.1101 173.509 28.7373 172.943 28.9369Z" fill="#4598D3"></path><path d="M187.915 22.2605V27.9574C187.915 28.5489 187.422 29.0478 186.828 29.0478C186.229 29.0478 185.741 28.5608 185.741 27.9574V22.7356C185.741 20.6687 184.119 18.9915 182.12 18.9915C180.121 18.9915 178.499 20.6664 178.499 22.7356V27.9574C178.499 28.5608 178.011 29.0478 177.412 29.0478C176.81 29.0478 176.325 28.5608 176.325 27.9574V13.1734C176.325 12.5772 176.822 12.083 177.412 12.083C178.011 12.083 178.499 12.5724 178.499 13.1734V18.9654C179.46 17.73 180.957 16.9365 182.641 16.9318C185.539 16.927 187.915 19.3502 187.915 22.2605Z" fill="#4598D3"></path><path d="M70.8322 15.3868C71.533 15.3868 72.1012 14.8187 72.1012 14.1178C72.1012 13.417 71.533 12.8489 70.8322 12.8489C70.1314 12.8489 69.5632 13.417 69.5632 14.1178C69.5632 14.8187 70.1314 15.3868 70.8322 15.3868Z" fill="#60BC64"></path><defs><linearGradient id="paint0_linear_6356_12807" x1="10.9382" y1="10.1078" x2="25.8249" y2="35.8924" gradientUnits="userSpaceOnUse"><stop stop-color="#99D2B3"></stop><stop offset="0.266" stop-color="#5FBB63"></stop><stop offset="0.793" stop-color="#4398D3"></stop></linearGradient></defs></svg>