<svg width="16" height="16" viewBox="0 0 16 16" fill="none" xmlns="http://www.w3.org/2000/svg"><g clip-path="url(#clip0_3119_126278)"><path d="M15.5024 10.7829C15.824 9.91631 16 8.9789 16 8.00034C16 7.02178 15.824 6.08437 15.5024 5.21775L8 4.52209L0.497594 5.21775C0.176 6.08437 0 7.02178 0 8.00034C0 8.9789 0.176 9.91631 0.497594 10.7829L8 11.4786L15.5024 10.7829Z" fill="#6DA544"></path><path d="M15.5029 5.21716C14.3725 2.17076 11.4402 -0.000244141 8.00045 -0.000244141C4.56073 -0.000244141 1.62839 2.17076 0.498047 5.21716H15.5029Z" fill="#FFDA44"></path><path d="M8.00045 16.0005C11.4402 16.0005 14.3725 13.8295 15.5029 10.7831H0.498047C1.62839 13.8295 4.56073 16.0005 8.00045 16.0005Z" fill="#D80027"></path></g><defs><clipPath id="clip0_3119_126278"><rect width="16" height="16" fill="white"></rect></clipPath></defs></svg>