<svg width="56" height="56" viewBox="0 0 56 56" fill="none" xmlns="http://www.w3.org/2000/svg"><g clip-path="url(#clip0_926_95956)"><rect x="0.5" y="0.179688" width="55" height="55" rx="27.5" fill="url(#paint0_linear_926_95956)"></rect><path d="M13.5 14.1797H37C40.5899 14.1797 43.5 17.0898 43.5 20.6797V20.6797C43.5 24.2695 40.5899 27.1797 37 27.1797H20C16.4101 27.1797 13.5 30.0898 13.5 33.6797V33.6797C13.5 37.2695 16.4101 40.1797 20 40.1797H43.5" stroke="url(#paint1_linear_926_95956)" stroke-width="7" stroke-linecap="round" stroke-linejoin="round"></path><path d="M12.5 40.1797L43.5 40.1797" stroke="url(#paint2_linear_926_95956)" stroke-width="7" stroke-linecap="round" stroke-linejoin="round"></path><path fill-rule="evenodd" clip-rule="evenodd" d="M10.5 14.1797C10.5 12.5228 11.8581 11.1797 13.5333 11.1797H26.4667C28.1419 11.1797 29.5 12.5228 29.5 14.1797C29.5 15.8365 28.1419 17.1797 26.4667 17.1797H13.5333C11.8581 17.1797 10.5 15.8365 10.5 14.1797Z" fill="url(#paint3_linear_926_95956)"></path><circle cx="28.5" cy="14.1797" r="5" transform="rotate(-180 28.5 14.1797)" fill="url(#paint4_linear_926_95956)"></circle><circle cx="41.5" cy="40.1797" r="6" transform="rotate(-180 41.5 40.1797)" fill="url(#paint5_linear_926_95956)"></circle></g><defs><linearGradient id="paint0_linear_926_95956" x1="-18.5" y1="-11.8203" x2="41.5" y2="48.1797" gradientUnits="userSpaceOnUse"><stop stop-color="#E7E7E7"></stop><stop offset="1" stop-color="#E7E7E7" stop-opacity="0"></stop></linearGradient><linearGradient id="paint1_linear_926_95956" x1="41" y1="37.1797" x2="12" y2="12.1797" gradientUnits="userSpaceOnUse"><stop stop-color="#DDDDDD"></stop><stop offset="1" stop-color="#DDDDDD" stop-opacity="0"></stop></linearGradient><linearGradient id="paint2_linear_926_95956" x1="11.9746" y1="40.1797" x2="43.5" y2="40.1797" gradientUnits="userSpaceOnUse"><stop stop-color="#DDDDDD" stop-opacity="0"></stop><stop offset="1" stop-color="#42A6E3"></stop></linearGradient><linearGradient id="paint3_linear_926_95956" x1="31.9149" y1="14.3562" x2="8.55" y2="14.3562" gradientUnits="userSpaceOnUse"><stop stop-color="#535353"></stop><stop offset="1" stop-color="#535353" stop-opacity="0"></stop></linearGradient><linearGradient id="paint4_linear_926_95956" x1="30.6875" y1="13.4444" x2="-1.85714" y2="13.4444" gradientUnits="userSpaceOnUse"><stop stop-color="#181B2B"></stop><stop offset="1" stop-color="#999999" stop-opacity="0.15"></stop></linearGradient><linearGradient id="paint5_linear_926_95956" x1="58.1154" y1="38.5245" x2="18.8846" y2="38.5269" gradientUnits="userSpaceOnUse"><stop offset="0.192654" stop-color="#69E2D3"></stop><stop offset="0.753129" stop-color="#125EF6"></stop><stop offset="1" stop-color="#2A2774"></stop></linearGradient><clipPath id="clip0_926_95956"><rect width="55" height="55" fill="white" transform="translate(0.5 0.179688)"></rect></clipPath></defs></svg>