<svg width="113" height="37" viewBox="0 0 113 37" fill="none" xmlns="http://www.w3.org/2000/svg"><g clip-path="url(#clip0_755_121242)"><path d="M38.1394 2.89258C37.989 3.4318 37.7753 3.94893 37.5857 4.47446C36.3887 7.78893 35.1863 11.1016 33.9857 14.4148C32.6822 18.0117 31.3783 21.6082 30.0743 25.2051C30.0018 25.4057 29.9332 25.6077 29.854 25.8062C29.5858 26.4806 29.0633 26.8378 28.3429 26.8378C25.5798 26.8387 22.8167 26.8378 20.054 26.8378H19.8627C19.8465 26.7958 19.8711 26.7918 19.8887 26.7861C20.4305 26.6115 20.7788 26.2455 20.9714 25.712C22.0458 22.7366 23.1228 19.762 24.2003 16.7874C25.3929 13.4946 26.5865 10.2026 27.7796 6.90982C28.2181 5.69921 28.6547 4.48816 29.0941 3.27799C29.1416 3.14716 29.2027 3.0212 29.2577 2.89302C32.2187 2.89302 35.1797 2.89302 38.1403 2.89302L38.1394 2.89258Z" fill="#747680"></path><path d="M0.892578 34.7874C1.14325 34.112 1.39832 33.4384 1.64416 32.7613C3.32674 28.1213 5.00713 23.4809 6.68795 18.8404C7.50198 16.5929 8.3248 14.3481 9.12519 12.0957C9.37278 11.3987 9.95109 10.9129 10.7875 10.92C13.4983 10.9434 16.2095 10.9288 18.9208 10.9288C18.9933 10.9288 19.0659 10.9288 19.1411 10.9288C19.1358 10.9545 19.1367 10.9748 19.131 10.9766C18.5624 11.1786 18.2365 11.5905 18.0337 12.1536C16.1827 17.2877 14.3207 22.4183 12.4609 27.5494C11.5813 29.9768 10.6987 32.4029 9.81784 34.8298C9.75055 34.8745 9.67535 34.8533 9.60411 34.8533C6.77195 34.8546 3.94023 34.8546 1.10807 34.8533C1.03638 34.8533 0.961623 34.8718 0.893018 34.832C0.893018 34.8175 0.893018 34.8024 0.893018 34.7878L0.892578 34.7874Z" fill="#747680"></path><path d="M112.764 30.8113C112.749 30.8135 112.735 30.8152 112.721 30.8174C112.641 30.771 112.625 30.6937 112.618 30.6101C112.611 30.5072 112.611 30.4042 112.611 30.3012C112.611 25.5343 112.61 20.7671 112.613 16.0002C112.613 15.8234 112.559 15.6272 112.72 15.48C112.734 15.4809 112.749 15.4813 112.763 15.4822V30.8113H112.764Z" fill="#747680"></path><path d="M50.4673 23.5047C50.5184 23.3937 50.4977 23.3058 50.4977 23.2214C50.4986 19.5042 50.4994 15.7867 50.4937 12.0695C50.4937 11.8786 50.5272 11.8048 50.7396 11.8101C51.3838 11.826 52.029 11.822 52.6737 11.8118C52.854 11.8088 52.9072 11.8569 52.9063 12.0426C52.8989 13.6841 52.9019 15.3257 52.9019 16.9668C52.9019 20.1685 52.9019 23.3707 52.9019 26.5725C52.9019 26.7635 52.807 26.8591 52.617 26.8594C51.6789 26.8594 50.7413 26.8554 49.8033 26.8633C49.6291 26.8647 49.5302 26.8147 49.4409 26.6578C47.2886 22.8717 45.1307 19.0892 42.9736 15.3062C42.9305 15.2311 42.886 15.1564 42.7963 15.0852C42.7963 15.1674 42.7963 15.2496 42.7963 15.3314C42.7963 19.0857 42.7937 22.8395 42.7998 26.5937C42.7998 26.8041 42.7515 26.8695 42.536 26.8647C41.8987 26.8501 41.2611 26.8554 40.6238 26.862C40.4761 26.8638 40.4224 26.828 40.4229 26.6675C40.4268 21.78 40.4268 16.8925 40.4229 12.0046C40.4229 11.8454 40.4721 11.811 40.6216 11.8118C41.5887 11.818 42.5562 11.8194 43.5233 11.811C43.6838 11.8096 43.7682 11.8609 43.8483 12.0001C46.0014 15.7522 48.1594 19.5011 50.3169 23.2505C50.3627 23.3301 50.4111 23.4079 50.4682 23.5038L50.4673 23.5047Z" fill="#747680"></path><path d="M18.8848 26.5019C18.2506 26.5063 17.7084 26.1284 17.4748 25.4959C17.0746 24.4126 16.685 23.3258 16.2905 22.2402C16.1225 21.777 15.9567 21.313 15.7848 20.8511C15.739 20.7278 15.736 20.6173 15.7826 20.4895C16.773 17.766 17.7585 15.0407 18.7471 12.3167C18.9802 11.6745 19.5475 11.2573 20.1742 11.2542C20.822 11.2511 21.3805 11.6643 21.618 12.3176C22.1677 13.8318 22.7165 15.3461 23.2707 16.8586C23.33 17.0204 23.3305 17.1644 23.2715 17.3267C22.2908 20.0223 21.315 22.7198 20.3373 25.4168C20.0924 26.0926 19.5497 26.4966 18.8848 26.5015V26.5019Z" fill="#747680"></path><path d="M71.2157 27.0938C69.8053 27.0779 68.6025 26.9152 67.4054 26.6951C67.27 26.6704 67.2317 26.6054 67.2335 26.4723C67.2401 25.9057 67.2441 25.3386 67.2317 24.772C67.2278 24.5833 67.2867 24.5515 67.4551 24.5899C68.1755 24.7543 68.898 24.9104 69.6316 25.0032C70.6035 25.126 71.5732 25.1495 72.5315 24.8936C72.8085 24.8197 73.0733 24.7128 73.3055 24.5386C73.9137 24.083 73.9216 23.2759 73.3182 22.8083C72.9444 22.5188 72.5016 22.3866 72.0512 22.281C71.2689 22.0975 70.4702 21.9813 69.7081 21.7126C69.0964 21.4969 68.5066 21.2414 68.0255 20.7893C67.3289 20.1342 67.1139 19.3015 67.1847 18.3795C67.3175 16.6536 68.5066 15.881 69.6936 15.5278C70.7737 15.206 71.8793 15.2286 72.9849 15.2821C73.7897 15.321 74.5866 15.4377 75.3834 15.5574C75.5527 15.5831 75.5778 15.6511 75.5761 15.7974C75.5695 16.3349 75.5664 16.8723 75.5774 17.4094C75.5809 17.5884 75.5334 17.6361 75.3579 17.6007C74.7479 17.4779 74.1345 17.3775 73.5153 17.3157C72.6238 17.2268 71.7324 17.1809 70.8485 17.3815C70.5833 17.4416 70.3291 17.5349 70.1035 17.6931C69.4997 18.1157 69.5058 18.8856 70.1228 19.2865C70.6312 19.6171 71.2201 19.7223 71.7966 19.8562C72.5794 20.0388 73.3719 20.1846 74.1257 20.4763C74.6213 20.6681 75.0866 20.9121 75.4731 21.2865C76.186 21.9769 76.3861 22.8445 76.2841 23.7935C76.1042 25.4712 75.0303 26.338 73.5232 26.7875C72.7087 27.0301 71.8696 27.0876 71.2165 27.0933L71.2157 27.0938Z" fill="#747680"></path><path fill-rule="evenodd" clip-rule="evenodd" d="M88.1331 20.3349C88.1332 19.8463 88.1332 19.3577 88.1332 18.869L88.1328 18.8699C88.1328 18.3797 88.1327 17.8895 88.1327 17.3993C88.1324 15.3128 88.1321 13.2266 88.1367 11.1404C88.1372 10.9548 88.102 10.8858 87.8988 10.8898C87.2176 10.9035 86.536 10.9031 85.8547 10.8898C85.6547 10.8858 85.6124 10.9504 85.6133 11.1391C85.619 12.1375 85.6183 13.1357 85.6177 14.1338C85.6175 14.4533 85.6173 14.7728 85.6173 15.0923C85.6173 15.26 85.6175 15.342 85.5769 15.3778C85.5366 15.4134 85.456 15.4034 85.2949 15.3866C84.265 15.2792 83.2319 15.2248 82.2068 15.4012C80.3699 15.7168 79.0057 16.6865 78.2409 18.4226C77.6454 19.7742 77.5368 21.1957 77.7774 22.6374C78.0157 24.0664 78.693 25.2483 79.8927 26.0934C81.0383 26.9 82.3405 27.1966 83.7104 27.2191C85.1194 27.2421 86.5148 27.0595 87.9067 26.8527C88.0967 26.8244 88.1372 26.7572 88.1372 26.5764C88.1326 24.4958 88.1328 22.4155 88.1331 20.3349ZM85.6161 22.1849C85.6162 21.8954 85.6164 21.6059 85.6164 21.3164L85.6159 21.3172V19.5068V17.6523C85.6159 17.643 85.6161 17.6338 85.6162 17.6246C85.6175 17.5316 85.6188 17.4453 85.4787 17.4264C84.6867 17.319 83.8951 17.2372 83.0942 17.3385C81.752 17.5077 80.8386 18.2914 80.4833 19.6085C80.2485 20.4792 80.2177 21.3636 80.354 22.2543C80.5809 23.7362 81.5533 24.8103 82.9812 25.1418C83.6815 25.3041 84.3872 25.2532 85.093 25.2023C85.1982 25.1947 85.3035 25.1871 85.4088 25.1802C85.5851 25.1687 85.6203 25.0993 85.6194 24.9371C85.6151 24.0196 85.6156 23.1023 85.6161 22.1849Z" fill="#747680"></path><path fill-rule="evenodd" clip-rule="evenodd" d="M112.721 30.8175C112.72 25.705 112.72 20.5925 112.72 15.48H112.722C112.617 15.4488 112.509 15.4468 112.402 15.4447C112.363 15.444 112.324 15.4432 112.285 15.4411C112.065 15.4292 111.845 15.4161 111.625 15.4029C111.121 15.373 110.617 15.343 110.113 15.3267C110.082 15.3256 110.051 15.3246 110.02 15.3236C108.8 15.2842 107.577 15.2447 106.375 15.5304C104.626 15.9459 103.327 16.9231 102.707 18.6526C102.062 20.4511 102.099 22.2641 102.831 24.0347C103.383 25.3664 104.35 26.28 105.724 26.7446C107.086 27.2055 108.478 27.2568 109.889 27.0712C110.04 27.0514 110.114 27.0398 110.15 27.0716C110.185 27.1023 110.185 27.1734 110.185 27.3165C110.185 27.8073 110.185 28.298 110.185 28.7887C110.185 29.77 110.185 30.7512 110.185 31.7324C110.185 31.9702 110.187 31.9706 110.407 31.8729C110.556 31.8067 110.705 31.7409 110.854 31.6751C111.207 31.5195 111.56 31.3638 111.91 31.2029C111.992 31.1652 112.076 31.1304 112.159 31.0956C112.352 31.015 112.545 30.9345 112.721 30.8175ZM110.214 21.9254C110.214 21.6842 110.214 21.4431 110.214 21.202C110.214 20.9594 110.214 20.7168 110.214 20.4742C110.214 19.5026 110.215 18.5311 110.213 17.5596C110.213 17.5452 110.214 17.5305 110.215 17.5157C110.22 17.4313 110.224 17.3468 110.081 17.3408C109.943 17.3349 109.804 17.3276 109.666 17.3203C108.971 17.2837 108.277 17.2471 107.584 17.3801C106.339 17.6193 105.455 18.2937 105.079 19.5384C104.774 20.5448 104.784 21.5702 105.01 22.5912C105.299 23.8924 106.056 24.7565 107.379 25.0509C108.276 25.2508 109.178 25.1502 110.078 25.0498L110.089 25.0486C110.226 25.0334 110.221 24.9513 110.215 24.8691C110.214 24.8533 110.213 24.8376 110.213 24.8223C110.215 23.8565 110.214 22.8909 110.214 21.9254Z" fill="#747680"></path><path fill-rule="evenodd" clip-rule="evenodd" d="M65.0359 23.5587C65.0362 23.2257 65.0365 22.8926 65.0365 22.5595V22.5586C65.0365 22.247 65.0364 21.9354 65.0364 21.6238C65.0363 21.0008 65.0362 20.3778 65.0365 19.7546C65.0365 19.7191 65.0366 19.6837 65.0366 19.6482C65.0374 19.1391 65.0382 18.6303 64.9617 18.125C64.7665 16.8361 64.0879 15.9553 62.8226 15.5681C62.0297 15.3254 61.2135 15.2777 60.392 15.2578C58.8783 15.2211 57.3791 15.336 55.8957 15.6481C55.7906 15.6702 55.726 15.6901 55.7277 15.8218C55.7348 16.3955 55.733 16.9696 55.7291 17.5438C55.7282 17.6591 55.7541 17.698 55.879 17.6746C56.7634 17.5084 57.6491 17.3471 58.5467 17.2719C59.4689 17.1946 60.3907 17.1858 61.3063 17.3409C62.0649 17.4695 62.3824 17.8355 62.4677 18.6116C62.4894 18.8066 62.4934 19.0014 62.4973 19.196C62.4996 19.3098 62.5019 19.4235 62.5078 19.5371C62.5161 19.6998 62.455 19.7356 62.3068 19.7254C61.6858 19.683 61.0631 19.6693 60.4404 19.6728C59.406 19.6786 58.3756 19.7214 57.3782 20.0339C56.3315 20.3619 55.5166 20.9559 55.1631 22.0498C54.9581 22.6837 54.9485 23.3347 55.0232 23.9924C55.1807 25.3789 55.8865 26.3172 57.2243 26.7539C57.9996 27.0072 58.8022 27.0735 59.6074 27.0854C61.3371 27.1106 63.0628 27.0364 64.7836 26.8476C64.9973 26.8242 65.0422 26.7566 65.0409 26.5555C65.0343 25.5568 65.0351 24.5578 65.0359 23.5587ZM62.6573 23.8375C62.6575 23.6889 62.6578 23.5403 62.6578 23.3917L62.6582 23.3913C62.6582 23.244 62.658 23.0968 62.6579 22.9496C62.6575 22.5378 62.657 22.1262 62.66 21.7144C62.6608 21.5937 62.6415 21.5323 62.4959 21.5257C61.6617 21.4885 60.8274 21.4536 59.9932 21.4925C59.4738 21.5168 58.957 21.5765 58.4667 21.767C57.745 22.0472 57.4037 22.548 57.3989 23.3197C57.3936 24.1758 57.7424 24.7398 58.4553 25.0311C58.8383 25.1875 59.2407 25.2529 59.6497 25.2923C60.4005 25.3643 61.1492 25.3219 61.898 25.2795C62.0917 25.2685 62.2854 25.2575 62.4792 25.2485C62.6292 25.2415 62.6613 25.1809 62.66 25.0465C62.6561 24.6435 62.6567 24.2405 62.6573 23.8375Z" fill="#747680"></path><path fill-rule="evenodd" clip-rule="evenodd" d="M100.218 23.5244C100.218 23.1998 100.219 22.8751 100.219 22.5504L100.219 22.5499C100.219 22.2586 100.219 21.9672 100.219 21.6757C100.219 20.9954 100.218 20.315 100.22 19.6346C100.22 19.1267 100.219 18.6189 100.142 18.115C99.9433 16.8244 99.2599 15.9488 97.9934 15.5652C97.1996 15.3247 96.3829 15.2783 95.5614 15.2575C94.0618 15.2195 92.5766 15.3398 91.106 15.6399C90.9759 15.6664 90.9033 15.6982 90.9068 15.8582C90.9147 16.2289 90.9133 16.5996 90.9119 16.9703C90.9113 17.1149 90.9108 17.2596 90.9108 17.4043C90.9111 17.5952 91.0014 17.6761 91.1817 17.6469C91.289 17.6297 91.396 17.6105 91.503 17.5913C91.5328 17.586 91.5626 17.5806 91.5924 17.5753C92.7398 17.3725 93.8903 17.1926 95.0605 17.2248C95.1044 17.226 95.1483 17.2271 95.1921 17.2283C95.7335 17.242 96.2759 17.2557 96.8003 17.4237C97.244 17.5661 97.5127 17.86 97.6024 18.3263C97.6674 18.6644 97.6747 19.0047 97.682 19.3459C97.6834 19.4088 97.6847 19.4717 97.6864 19.5347C97.6908 19.6938 97.6402 19.7367 97.4881 19.7261C96.8667 19.6827 96.244 19.6695 95.6208 19.673C94.586 19.6788 93.5556 19.7216 92.5577 20.0346C91.6179 20.3294 90.847 20.839 90.4437 21.7848C90.1311 22.5172 90.1108 23.2863 90.2107 24.062C90.3734 25.3278 91.0089 26.2365 92.2235 26.6914C93.0525 27.0021 93.9224 27.0728 94.7949 27.0852C96.525 27.1099 98.2515 27.0365 99.9728 26.8465C100.175 26.8244 100.224 26.7643 100.223 26.5703C100.217 25.5549 100.218 24.5397 100.218 23.5244ZM97.8352 23.819C97.8353 23.6719 97.8355 23.5249 97.8355 23.3778H97.8359C97.8359 23.24 97.8359 23.1021 97.8358 22.9643C97.8357 22.5505 97.8355 22.1368 97.8368 21.723L97.8368 21.7209C97.8373 21.6114 97.8376 21.5324 97.6825 21.5254C96.8337 21.4883 95.9849 21.452 95.1362 21.494C94.6322 21.5188 94.13 21.5802 93.6532 21.7636C92.9298 22.0421 92.5828 22.5442 92.5775 23.3106C92.5714 24.1813 92.9192 24.74 93.6466 25.0343C94.024 25.1873 94.4189 25.2522 94.82 25.2911C95.5787 25.3647 96.3355 25.3216 97.0924 25.2784C97.2852 25.2674 97.4781 25.2564 97.671 25.2474C97.814 25.2407 97.8381 25.1762 97.8373 25.0547C97.8343 24.6426 97.8348 24.2309 97.8352 23.819Z" fill="#747680"></path></g><defs><clipPath id="clip0_755_121242"><rect width="111.879" height="32" fill="white" transform="translate(0.887695 2.88672)"></rect></clipPath></defs></svg>