<svg width="188" height="46" viewBox="0 0 188 46" fill="none" xmlns="http://www.w3.org/2000/svg"><g><path d="M51.2002 23.2745C51.2002 19.4582 48.8306 17.2823 45.7377 17.2823C42.6277 17.2823 40.2753 19.4582 40.2753 23.2745C40.2753 27.0737 42.6277 29.2667 45.7377 29.2667C48.8306 29.2667 51.2002 27.0908 51.2002 23.2745ZM48.6996 23.2745C48.6996 25.7465 47.5263 27.0851 45.7377 27.0851C43.9435 27.0851 42.7758 25.7465 42.7758 23.2745C42.7758 20.8025 43.9435 19.4639 45.7377 19.4639C47.5263 19.4639 48.6996 20.8025 48.6996 23.2745Z" fill="#3D3D3D"></path><path d="M55.4331 17.4418V29.1071H57.8254V21.4859H57.9223L60.9411 29.0502H62.5702L65.589 21.5144H65.6858V29.1071H68.0782V17.4418H65.0364L61.8239 25.2794H61.6873L58.4747 17.4418H55.4331Z" fill="#3D3D3D"></path><path d="M82.2734 17.4418H79.8184V24.7782H79.7159L74.6807 17.4418H72.5162V29.1071H74.9826V21.765H75.068L80.1431 29.1071H82.2734V17.4418Z" fill="#3D3D3D"></path><path d="M89.1835 17.4418H86.7171V29.1071H89.1835V17.4418Z" fill="#3D3D3D"></path><path d="M95.7261 17.4418H92.9863L97.0134 29.1071H100.192L104.213 17.4418H101.479L98.6537 26.3047H98.5455L95.7261 17.4418Z" fill="#3D3D3D"></path><path d="M118.085 23.2745C118.085 19.4582 115.716 17.2823 112.622 17.2823C109.512 17.2823 107.16 19.4582 107.16 23.2745C107.16 27.0737 109.512 29.2667 112.622 29.2667C115.716 29.2667 118.085 27.0908 118.085 23.2745ZM115.585 23.2745C115.585 25.7465 114.411 27.0851 112.622 27.0851C110.828 27.0851 109.661 25.7465 109.661 23.2745C109.661 20.8025 110.828 19.4639 112.622 19.4639C114.411 19.4639 115.585 20.8025 115.585 23.2745Z" fill="#3D3D3D"></path><path d="M122.318 29.1071H124.784V24.9718H126.585L128.794 29.1071H131.516L129.039 24.5731C130.366 24.0035 131.101 22.8472 131.101 21.2524C131.101 18.9341 129.568 17.4418 126.92 17.4418H122.318V29.1071ZM124.784 22.9896V19.4581H126.447C127.872 19.4581 128.56 20.0904 128.56 21.2524C128.56 22.4086 127.872 22.9896 126.458 22.9896H124.784Z" fill="#3D3D3D"></path><path d="M135.25 29.1071H143.133V27.0737H137.716V24.2883H142.706V22.2549H137.716V19.4752H143.11V17.4418H135.25V29.1071Z" fill="#3D3D3D"></path><path d="M13.3714 28.2692V20.3106C13.3714 19.6301 14.1702 19.2455 14.7027 19.7189L17.1584 23.2988C17.6613 23.713 18.3714 23.713 18.8744 23.2988L21.2708 19.7484C21.8034 19.3047 22.6022 19.6597 22.6022 20.3402V24.5414C22.6022 26.5828 23.9632 28.2396 26.0046 28.2396H26.0637C27.8093 28.2396 29.3181 27.0562 29.7323 25.3698C29.9394 24.4822 30.117 23.565 30.117 22.855C30.0874 15.9023 24.1998 10.636 17.1584 11.1094C11.182 11.5236 6.35956 16.3461 5.94537 22.3224C5.47199 29.3639 11.0341 35.2514 18.0164 35.2514" stroke="#3D3D3D" stroke-width="1.94422" stroke-miterlimit="10"></path></g></svg>