<svg width="56" height="55" viewBox="0 0 56 55" fill="none" xmlns="http://www.w3.org/2000/svg"><g clip-path="url(#clip0_1249_97784)"><rect x="55.5" y="55" width="55" height="55" rx="27.5" transform="rotate(-180 55.5 55)" fill="url(#paint0_linear_1249_97784)"></rect><g clip-path="url(#clip1_1249_97784)"><path d="M27.9999 44.5555C39.0456 44.5555 47.9999 35.6012 47.9999 24.5556H8C8 35.6012 16.9543 44.5555 27.9999 44.5555Z" fill="url(#paint1_linear_1249_97784)"></path></g><path d="M28.0008 13C21.6059 13 16.4219 18.1841 16.4219 24.5789H39.5797C39.5797 18.1841 34.3956 13 28.0008 13Z" fill="url(#paint2_linear_1249_97784)"></path><path d="M27.9992 36.1345C34.3941 36.1345 39.5781 30.9504 39.5781 24.5556L16.4203 24.5556C16.4203 30.9504 21.6044 36.1345 27.9992 36.1345Z" fill="url(#paint3_linear_1249_97784)"></path></g><defs><linearGradient id="paint0_linear_1249_97784" x1="36.5" y1="43" x2="96.5" y2="103" gradientUnits="userSpaceOnUse"><stop stop-color="#E7E7E7"></stop><stop offset="1" stop-color="#E7E7E7" stop-opacity="0"></stop></linearGradient><linearGradient id="paint1_linear_1249_97784" x1="-48.4284" y1="59.5554" x2="45.2306" y2="-66.7224" gradientUnits="userSpaceOnUse"><stop offset="0.3" stop-color="#69E2D3"></stop><stop offset="0.59" stop-color="#125EF6"></stop><stop offset="1" stop-color="#2A2774"></stop></linearGradient><linearGradient id="paint2_linear_1249_97784" x1="38.9345" y1="19.13" x2="16.4219" y2="19.13" gradientUnits="userSpaceOnUse"><stop stop-color="#191C2C"></stop><stop offset="1" stop-color="#535353" stop-opacity="0"></stop></linearGradient><linearGradient id="paint3_linear_1249_97784" x1="12.2034" y1="30.4709" x2="36.5375" y2="30.4709" gradientUnits="userSpaceOnUse"><stop stop-color="white"></stop><stop offset="1" stop-color="#EEEEEE" stop-opacity="0.85"></stop></linearGradient><clipPath id="clip0_1249_97784"><rect width="55" height="55" fill="white" transform="translate(0.5)"></rect></clipPath><clipPath id="clip1_1249_97784"><rect width="40" height="20.4444" fill="white" transform="translate(8 24.5556)"></rect></clipPath></defs></svg>