<svg width="55" height="55" viewBox="0 0 55 55" fill="none" xmlns="http://www.w3.org/2000/svg"><g clip-path="url(#clip0_396_86929)"><path d="M9.91829 13.9955C-0.517768 24.4316 -0.363948 41.5056 10.2619 52.1314L48.0542 14.3391C37.4284 3.71329 20.3544 3.55946 9.91829 13.9955Z" fill="url(#paint0_linear_396_86929)"></path><path fill-rule="evenodd" clip-rule="evenodd" d="M22 16C22 12.134 18.866 9 15 9C11.134 9 8 12.134 8 16C8 19.866 11.134 23 15 23C18.866 23 22 19.866 22 16ZM1 39C1 31.268 7.26801 25 15 25C22.732 25 29 31.268 29 39L1 39Z" fill="url(#paint1_linear_396_86929)"></path><path fill-rule="evenodd" clip-rule="evenodd" d="M39.75 21.75C39.75 18.8505 37.3995 16.5 34.5 16.5C31.6005 16.5 29.25 18.8505 29.25 21.75C29.25 24.6495 31.6005 27 34.5 27C37.3995 27 39.75 24.6495 39.75 21.75ZM24 39C24 33.201 28.701 28.5 34.5 28.5C40.299 28.5 45 33.201 45 39H24Z" fill="url(#paint2_linear_396_86929)"></path><path d="M12 44C14.5958 47.0505 18.5591 49 23 49C27.4409 49 31.4042 47.0505 34 44L12 44Z" fill="white"></path></g><defs><linearGradient id="paint0_linear_396_86929" x1="21.468" y1="12.6797" x2="29.6576" y2="50.322" gradientUnits="userSpaceOnUse"><stop stop-color="#333336"></stop><stop offset="1" stop-color="#333336" stop-opacity="0"></stop></linearGradient><linearGradient id="paint1_linear_396_86929" x1="-38.5" y1="61.5" x2="91.02" y2="-20.7558" gradientUnits="userSpaceOnUse"><stop offset="0.3" stop-color="#69E2D3"></stop><stop offset="0.59" stop-color="#125EF6"></stop><stop offset="1" stop-color="#2A2774"></stop></linearGradient><linearGradient id="paint2_linear_396_86929" x1="-5.625" y1="55.875" x2="93.6356" y2="-6.57919" gradientUnits="userSpaceOnUse"><stop offset="0.3" stop-color="#69E2D3"></stop><stop offset="0.59" stop-color="#125EF6"></stop><stop offset="1" stop-color="#2A2774"></stop></linearGradient><clipPath id="clip0_396_86929"><rect width="55" height="55" fill="white"></rect></clipPath></defs></svg>