<svg width="65" height="46" viewBox="0 0 65 46" fill="none" xmlns="http://www.w3.org/2000/svg"><g clip-path="url(#clip0_9_273)"><path fill-rule="evenodd" clip-rule="evenodd" d="M64.5959 23.4395C64.5959 18.9362 62.3847 15.3828 58.1586 15.3828C53.9145 15.3828 51.3467 18.9362 51.3467 23.4043C51.3467 28.6992 54.3781 31.3731 58.7291 31.3731C60.8512 31.3731 62.456 30.8981 63.6686 30.2297V26.7114C62.456 27.3095 61.0651 27.6789 59.2998 27.6789C57.5701 27.6789 56.0365 27.0809 55.8404 25.0051H64.5602C64.5602 24.7764 64.5959 23.8617 64.5959 23.4395ZM55.7869 21.7683C55.7869 19.7806 57.0172 18.9538 58.1407 18.9538C59.2285 18.9538 60.3875 19.7806 60.3875 21.7683H55.7869Z" fill="#635BFF"></path><path fill-rule="evenodd" clip-rule="evenodd" d="M44.4635 15.3828C42.716 15.3828 41.5925 16.192 40.9685 16.7549L40.7367 15.6643H36.8136V36.1754L41.2716 35.2431L41.2894 30.2648C41.9313 30.7222 42.8765 31.3731 44.4457 31.3731C47.6376 31.3731 50.5442 28.84 50.5442 23.2636C50.5264 18.1622 47.5841 15.3828 44.4635 15.3828ZM43.3936 27.503C42.3416 27.503 41.7174 27.1337 41.2894 26.6763L41.2716 20.15C41.7353 19.6399 42.3772 19.2881 43.3936 19.2881C45.0163 19.2881 46.1397 21.0823 46.1397 23.3868C46.1397 25.744 45.0342 27.503 43.3936 27.503Z" fill="#635BFF"></path><path fill-rule="evenodd" clip-rule="evenodd" d="M30.6793 14.3452L35.1552 13.3953V9.82433L30.6793 10.7567V14.3452Z" fill="#635BFF"></path><path d="M35.1552 15.6822H30.6793V31.0743H35.1552V15.6822Z" fill="#635BFF"></path><path fill-rule="evenodd" clip-rule="evenodd" d="M25.8826 16.9839L25.5972 15.6822H21.7455V31.0743H26.2036V20.6429C27.2556 19.2883 29.0388 19.5346 29.5916 19.7281V15.6822C29.021 15.4711 26.9346 15.0841 25.8826 16.9839Z" fill="#635BFF"></path><path fill-rule="evenodd" clip-rule="evenodd" d="M16.9665 11.865L12.6155 12.7797L12.5977 26.8701C12.5977 29.4736 14.5771 31.3911 17.2162 31.3911C18.6784 31.3911 19.7484 31.1272 20.3368 30.8105V27.2396C19.7662 27.4682 16.9487 28.2775 16.9487 25.674V19.4291H20.3368V15.6823H16.9487L16.9665 11.865Z" fill="#635BFF"></path><path fill-rule="evenodd" clip-rule="evenodd" d="M4.91209 20.15C4.91209 19.4639 5.48271 19.2001 6.42781 19.2001C7.78304 19.2001 9.49493 19.6046 10.8501 20.3259V16.192C9.3701 15.6115 7.90786 15.3828 6.42781 15.3828C2.80791 15.3828 0.400589 17.2475 0.400589 20.3611C0.400589 25.2162 7.17675 24.4422 7.17675 26.5356C7.17675 27.3447 6.46347 27.6086 5.46488 27.6086C3.98482 27.6086 2.09463 27.0105 0.596741 26.2013V30.388C2.25512 31.0916 3.93133 31.3906 5.46488 31.3906C9.17394 31.3906 11.7239 29.5788 11.7239 26.43C11.7061 21.1878 4.91209 22.1202 4.91209 20.15Z" fill="#635BFF"></path></g><defs><clipPath id="clip0_9_273"><rect width="65" height="26.3514" fill="white" transform="translate(0 9.82433)"></rect></clipPath></defs></svg>