<svg width="60" height="25" viewBox="0 0 60 25" fill="none" xmlns="http://www.w3.org/2000/svg"><g clip-path="url(#clip0_2185_102)"><path fill-rule="evenodd" clip-rule="evenodd" d="M59.0305 13.2517C59.0305 9.13627 57.0099 5.88904 53.1478 5.88904C49.2694 5.88904 46.9229 9.13628 46.9229 13.2195C46.9229 18.0582 49.6931 20.5017 53.6692 20.5017C55.6084 20.5017 57.075 20.0676 58.1831 19.4568V16.2416C57.075 16.7882 55.804 17.1258 54.1907 17.1258C52.61 17.1258 51.2086 16.5793 51.0293 14.6823H58.9979C58.9979 14.4734 59.0305 13.6374 59.0305 13.2517ZM50.9804 11.7244C50.9804 9.90791 52.1048 9.15233 53.1315 9.15233C54.1255 9.15233 55.1847 9.90791 55.1847 11.7244H50.9804Z" fill="white"></path><path fill-rule="evenodd" clip-rule="evenodd" d="M40.6324 5.88904C39.0354 5.88904 38.0088 6.62851 37.4385 7.14293L37.2267 6.14625H33.6416V24.8903L37.7155 24.0383L37.7318 19.4889C38.3184 19.9069 39.1822 20.5017 40.6161 20.5017C43.5331 20.5017 46.1892 18.1868 46.1892 13.0909C46.173 8.42897 43.4842 5.88904 40.6324 5.88904ZM39.6547 16.965C38.6933 16.965 38.1229 16.6275 37.7318 16.2095L37.7155 10.2455C38.1392 9.77932 38.7258 9.45784 39.6547 9.45784C41.1376 9.45784 42.1642 11.0975 42.1642 13.2034C42.1642 15.3575 41.1539 16.965 39.6547 16.965Z" fill="white"></path><path fill-rule="evenodd" clip-rule="evenodd" d="M28.0361 4.94085L32.1263 4.07277V0.809448L28.0361 1.66145V4.94085Z" fill="white"></path><path d="M32.1263 6.16272H28.0361V20.2288H32.1263V6.16272Z" fill="white"></path><path fill-rule="evenodd" clip-rule="evenodd" d="M23.6527 7.35221L23.3919 6.16263H19.8721V20.2287H23.946V10.696C24.9074 9.45811 26.537 9.68318 27.0421 9.86002V6.16263C26.5207 5.96972 24.6141 5.61606 23.6527 7.35221Z" fill="white"></path><path fill-rule="evenodd" clip-rule="evenodd" d="M15.5051 2.67432L11.529 3.51024L11.5127 16.3867C11.5127 18.7659 13.3215 20.5181 15.7333 20.5181C17.0695 20.5181 18.0473 20.277 18.585 19.9876V16.7243C18.0635 16.9333 15.4888 17.6728 15.4888 15.2936V9.58676H18.585V6.1627H15.4888L15.5051 2.67432Z" fill="white"></path><path fill-rule="evenodd" clip-rule="evenodd" d="M4.48903 10.2455C4.48903 9.61854 5.01048 9.37741 5.87416 9.37741C7.11263 9.37741 8.67704 9.74713 9.91549 10.4062V6.62851C8.56296 6.09802 7.2267 5.88904 5.87416 5.88904C2.56613 5.88904 0.366211 7.59305 0.366211 10.4384C0.366211 14.8753 6.55858 14.1679 6.55858 16.0809C6.55858 16.8204 5.90675 17.0615 4.99419 17.0615C3.64165 17.0615 1.9143 16.515 0.545464 15.7754V19.6014C2.06097 20.2445 3.59276 20.5177 4.99419 20.5177C8.3837 20.5177 10.714 18.862 10.714 15.9845C10.6977 11.1939 4.48903 12.046 4.48903 10.2455Z" fill="white"></path></g><defs><clipPath id="clip0_2185_102"><rect width="59.4" height="24.0811" fill="white" transform="translate(0 0.809448)"></rect></clipPath></defs></svg>