<svg width="56" height="55" viewBox="0 0 56 55" fill="none" xmlns="http://www.w3.org/2000/svg"><g clip-path="url(#clip0_1249_97801)"><rect x="0.5" width="55" height="55" rx="27.5" fill="url(#paint0_linear_1249_97801)"></rect><path d="M13.5 14H37C40.5899 14 43.5 16.9101 43.5 20.5V20.5C43.5 24.0899 40.5899 27 37 27H20C16.4101 27 13.5 29.9101 13.5 33.5V33.5C13.5 37.0899 16.4101 40 20 40H43.5" stroke="url(#paint1_linear_1249_97801)" stroke-width="7" stroke-linecap="round" stroke-linejoin="round"></path><path d="M12.5 40L43.5 40" stroke="url(#paint2_linear_1249_97801)" stroke-width="7" stroke-linecap="round" stroke-linejoin="round"></path><path fill-rule="evenodd" clip-rule="evenodd" d="M10.5 14C10.5 12.3431 11.8581 11 13.5333 11H26.4667C28.1419 11 29.5 12.3431 29.5 14C29.5 15.6569 28.1419 17 26.4667 17H13.5333C11.8581 17 10.5 15.6569 10.5 14Z" fill="url(#paint3_linear_1249_97801)"></path><circle cx="28.5" cy="14" r="5" transform="rotate(-180 28.5 14)" fill="url(#paint4_linear_1249_97801)"></circle><circle cx="41.5" cy="40" r="6" transform="rotate(-180 41.5 40)" fill="url(#paint5_linear_1249_97801)"></circle></g><defs><linearGradient id="paint0_linear_1249_97801" x1="-18.5" y1="-12" x2="41.5" y2="48" gradientUnits="userSpaceOnUse"><stop stop-color="#E7E7E7"></stop><stop offset="1" stop-color="#E7E7E7" stop-opacity="0"></stop></linearGradient><linearGradient id="paint1_linear_1249_97801" x1="41" y1="37" x2="12" y2="12" gradientUnits="userSpaceOnUse"><stop stop-color="#DDDDDD"></stop><stop offset="1" stop-color="#DDDDDD" stop-opacity="0"></stop></linearGradient><linearGradient id="paint2_linear_1249_97801" x1="11.9746" y1="40" x2="43.5" y2="40" gradientUnits="userSpaceOnUse"><stop stop-color="#DDDDDD" stop-opacity="0"></stop><stop offset="1" stop-color="#42A6E3"></stop></linearGradient><linearGradient id="paint3_linear_1249_97801" x1="31.9149" y1="14.1765" x2="8.55" y2="14.1765" gradientUnits="userSpaceOnUse"><stop stop-color="#535353"></stop><stop offset="1" stop-color="#535353" stop-opacity="0"></stop></linearGradient><linearGradient id="paint4_linear_1249_97801" x1="30.6875" y1="13.2647" x2="-1.85714" y2="13.2647" gradientUnits="userSpaceOnUse"><stop stop-color="#181B2B"></stop><stop offset="1" stop-color="#999999" stop-opacity="0.15"></stop></linearGradient><linearGradient id="paint5_linear_1249_97801" x1="58.1154" y1="38.3448" x2="18.8846" y2="38.3472" gradientUnits="userSpaceOnUse"><stop offset="0.192654" stop-color="#69E2D3"></stop><stop offset="0.753129" stop-color="#125EF6"></stop><stop offset="1" stop-color="#2A2774"></stop></linearGradient><clipPath id="clip0_1249_97801"><rect width="55" height="55" fill="white" transform="translate(0.5)"></rect></clipPath></defs></svg>