<svg style="height:22px" width="120" height="22px" viewBox="0 0 187 34" fill="#fff" xmlns="http://www.w3.org/2000/svg"><path d="M0 33.3687H9.38558V21.7237H19.4546V14.7736H9.38558V7.77737H22.006V0.458984H0V33.3687Z" fill="#fff"></path><path d="M27.1016 33.3687H48.7886V26.0503H36.4871V0.458984H27.1016V33.3687Z" fill="#fff"></path><path d="M67.0835 33.921C76.059 33.921 81.6175 29.4564 81.6175 19.8826V0.458984H72.1863V19.4684C72.1863 24.3933 70.9562 26.5106 67.0835 26.5106C63.1197 26.5106 61.9806 24.2552 61.9806 19.6065V0.458984H52.6406V20.0207C52.6406 29.2262 57.8802 33.921 67.0835 33.921Z" fill="#fff"></path><path d="M86.0078 33.3687H95.6212L101.681 22.0459L107.74 33.3687H118.402L108.333 16.1084L117.08 0.458984H107.513L102.501 10.2629L97.3981 0.458984H86.7823L96.0768 16.4306L86.0078 33.3687Z" fill="#fff"></path><path d="M157.887 33.3687H166.088V12.7023L177.979 33.3687H187V0.458984H178.845V19.0081L168.411 0.458984H157.887V33.3687Z" fill="#fff"></path><path d="M135.323 34C144.614 34 152.146 26.3888 152.146 17C152.146 7.61114 144.614 0 135.323 0C126.032 0 118.5 7.61114 118.5 17C118.5 26.3888 126.032 34 135.323 34Z" fill="#125EF6"></path></svg>