<svg width="55" height="55" viewBox="0 0 55 55" fill="none" xmlns="http://www.w3.org/2000/svg"><g clip-path="url(#clip0_396_86901)"><path d="M13 27.5C13 42.6878 25.536 55 41 55V0C25.536 0 13 12.3122 13 27.5Z" fill="url(#paint0_linear_396_86901)"></path><path fill-rule="evenodd" clip-rule="evenodd" d="M24 42C15.7157 42 9 35.5081 9 27.5C9 19.4919 15.7157 13 24 13V42ZM40.5 42C48.5081 42 55 35.5081 55 27.5C55 19.4919 48.5081 13 40.5 13C32.4919 13 26 19.4919 26 27.5C26 35.5081 32.4919 42 40.5 42Z" fill="url(#paint1_linear_396_86901)"></path><path d="M7 14C2.72935 17.1858 0 22.0499 0 27.5C0 32.9501 2.72935 37.8142 7 41V14Z" fill="white"></path></g><defs><linearGradient id="paint0_linear_396_86901" x1="20.4468" y1="18.1383" x2="53.7969" y2="39.5698" gradientUnits="userSpaceOnUse"><stop stop-color="#333336"></stop><stop offset="1" stop-color="#333336" stop-opacity="0"></stop></linearGradient><linearGradient id="paint1_linear_396_86901" x1="-19" y1="28" x2="111.959" y2="30.3263" gradientUnits="userSpaceOnUse"><stop offset="0.3" stop-color="#69E2D3"></stop><stop offset="0.59" stop-color="#125EF6"></stop><stop offset="1" stop-color="#2A2774"></stop></linearGradient><clipPath id="clip0_396_86901"><rect width="55" height="55" fill="white"></rect></clipPath></defs></svg>