<svg width="55" height="55" viewBox="0 0 55 55" fill="none" xmlns="http://www.w3.org/2000/svg"><path d="M27.5 3C12.8645 3 0.999999 15.0883 0.999999 30L54 30C54 15.0883 42.1355 3 27.5 3Z" fill="url(#paint0_linear_802_111024)"></path><path d="M27.5 8.3572L40.3857 15.3858L27.5 22.4143L14.6143 15.3858L27.5 8.3572Z" fill="url(#paint1_linear_802_111024)"></path><path d="M40.3856 30.6143L40.3856 15.3858L27.4999 22.4144L27.4999 37.6429L40.3856 30.6143Z" fill="url(#paint2_linear_802_111024)"></path><path d="M14.6144 30.6143L14.6144 15.3858L27.5001 22.4144L27.5001 37.6429L14.6144 30.6143Z" fill="white"></path><path d="M20 45C21.7699 47.4404 24.4721 49 27.5 49C30.5279 49 33.2301 47.4404 35 45L20 45Z" fill="url(#paint3_linear_802_111024)"></path><defs><linearGradient id="paint0_linear_802_111024" x1="36.5213" y1="10.1808" x2="15.8494" y2="42.3272" gradientUnits="userSpaceOnUse"><stop stop-color="#333336"></stop><stop offset="1" stop-color="#333336" stop-opacity="0"></stop></linearGradient><linearGradient id="paint1_linear_802_111024" x1="27.5" y1="28.2715" x2="25.5672" y2="-14.8957" gradientUnits="userSpaceOnUse"><stop stop-color="#959595"></stop><stop offset="1" stop-color="#1B1B1B"></stop></linearGradient><linearGradient id="paint2_linear_802_111024" x1="50.9641" y1="38.6885" x2="16.496" y2="4.22278" gradientUnits="userSpaceOnUse"><stop offset="0.3" stop-color="#69E2D3"></stop><stop offset="0.59" stop-color="#125EF6"></stop><stop offset="1" stop-color="#2A2774"></stop></linearGradient><linearGradient id="paint3_linear_802_111024" x1="35" y1="45" x2="20" y2="45" gradientUnits="userSpaceOnUse"><stop stop-color="#535353"></stop><stop offset="1" stop-color="#535353" stop-opacity="0"></stop></linearGradient></defs></svg>