<svg width="55" height="55" viewBox="0 0 55 55" fill="none" xmlns="http://www.w3.org/2000/svg"><g clip-path="url(#clip0_802_111019)"><path d="M10.4343 43.7011C22.3562 55.6231 41.8613 55.4474 54 43.3086L10.8268 0.135393C-1.31196 12.2741 -1.48768 31.7792 10.4343 43.7011Z" fill="url(#paint0_linear_802_111019)"></path><circle cx="33" cy="21" r="13" transform="rotate(90 33 21)" fill="url(#paint1_linear_802_111019)"></circle><circle cx="23" cy="31" r="13" transform="rotate(90 23 31)" fill="url(#paint2_linear_802_111019)"></circle><path fill-rule="evenodd" clip-rule="evenodd" d="M20 21C20 28.1797 25.8203 34 33 34C33.9314 34 34.84 33.902 35.7159 33.7159C35.902 32.84 36 31.9314 36 31C36 23.8203 30.1797 18 23 18C22.0686 18 21.16 18.098 20.2841 18.2841C20.098 19.16 20 20.0686 20 21Z" fill="white"></path></g><defs><linearGradient id="paint0_linear_802_111019" x1="8.93115" y1="30.507" x2="51.9329" y2="21.1513" gradientUnits="userSpaceOnUse"><stop stop-color="#333336"></stop><stop offset="1" stop-color="#333336" stop-opacity="0"></stop></linearGradient><linearGradient id="paint1_linear_802_111019" x1="46" y1="34" x2="0.500005" y2="-7.60001" gradientUnits="userSpaceOnUse"><stop stop-color="#959595"></stop><stop offset="1" stop-color="#1B1B1B"></stop></linearGradient><linearGradient id="paint2_linear_802_111019" x1="59" y1="27.4138" x2="-26" y2="27.4189" gradientUnits="userSpaceOnUse"><stop offset="0.3" stop-color="#69E2D3"></stop><stop offset="0.59" stop-color="#125EF6"></stop><stop offset="1" stop-color="#2A2774"></stop></linearGradient><clipPath id="clip0_802_111019"><rect width="55" height="55" fill="white"></rect></clipPath></defs></svg>