<svg width="97" height="38" viewBox="0 0 97 38" fill="none" xmlns="http://www.w3.org/2000/svg"><path d="M19.4575 22.6473H21.7284V16.4981L24.47 8.20914H22.2615L20.7175 13.5135H20.676L19.1252 8.20914H16.7158L19.4575 16.4981V22.6473ZM28.4025 22.8551C29.351 22.9174 30.2857 22.5712 30.9642 21.9064C31.5942 21.1585 31.9127 20.2029 31.8503 19.2265V11.6369C31.9127 10.6605 31.5942 9.69797 30.9642 8.94317C30.2857 8.27839 29.351 7.93215 28.4025 7.99448C27.454 7.93215 26.5263 8.27839 25.8478 8.94317C25.2177 9.69105 24.8923 10.6536 24.9547 11.63V19.2265C24.8923 20.2029 25.2108 21.1585 25.8478 21.9064C26.5263 22.5712 27.454 22.9174 28.4025 22.8551ZM27.2186 11.4846C27.2186 10.5428 27.6132 10.065 28.4094 10.065C29.2056 10.065 29.6002 10.5428 29.6002 11.4846V19.365C29.6002 20.3137 29.2056 20.7915 28.4094 20.7915C27.6202 20.7915 27.2186 20.3137 27.2186 19.365V11.4846ZM36.6759 22.8551C37.6106 22.9174 38.5245 22.5781 39.1961 21.9133C39.8122 21.1585 40.1238 20.196 40.0546 19.2196V8.20914H37.8668V19.3858C37.9014 19.7666 37.7975 20.1544 37.5691 20.4591C37.3475 20.6876 37.036 20.8123 36.7106 20.7915C36.3852 20.8192 36.0598 20.6945 35.8313 20.4591C35.6028 20.1475 35.492 19.7666 35.5267 19.3858V8.20914H33.2835V19.2265C33.2212 20.2029 33.5327 21.1654 34.1489 21.9202C34.8205 22.5781 35.7413 22.9174 36.6759 22.8551ZM43.9317 16.4566H44.7486C45.1571 16.415 45.5656 16.5604 45.8564 16.8513C46.1125 17.2668 46.2233 17.7515 46.1748 18.2362V20.8746C46.1541 21.2554 46.161 21.6363 46.1887 22.0172C46.2164 22.2457 46.2718 22.4604 46.3548 22.675H48.6673C48.5565 22.4396 48.4872 22.1834 48.4596 21.9202C48.4249 21.5878 48.4111 21.2554 48.418 20.9231V18.3609C48.4457 17.6615 48.328 16.969 48.0788 16.3181C47.8572 15.8195 47.421 15.4455 46.8879 15.3071V15.2655C47.878 14.8708 48.3695 13.9221 48.3695 12.4194V11.5261C48.4457 10.619 48.1549 9.71875 47.5664 9.01934C46.8533 8.41689 45.9325 8.12605 45.0048 8.20222H41.6608V22.6404H43.9317V16.4566ZM43.9317 10.2727H44.9632C45.2956 10.245 45.621 10.3766 45.8425 10.6259C46.0502 10.9652 46.1471 11.3599 46.1125 11.7616V12.8765C46.1541 13.2989 46.0364 13.7282 45.7733 14.0675C45.4963 14.3168 45.1294 14.4484 44.7486 14.4207H43.9247V10.2727H43.9317ZM52.9251 22.8551C53.8667 22.9174 54.7944 22.5712 55.466 21.9064C56.096 21.1446 56.4145 20.1752 56.3453 19.1849C56.3661 18.3609 56.1791 17.5438 55.8122 16.8097C55.2929 15.9511 54.6283 15.1963 53.8529 14.5661C53.2644 14.0883 52.7521 13.5343 52.3159 12.918C52.032 12.4817 51.8797 11.9693 51.8728 11.4499C51.8728 10.5289 52.2536 10.0719 53.0082 10.0719C53.3267 10.0511 53.6382 10.1758 53.8529 10.4112C54.0744 10.7228 54.1783 11.1106 54.1437 11.4915V12.2324H56.2899V11.6369C56.3591 10.6674 56.0684 9.71182 55.4729 8.94317C54.8291 8.28532 53.929 7.93908 53.0082 8.0014C52.0736 7.93908 51.1597 8.27839 50.495 8.94317C49.8788 9.68412 49.5673 10.6328 49.6296 11.5954C49.6158 12.3848 49.8096 13.1604 50.1904 13.8528C50.7166 14.6907 51.3812 15.4455 52.1497 16.0688C52.7313 16.5535 53.2367 17.1144 53.659 17.7446C53.936 18.2293 54.0813 18.7833 54.0675 19.3442C54.1021 19.7389 53.9983 20.1267 53.7698 20.4522C53.5413 20.6945 53.2228 20.8192 52.8905 20.7984C52.1013 20.7984 51.6997 20.3275 51.6997 19.3927V18.4094H49.5881V19.2334C49.5258 20.2029 49.8235 21.1654 50.4327 21.9272C51.0835 22.5781 51.9974 22.9243 52.9251 22.8551ZM59.4193 22.6473H61.6901V10.2727H64.0649V8.20914H57.0515V10.2727H59.4193V22.6473ZM68.3504 22.8551C69.2989 22.9174 70.2336 22.5712 70.9121 21.9064C71.5421 21.1585 71.8606 20.2029 71.7983 19.2265V11.6369C71.8606 10.6605 71.5421 9.69797 70.9121 8.94317C69.4443 7.67593 67.2704 7.67593 65.8026 8.94317C65.1726 9.69105 64.8472 10.6536 64.9095 11.63V19.2265C64.8472 20.2029 65.1657 21.1585 65.8026 21.9064C66.4742 22.5712 67.4019 22.9174 68.3504 22.8551ZM67.1596 11.4846C67.1596 10.5428 67.5543 10.065 68.3504 10.065C69.1466 10.065 69.5413 10.5428 69.5413 11.4846V19.365C69.5413 20.3137 69.1466 20.7915 68.3504 20.7915C67.5612 20.7915 67.1596 20.3137 67.1596 19.365V11.4846ZM75.5854 16.4566H76.3677C76.7762 16.415 77.1847 16.5604 77.4755 16.8513C77.7316 17.2668 77.8424 17.7515 77.7939 18.2362V20.8746C77.787 21.2485 77.8009 21.6225 77.8355 21.9895C77.8632 22.218 77.9186 22.4327 78.0016 22.6473H80.3071C80.2033 22.405 80.1341 22.1557 80.1064 21.8925C80.0717 21.5601 80.0579 21.2277 80.0648 20.8954V18.3609C80.0925 17.6615 79.9748 16.969 79.7256 16.3181C79.504 15.8195 79.0679 15.4455 78.5348 15.3071V15.2655C79.5317 14.8708 80.0233 13.9221 80.0163 12.4194V11.5261C80.0925 10.619 79.8017 9.71875 79.2132 9.01934C78.5001 8.41689 77.5793 8.12605 76.6516 8.20222H73.2937V22.6404H75.5646L75.5854 16.4566ZM75.5854 10.2727H76.617C76.9493 10.245 77.2678 10.3766 77.4893 10.6259C77.7039 10.9652 77.8078 11.3599 77.7663 11.7616V12.8765C77.8078 13.2989 77.6901 13.7282 77.427 14.0675C77.1501 14.3168 76.7831 14.4484 76.4023 14.4207H75.5785V10.2727H75.5854ZM83.3811 22.6473H85.652V16.4981L88.3937 8.20914H86.1851L84.6412 13.5135H84.5996L83.0488 8.20914H80.6395L83.3811 16.4981V22.6473Z" fill="#747680"></path><path d="M94.6237 0.0375977H7.98438V30.6452H96.9984V0.0375977H94.6237ZM94.6237 28.27H10.3037V2.4128H94.6237V28.27Z" fill="#747680"></path><path d="M87.867 30.2641C87.5208 30.2572 87.1816 30.1741 86.8769 30.0218V35.3677H2.58468V9.50362H9.1896C8.85727 8.72112 8.96112 7.8209 9.45961 7.12842H0.209961V37.736H89.2447V30.0149C88.8016 30.181 88.3378 30.2641 87.867 30.2641Z" fill="#747680"></path><path d="M10.7893 29.1494L2.06579 37.2237L0.390334 35.5479L9.1138 27.4736L10.7893 29.1494ZM9.65383 1.7134L1.93425 8.81823L0.258789 7.14243L7.97837 0.0375977C7.97837 0.0445224 9.65383 1.7134 9.65383 1.7134Z" fill="#747680"></path></svg>