<svg width="88" height="24" viewBox="0 0 88 24" fill="none" xmlns="http://www.w3.org/2000/svg"><path d="M20.807 16.2118L20.7949 16.173L28.5215 9.0994V5.69116H16.1253V9.0994H23.5296L23.5418 9.13206L15.8906 16.2118V19.6201H28.646V16.2118H20.807Z" fill="white"></path><path d="M36.2548 5.36658C34.825 5.36658 33.6596 5.58223 32.7588 6.01353C31.9199 6.38941 31.213 7.00872 30.7302 7.79112C30.2684 8.57866 29.9783 9.455 29.8793 10.3626L33.6405 10.8912C33.7766 10.0898 34.0488 9.52178 34.4569 9.18707C34.9209 8.837 35.4927 8.66012 36.0732 8.68706C36.8365 8.68706 37.3903 8.89116 37.7346 9.29931C38.0754 9.70749 38.2488 10.2728 38.2488 11.0177V11.3891H34.6324C32.7915 11.3891 31.469 11.7973 30.665 12.6137C29.8609 13.43 29.4596 14.5076 29.4609 15.8464C29.4609 17.2178 29.8622 18.2383 30.665 18.9076C31.4676 19.5771 32.4773 19.9098 33.6937 19.9056C35.2025 19.9056 36.3631 19.3866 37.1753 18.3485C37.655 17.7105 37.9975 16.9803 38.1814 16.2035H38.3182L38.8366 19.6117H42.2449V10.981C42.2449 9.19727 41.7747 7.81563 40.8347 6.83601C39.8944 5.8564 38.3679 5.36658 36.2548 5.36658ZM37.4468 16.0056C36.9059 16.4566 36.1978 16.6811 35.3161 16.6811C34.5895 16.6811 34.0847 16.5539 33.8018 16.2995C33.664 16.1791 33.5541 16.0298 33.4804 15.8623C33.4067 15.6948 33.3708 15.513 33.3753 15.3301C33.3671 15.1575 33.3944 14.9851 33.4551 14.8233C33.5157 14.6616 33.6087 14.5139 33.7283 14.3892C33.8576 14.2679 34.0102 14.1741 34.1769 14.1134C34.3435 14.0527 34.5206 14.0264 34.6977 14.0361H38.2549V14.2708C38.2622 14.6026 38.1931 14.9316 38.053 15.2323C37.9127 15.5331 37.7054 15.7977 37.4468 16.0056Z" fill="white"></path><path d="M62.8518 5.69116H58.8252V19.622H62.8518V5.69116Z" fill="white"></path><path d="M86.6245 5.69116C85.4871 5.69116 84.5905 6.09252 83.9347 6.89527C83.4639 7.47215 83.106 8.32456 82.8611 9.45246H82.7428L82.2163 5.69116H78.7773V19.6201H82.8041V12.477C82.8041 11.5763 83.015 10.8858 83.4368 10.4055C83.8584 9.92527 84.6367 9.68513 85.7714 9.68513H87.3V5.69116H86.6245Z" fill="white"></path><path d="M74.786 6.14657C73.8459 5.58738 72.6603 5.30846 71.2288 5.30982C68.9758 5.30982 67.2125 5.95134 65.939 7.23435C64.6654 8.51737 64.0288 10.2861 64.0288 12.5406C63.9963 13.9036 64.2938 15.2542 64.896 16.4774C65.4473 17.5674 66.3059 18.472 67.3656 19.0794C68.4322 19.6959 69.7009 20.0048 71.1716 20.006C72.4439 20.006 73.5065 19.8101 74.3595 19.4183C75.1616 19.0664 75.8599 18.5148 76.3881 17.8162C76.8911 17.1304 77.2646 16.3586 77.4902 15.5386L74.0208 14.5671C73.8748 15.1003 73.5936 15.5868 73.2044 15.9794C72.8125 16.3713 72.1561 16.5672 71.2349 16.5672C70.1398 16.5672 69.3234 16.2536 68.7859 15.6264C68.3962 15.1733 68.1513 14.5263 68.0431 13.6875H77.5434C77.5821 13.2957 77.6025 12.9671 77.6025 12.7018V11.8344C77.6254 10.6692 77.3847 9.51388 76.8984 8.45478C76.4432 7.48998 75.7068 6.68538 74.786 6.14657ZM71.1126 8.63029C72.7452 8.63029 73.6711 9.4337 73.8901 11.0405H68.1145C68.2063 10.5044 68.4284 9.99906 68.7615 9.56909C69.2908 8.94186 70.0744 8.62893 71.1126 8.63029Z" fill="white"></path><path d="M60.8813 0.0768683C60.5783 0.0665663 60.2765 0.117261 59.9935 0.225944C59.7106 0.334628 59.4525 0.499075 59.2343 0.70952C59.0194 0.921981 58.8508 1.17683 58.7394 1.45789C58.628 1.73895 58.5762 2.04007 58.5875 2.34219C58.5765 2.64625 58.6285 2.94929 58.7399 3.2324C58.8515 3.51552 59.02 3.77262 59.2352 3.98767C59.4506 4.20271 59.7078 4.37109 59.9909 4.4823C60.2742 4.59352 60.5773 4.64517 60.8813 4.63405C61.1833 4.64547 61.4847 4.59383 61.7658 4.48244C62.0468 4.37107 62.3016 4.20236 62.514 3.98709C62.7246 3.7696 62.889 3.51176 62.9973 3.22908C63.1058 2.94639 63.1558 2.64472 63.1445 2.34219C63.1584 2.04144 63.1096 1.7411 63.0008 1.46033C62.8922 1.17957 62.7262 0.924557 62.5134 0.711576C62.3005 0.498595 62.0457 0.332326 61.7651 0.223391C61.4844 0.114456 61.184 0.0652521 60.8834 0.0789111L60.8813 0.0768683Z" fill="white"></path><path d="M52.5649 5.30981C51.1936 5.30981 50.0916 5.74042 49.2589 6.60166C48.6424 7.23977 48.1902 8.19218 47.9017 9.45886H47.7731L47.2466 5.69756H43.8076V23.6245H47.8342V16.2406H47.9813C48.1042 16.733 48.2764 17.2116 48.4956 17.6692C48.8362 18.4146 49.3948 19.0395 50.0976 19.4611C50.8264 19.8588 51.6473 20.0567 52.4772 20.0346C54.163 20.0346 55.4467 19.3782 56.3284 18.0651C57.2099 16.7522 57.6509 14.9202 57.6509 12.5692C57.6509 10.2984 57.2244 8.52077 56.3712 7.23638C55.5182 5.95201 54.2494 5.30981 52.5649 5.30981ZM52.9732 15.4039C52.5038 16.0842 51.7691 16.4243 50.769 16.4243C50.3568 16.4434 49.9457 16.3639 49.5703 16.1925C49.1948 16.021 48.8656 15.7626 48.6099 15.4386C48.0887 14.7842 47.8289 13.8882 47.8302 12.7508V12.4855C47.8302 11.3303 48.0901 10.446 48.6099 9.83234C49.1296 9.21874 49.8493 8.91532 50.769 8.92213C51.7868 8.92213 52.5262 9.24526 52.9874 9.89152C53.4487 10.5378 53.6793 11.4392 53.6793 12.5957C53.6821 13.7916 53.448 14.7277 52.9772 15.4039H52.9732Z" fill="white"></path><path d="M14.3313 16.2119H0.400391V19.6243H14.3313V16.2119Z" fill="white"></path></svg>