<svg width="164" height="40" viewBox="0 0 164 40" fill="none" xmlns="http://www.w3.org/2000/svg"><g clip-path="url(#clip0_9587_20657)"><path d="M89.85 18.1412H88.3281C88.2969 18.014 88.2735 17.8666 88.258 17.6992C88.227 17.3733 88.227 17.0452 88.258 16.7194C88.2735 16.5523 88.2969 16.405 88.3281 16.2771H92.121V28.5373C91.9311 28.571 91.7396 28.5948 91.5474 28.6086C91.3564 28.6235 91.165 28.6314 90.9735 28.6323C90.79 28.6311 90.6066 28.6232 90.4237 28.6086C90.2315 28.5947 90.0402 28.5707 89.8504 28.5369V18.1407V18.1409L89.85 18.1412ZM103.054 21.2244C103.054 20.7781 102.995 20.3521 102.878 19.9454C102.761 19.5394 102.589 19.185 102.363 18.8821C102.137 18.5797 101.848 18.3365 101.497 18.1534C101.146 17.9702 100.728 17.8784 100.244 17.8784C99.2923 17.8784 98.5626 18.1736 98.0554 18.7628C97.5482 19.3522 97.2401 20.1727 97.1307 21.2244H103.054H103.054ZM97.1073 22.9927C97.1386 24.331 97.4781 25.3111 98.1258 25.9321C98.7732 26.5534 99.7293 26.8645 100.994 26.8645C102.101 26.8645 103.155 26.6651 104.154 26.2668C104.278 26.5058 104.38 26.7966 104.458 27.1391C104.535 27.4727 104.582 27.8126 104.598 28.1547C104.084 28.3783 103.517 28.5449 102.901 28.6567C102.284 28.7679 101.602 28.824 100.853 28.824C99.7601 28.824 98.8235 28.6682 98.0436 28.3578C97.263 28.0467 96.6192 27.6086 96.112 27.0433C95.6048 26.4778 95.234 25.8086 94.9999 25.0357C94.7659 24.2632 94.6486 23.4147 94.6486 22.4906C94.6486 21.5825 94.7617 20.734 94.9881 19.9452C95.214 19.157 95.562 18.4718 96.0297 17.8903C96.4981 17.3085 97.0872 16.8466 97.7974 16.5041C98.5072 16.1615 99.346 15.99 100.314 15.99C101.141 15.99 101.867 16.1336 102.491 16.4203C103.115 16.707 103.638 17.1014 104.06 17.6033C104.481 18.1053 104.801 18.7028 105.02 19.3955C105.238 20.0888 105.348 20.8415 105.348 21.6542C105.348 21.8773 105.339 22.1122 105.324 22.359C105.311 22.5703 105.296 22.7814 105.277 22.9922H97.1068L97.1071 22.9926L97.1073 22.9927ZM107.901 16.2771C108.064 16.2469 108.228 16.223 108.393 16.2055C108.548 16.19 108.712 16.1819 108.884 16.1819C109.056 16.1819 109.227 16.19 109.399 16.2055C109.571 16.2217 109.727 16.2457 109.868 16.2771C109.914 16.5162 109.961 16.8312 110.007 17.2211C110.054 17.6115 110.078 17.9419 110.078 18.2129C110.406 17.6714 110.839 17.201 111.377 16.8026C111.916 16.4046 112.606 16.2052 113.449 16.2052C113.574 16.2052 113.702 16.2094 113.835 16.2174C113.949 16.2236 114.062 16.2353 114.175 16.2529C114.206 16.3965 114.23 16.5481 114.245 16.7072C114.26 16.8663 114.268 17.0338 114.268 17.2089C114.268 17.4002 114.257 17.5996 114.233 17.8062C114.211 18.006 114.183 18.2052 114.151 18.4036C114.025 18.3718 113.895 18.3558 113.765 18.3558H113.449C113.027 18.3558 112.625 18.4157 112.243 18.535C111.86 18.6546 111.517 18.8658 111.213 19.1682C110.909 19.4711 110.667 19.8855 110.488 20.4113C110.308 20.9371 110.218 21.6142 110.218 22.4425V28.5369C110.028 28.5705 109.837 28.5946 109.644 28.6084C109.434 28.6244 109.243 28.6321 109.071 28.6321C108.88 28.6314 108.688 28.6235 108.497 28.6084C108.297 28.5936 108.098 28.5698 107.9 28.537V16.2772L107.901 16.2771ZM91.4701 9.73073C91.4701 10.0168 91.4195 10.3005 91.3208 10.5682C91.0584 10.669 90.7804 10.7207 90.5002 10.7207H90.4967C90.2164 10.7208 89.9384 10.6691 89.6761 10.5683C89.5772 10.3005 89.5265 10.0168 89.5265 9.7306V9.72686C89.5265 9.43205 89.5795 9.14971 89.6755 8.88918C89.9379 8.7882 90.216 8.73655 90.4964 8.73673H90.4995C90.7885 8.73673 91.0649 8.79083 91.3201 8.88918C91.419 9.15692 91.4696 9.44072 91.4695 9.72686V9.7306H91.4699L91.4701 9.73073ZM94.3307 9.06756H92.0623L93.6662 7.43022C93.414 7.06866 93.1043 6.75267 92.7501 6.49531L91.146 8.13265V5.81694C90.9327 5.78032 90.7168 5.76184 90.5005 5.76172H90.4964C90.2763 5.76172 90.0608 5.78092 89.8508 5.81694V8.13265L88.2463 6.49519C88.0696 6.62357 87.9038 6.76684 87.7505 6.9235L87.7498 6.92425C87.5966 7.0808 87.4563 7.25008 87.3306 7.43035L88.935 9.06756H86.6662C86.6662 9.06756 86.6122 9.50261 86.6122 9.72749V9.73023C86.6122 9.9551 86.6309 10.1755 86.6663 10.39H88.9351L87.3305 12.0271C87.5828 12.3886 87.8925 12.7047 88.2467 12.9623L89.8509 11.3251V13.6409C90.0607 13.6768 90.2758 13.6957 90.4956 13.696H90.5011C90.7172 13.6958 90.9328 13.6774 91.1459 13.6409V11.3251L92.7502 12.9627C92.9269 12.8342 93.0929 12.6909 93.2464 12.5343H93.2467C93.3999 12.3776 93.5401 12.2082 93.6658 12.0279L92.062 10.3902H94.3308C94.366 10.1757 94.3846 9.9561 94.3846 9.73172V9.72599C94.3846 9.50535 94.3665 9.28533 94.3308 9.06781V9.06756H94.3307ZM53.212 28.2028L59.5331 18.1651H53.9611C53.9144 17.8784 53.8911 17.56 53.8911 17.2094C53.8911 16.8749 53.9148 16.5639 53.9616 16.277H62.9747L63.092 16.5882L56.7241 26.6494H62.6938C62.7405 26.9681 62.7641 27.2945 62.7641 27.6289C62.7641 27.948 62.7407 28.2506 62.6939 28.5373H53.3293L53.212 28.2024V28.2028ZM71.4492 22.7775C71.2151 22.7459 70.9184 22.7144 70.5596 22.6821C70.2005 22.6506 69.8962 22.6344 69.6469 22.6344C68.679 22.6344 67.9416 22.8176 67.4347 23.1841C66.9271 23.5508 66.6739 24.1082 66.6739 24.857C66.6739 25.3349 66.7594 25.7093 66.9312 25.9801C67.1027 26.2513 67.3175 26.458 67.575 26.6015C67.8326 26.7449 68.1172 26.8326 68.4292 26.8645C68.7412 26.8963 69.0379 26.9121 69.3188 26.9121C69.6778 26.9121 70.0484 26.8922 70.4309 26.8523C70.8131 26.8128 71.1525 26.7528 71.4493 26.6732V22.7775H71.4492ZM71.4492 20.4596C71.4492 19.5192 71.2151 18.8661 70.747 18.4996C70.2786 18.1331 69.5997 17.9498 68.7102 17.9498C68.1635 17.9498 67.6527 17.994 67.1768 18.0815C66.7059 18.1678 66.2406 18.2834 65.7835 18.4276C65.4867 17.9018 65.339 17.273 65.339 16.5396C65.8689 16.3646 66.4541 16.2292 67.0944 16.1336C67.7342 16.0379 68.3507 15.99 68.944 15.99C70.5046 15.99 71.6907 16.3528 72.5024 17.0776C73.3137 17.8031 73.7198 18.962 73.7198 20.555V28.2265C73.1733 28.3539 72.5102 28.4853 71.7299 28.6208C70.9409 28.7568 70.1421 28.8248 69.342 28.824C68.5773 28.824 67.8864 28.7525 67.2702 28.6091C66.6535 28.4653 66.1306 28.2349 65.7015 27.9157C65.2719 27.5974 64.9408 27.191 64.7063 26.6972C64.4723 26.2032 64.3552 25.6059 64.3552 24.9047C64.3552 24.2198 64.4918 23.6183 64.7649 23.1002C65.0333 22.5883 65.414 22.1467 65.8771 21.8098C66.3453 21.4677 66.8837 21.2124 67.4924 21.0454C68.1013 20.878 68.7409 20.7942 69.4121 20.7942C69.9115 20.7942 70.3212 20.8064 70.6413 20.8304C70.9609 20.854 71.2303 20.882 71.4489 20.9139V20.4598L71.4492 20.4596ZM78.5659 26.5293C78.8615 26.6408 79.1675 26.7209 79.4791 26.7684C79.7912 26.8164 80.1966 26.8402 80.6965 26.8402C81.2583 26.8402 81.7731 26.7488 82.2413 26.5656C82.7097 26.3827 83.1115 26.0996 83.447 25.7171C83.7826 25.3349 84.0478 24.8532 84.2429 24.2711C84.438 23.6899 84.5358 23.0011 84.5358 22.2041C84.5358 20.9296 84.3052 19.9179 83.8451 19.169C83.3844 18.4203 82.6313 18.0458 81.586 18.0458C81.1959 18.0458 80.821 18.1174 80.4626 18.261C80.1031 18.4043 79.7834 18.6195 79.5024 18.9062C79.2215 19.1929 78.9953 19.5556 78.8237 19.9937C78.6515 20.4322 78.566 20.9535 78.566 21.5591V26.5297V26.5295L78.5659 26.5293ZM76.2482 16.2768C76.4069 16.2449 76.5669 16.2211 76.7281 16.2053C76.8955 16.1895 77.0635 16.1816 77.2316 16.1816C77.3871 16.1816 77.5509 16.1898 77.723 16.2053C77.8944 16.2215 78.0583 16.2456 78.2146 16.277C78.23 16.3094 78.2498 16.4085 78.2732 16.5759C78.2964 16.7433 78.3198 16.9224 78.3434 17.1134C78.3669 17.3048 78.3902 17.4884 78.4136 17.6631C78.4371 17.8386 78.4488 17.9502 78.4488 17.998C78.6045 17.7433 78.7919 17.4961 79.0105 17.2571C79.2291 17.018 79.4908 16.803 79.7951 16.612C80.0994 16.4207 80.4425 16.2695 80.8251 16.1578C81.2073 16.0464 81.6327 15.9901 82.101 15.9901C82.8031 15.9901 83.4548 16.1098 84.056 16.3489C84.6565 16.5882 85.1713 16.9581 85.6007 17.4601C86.0297 17.9621 86.3652 18.5994 86.6073 19.3719C86.8491 20.1453 86.97 21.0572 86.97 22.1086C86.97 24.2115 86.4119 25.8569 85.2958 27.0437C84.1797 28.2307 82.5999 28.824 80.5554 28.824C80.2119 28.824 79.8609 28.8 79.5019 28.7523C79.1426 28.7043 78.8308 28.6405 78.5653 28.5612V34.1774C78.3675 34.2102 78.1685 34.2342 77.9687 34.2491C77.7578 34.2647 77.5664 34.2728 77.3947 34.2728C77.2034 34.2719 77.0121 34.264 76.8213 34.2491C76.6291 34.2352 76.4377 34.2112 76.2478 34.1774V16.277L76.2482 16.2768Z" fill="#FF4A00"></path></g><defs><clipPath id="clip0_9587_20657"><rect width="81.0566" height="28.5459" fill="#FF4A00" transform="translate(53.212 5.72656)"></rect></clipPath></defs></svg>